<ttFont>
    <TTGlyph name="" xMin="-773" yMin="1291" xMax="-382" yMax="2078">
      <contour>
        <pt x="-577" y="1672" on="1"/>
        <pt x="-528" y="1672" on="0"/>
        <pt x="-434" y="1623" on="0"/>
        <pt x="-382" y="1531" on="0"/>
        <pt x="-382" y="1481" on="1"/>
        <pt x="-382" y="1432" on="0"/>
        <pt x="-433" y="1341" on="0"/>
        <pt x="-526" y="1291" on="0"/>
        <pt x="-577" y="1291" on="1"/>
        <pt x="-628" y="1291" on="0"/>
        <pt x="-721" y="1341" on="0"/>
        <pt x="-773" y="1432" on="0"/>
        <pt x="-773" y="1481" on="1"/>
        <pt x="-773" y="1531" on="0"/>
        <pt x="-720" y="1623" on="0"/>
        <pt x="-627" y="1672" on="0"/>
      </contour>
      <contour>
        <pt x="-597" y="1564" on="0"/>
        <pt x="-636" y="1543" on="0"/>
        <pt x="-659" y="1505" on="0"/>
        <pt x="-659" y="1484" on="1"/>
        <pt x="-659" y="1463" on="0"/>
        <pt x="-637" y="1425" on="0"/>
        <pt x="-598" y="1404" on="0"/>
        <pt x="-577" y="1404" on="1"/>
        <pt x="-555" y="1404" on="0"/>
        <pt x="-516" y="1425" on="0"/>
        <pt x="-495" y="1463" on="0"/>
        <pt x="-495" y="1484" on="1"/>
        <pt x="-495" y="1505" on="0"/>
        <pt x="-517" y="1543" on="0"/>
        <pt x="-556" y="1564" on="0"/>
        <pt x="-577" y="1564" on="1"/>
      </contour>
      <contour>
        <pt x="-626" y="2078" on="1"/>
        <pt x="-504" y="2078" on="1"/>
        <pt x="-504" y="1760" on="1"/>
        <pt x="-626" y="1760" on="1"/>
      </contour>
    </TTGlyph>
    <TTGlyph name="#1" xMin="-773" yMin="1291" xMax="-374" yMax="2096">
      <contour>
        <pt x="-577" y="1672" on="1"/>
        <pt x="-528" y="1672" on="0"/>
        <pt x="-434" y="1623" on="0"/>
        <pt x="-382" y="1531" on="0"/>
        <pt x="-382" y="1481" on="1"/>
        <pt x="-382" y="1432" on="0"/>
        <pt x="-433" y="1341" on="0"/>
        <pt x="-526" y="1291" on="0"/>
        <pt x="-577" y="1291" on="1"/>
        <pt x="-628" y="1291" on="0"/>
        <pt x="-721" y="1341" on="0"/>
        <pt x="-773" y="1432" on="0"/>
        <pt x="-773" y="1481" on="1"/>
        <pt x="-773" y="1531" on="0"/>
        <pt x="-720" y="1623" on="0"/>
        <pt x="-627" y="1672" on="0"/>
      </contour>
      <contour>
        <pt x="-597" y="1564" on="0"/>
        <pt x="-636" y="1543" on="0"/>
        <pt x="-659" y="1505" on="0"/>
        <pt x="-659" y="1484" on="1"/>
        <pt x="-659" y="1463" on="0"/>
        <pt x="-637" y="1425" on="0"/>
        <pt x="-598" y="1404" on="0"/>
        <pt x="-577" y="1404" on="1"/>
        <pt x="-555" y="1404" on="0"/>
        <pt x="-516" y="1425" on="0"/>
        <pt x="-495" y="1463" on="0"/>
        <pt x="-495" y="1484" on="1"/>
        <pt x="-495" y="1505" on="0"/>
        <pt x="-517" y="1543" on="0"/>
        <pt x="-556" y="1564" on="0"/>
        <pt x="-577" y="1564" on="1"/>
      </contour>
      <contour>
        <pt x="-495" y="1748" on="1"/>
        <pt x="-614" y="1748" on="1"/>
        <pt x="-614" y="1866" on="1"/>
        <pt x="-734" y="1866" on="1"/>
        <pt x="-734" y="1977" on="1"/>
        <pt x="-614" y="1977" on="1"/>
        <pt x="-614" y="2096" on="1"/>
        <pt x="-495" y="2096" on="1"/>
        <pt x="-495" y="1977" on="1"/>
        <pt x="-374" y="1977" on="1"/>
        <pt x="-374" y="1866" on="1"/>
        <pt x="-495" y="1866" on="1"/>
      </contour>
    </TTGlyph>
    <TTGlyph name="#10" xMin="-424" yMin="1292" xMax="426" yMax="1652">
      <contour>
        <pt x="-183" y="1454" on="1"/>
        <pt x="-193" y="1520" on="0"/>
        <pt x="-246" y="1520" on="1"/>
        <pt x="-268" y="1520" on="0"/>
        <pt x="-293" y="1505" on="0"/>
        <pt x="-306" y="1485" on="0"/>
        <pt x="-310" y="1462" on="0"/>
        <pt x="-310" y="1455" on="1"/>
        <pt x="-310" y="1424" on="0"/>
        <pt x="-290" y="1408" on="1"/>
        <pt x="-273" y="1393" on="0"/>
        <pt x="-254" y="1393" on="1"/>
        <pt x="-249" y="1393" on="1"/>
        <pt x="-218" y="1393" on="0"/>
        <pt x="-187" y="1426" on="0"/>
      </contour>
      <contour>
        <pt x="287" y="1292" on="1"/>
        <pt x="287" y="1298" on="1"/>
        <pt x="287" y="1533" on="0"/>
        <pt x="48" y="1533" on="1"/>
        <pt x="-111" y="1533" on="1"/>
        <pt x="-91" y="1501" on="0"/>
        <pt x="-83" y="1478" on="1"/>
        <pt x="-80" y="1466" on="0"/>
        <pt x="-80" y="1452" on="1"/>
        <pt x="-80" y="1439" on="0"/>
        <pt x="-83" y="1424" on="1"/>
        <pt x="-91" y="1393" on="0"/>
        <pt x="-128" y="1331" on="0"/>
        <pt x="-168" y="1308" on="0"/>
        <pt x="-196" y="1300" on="1"/>
        <pt x="-223" y="1292" on="0"/>
        <pt x="-250" y="1292" on="1"/>
        <pt x="-252" y="1292" on="0"/>
        <pt x="-254" y="1293" on="1"/>
        <pt x="-284" y="1293" on="0"/>
        <pt x="-353" y="1315" on="0"/>
        <pt x="-389" y="1351" on="0"/>
        <pt x="-402" y="1373" on="1"/>
        <pt x="-424" y="1422" on="0"/>
        <pt x="-424" y="1444" on="1"/>
        <pt x="-424" y="1445" on="1"/>
        <pt x="-424" y="1465" on="0"/>
        <pt x="-408" y="1538" on="0"/>
        <pt x="-397" y="1549" on="1"/>
        <pt x="-367" y="1598" on="0"/>
        <pt x="-266" y="1640" on="0"/>
        <pt x="-146" y="1652" on="0"/>
        <pt x="-87" y="1652" on="1"/>
        <pt x="45" y="1652" on="1"/>
        <pt x="408" y="1652" on="0"/>
        <pt x="426" y="1292" on="1"/>
      </contour>
    </TTGlyph>
    <TTGlyph name="#11" xMin="147" yMin="-562" xMax="709" yMax="1140">
      <contour>
        <pt x="434" y="-305" on="1"/>
        <pt x="434" y="-288" on="0"/>
        <pt x="406" y="-264" on="0"/>
        <pt x="390" y="-264" on="1"/>
        <pt x="371" y="-264" on="0"/>
        <pt x="356" y="-276" on="1"/>
        <pt x="342" y="-288" on="0"/>
        <pt x="342" y="-304" on="1"/>
        <pt x="342" y="-306" on="1"/>
        <pt x="342" y="-320" on="0"/>
        <pt x="371" y="-348" on="0"/>
        <pt x="390" y="-348" on="1"/>
        <pt x="406" y="-348" on="0"/>
        <pt x="434" y="-319" on="0"/>
      </contour>
      <contour>
        <pt x="563" y="-392" on="1"/>
        <pt x="562" y="-392" on="1"/>
        <pt x="549" y="-426" on="0"/>
        <pt x="532" y="-454" on="0"/>
        <pt x="503" y="-488" on="0"/>
        <pt x="466" y="-524" on="0"/>
        <pt x="407" y="-562" on="1"/>
        <pt x="291" y="-505" on="1"/>
        <pt x="338" y="-485" on="0"/>
        <pt x="401" y="-426" on="0"/>
        <pt x="411" y="-402" on="1"/>
        <pt x="376" y="-411" on="0"/>
        <pt x="357" y="-412" on="1"/>
        <pt x="354" y="-412" on="1"/>
        <pt x="335" y="-412" on="0"/>
        <pt x="305" y="-400" on="1"/>
        <pt x="257" y="-378" on="0"/>
        <pt x="235" y="-327" on="0"/>
        <pt x="235" y="-288" on="1"/>
        <pt x="247" y="-243" on="0"/>
        <pt x="275" y="-212" on="0"/>
        <pt x="319" y="-187" on="0"/>
        <pt x="357" y="-177" on="0"/>
        <pt x="407" y="-176" on="1"/>
        <pt x="412" y="-176" on="1"/>
        <pt x="425" y="-176" on="0"/>
        <pt x="489" y="-199" on="0"/>
        <pt x="542" y="-240" on="0"/>
        <pt x="558" y="-281" on="1"/>
        <pt x="568" y="-305" on="0"/>
        <pt x="568" y="-340" on="1"/>
        <pt x="568" y="-363" on="0"/>
      </contour>
      <contour>
        <pt x="278" y="972" on="0"/>
        <pt x="278" y="902" on="1"/>
        <pt x="278" y="832" on="0"/>
        <pt x="347" y="832" on="1"/>
        <pt x="416" y="832" on="0"/>
        <pt x="416" y="902" on="1"/>
        <pt x="416" y="972" on="0"/>
        <pt x="347" y="972" on="1"/>
      </contour>
      <contour>
        <pt x="230" y="-150" on="0"/>
        <pt x="147" y="-141" on="0"/>
        <pt x="147" y="-73" on="1"/>
        <pt x="147" y="-12" on="0"/>
        <pt x="182" y="-12" on="1"/>
        <pt x="189" y="-12" on="1"/>
        <pt x="231" y="-19" on="0"/>
        <pt x="262" y="-20" on="1"/>
        <pt x="355" y="-16" on="0"/>
        <pt x="458" y="11" on="0"/>
        <pt x="544" y="88" on="0"/>
        <pt x="574" y="186" on="0"/>
        <pt x="574" y="290" on="1"/>
        <pt x="574" y="834" on="1"/>
        <pt x="574" y="983" on="0"/>
        <pt x="467" y="996" on="1"/>
        <pt x="509" y="955" on="0"/>
        <pt x="509" y="902" on="1"/>
        <pt x="509" y="729" on="0"/>
        <pt x="368" y="729" on="1"/>
        <pt x="352" y="727" on="0"/>
        <pt x="337" y="727" on="1"/>
        <pt x="186" y="727" on="0"/>
        <pt x="166" y="912" on="1"/>
        <pt x="192" y="1140" on="0"/>
        <pt x="417" y="1140" on="1"/>
        <pt x="709" y="1140" on="0"/>
        <pt x="709" y="828" on="1"/>
        <pt x="709" y="122" on="1"/>
        <pt x="709" y="41" on="0"/>
        <pt x="568" y="-101" on="0"/>
        <pt x="399" y="-148" on="0"/>
        <pt x="255" y="-152" on="1"/>
      </contour>
    </TTGlyph>
    <TTGlyph name="#12" xMin="147" yMin="-561" xMax="711" yMax="1140">
      <contour>
        <pt x="234" y="-269" on="0"/>
        <pt x="223" y="-288" on="0"/>
        <pt x="223" y="-298" on="1"/>
        <pt x="223" y="-309" on="0"/>
        <pt x="234" y="-327" on="0"/>
        <pt x="252" y="-338" on="0"/>
        <pt x="285" y="-340" on="1"/>
        <pt x="302" y="-317" on="0"/>
        <pt x="302" y="-298" on="1"/>
        <pt x="302" y="-288" on="0"/>
        <pt x="291" y="-269" on="0"/>
        <pt x="273" y="-258" on="0"/>
        <pt x="263" y="-258" on="1"/>
        <pt x="253" y="-258" on="0"/>
      </contour>
      <contour>
        <pt x="357" y="-363" on="1"/>
        <pt x="347" y="-393" on="0"/>
        <pt x="347" y="-420" on="1"/>
        <pt x="347" y="-433" on="0"/>
        <pt x="349" y="-445" on="1"/>
        <pt x="356" y="-465" on="0"/>
        <pt x="392" y="-465" on="1"/>
        <pt x="427" y="-465" on="0"/>
        <pt x="427" y="-350" on="1"/>
        <pt x="427" y="-190" on="1"/>
        <pt x="537" y="-190" on="1"/>
        <pt x="537" y="-355" on="1"/>
        <pt x="537" y="-561" on="0"/>
        <pt x="392" y="-561" on="1"/>
        <pt x="289" y="-561" on="0"/>
        <pt x="260" y="-496" on="1"/>
        <pt x="248" y="-469" on="0"/>
        <pt x="248" y="-443" on="1"/>
        <pt x="248" y="-421" on="0"/>
        <pt x="257" y="-400" on="1"/>
        <pt x="230" y="-400" on="0"/>
        <pt x="205" y="-386" on="1"/>
        <pt x="178" y="-372" on="0"/>
        <pt x="147" y="-322" on="0"/>
        <pt x="147" y="-295" on="1"/>
        <pt x="147" y="-267" on="0"/>
        <pt x="178" y="-216" on="0"/>
        <pt x="232" y="-190" on="0"/>
        <pt x="260" y="-190" on="1"/>
        <pt x="289" y="-190" on="0"/>
        <pt x="342" y="-216" on="0"/>
        <pt x="372" y="-267" on="0"/>
        <pt x="372" y="-295" on="1"/>
        <pt x="372" y="-320" on="0"/>
      </contour>
      <contour>
        <pt x="280" y="972" on="0"/>
        <pt x="280" y="902" on="1"/>
        <pt x="280" y="832" on="0"/>
        <pt x="349" y="832" on="1"/>
        <pt x="418" y="832" on="0"/>
        <pt x="418" y="902" on="1"/>
        <pt x="418" y="972" on="0"/>
        <pt x="349" y="972" on="1"/>
      </contour>
      <contour>
        <pt x="232" y="-150" on="0"/>
        <pt x="149" y="-141" on="0"/>
        <pt x="149" y="-73" on="1"/>
        <pt x="149" y="-12" on="0"/>
        <pt x="184" y="-12" on="1"/>
        <pt x="191" y="-12" on="1"/>
        <pt x="233" y="-19" on="0"/>
        <pt x="264" y="-20" on="1"/>
        <pt x="357" y="-16" on="0"/>
        <pt x="460" y="11" on="0"/>
        <pt x="546" y="88" on="0"/>
        <pt x="576" y="186" on="0"/>
        <pt x="576" y="290" on="1"/>
        <pt x="576" y="834" on="1"/>
        <pt x="576" y="983" on="0"/>
        <pt x="469" y="996" on="1"/>
        <pt x="511" y="955" on="0"/>
        <pt x="511" y="902" on="1"/>
        <pt x="511" y="729" on="0"/>
        <pt x="370" y="729" on="1"/>
        <pt x="354" y="727" on="0"/>
        <pt x="339" y="727" on="1"/>
        <pt x="188" y="727" on="0"/>
        <pt x="168" y="912" on="1"/>
        <pt x="194" y="1140" on="0"/>
        <pt x="419" y="1140" on="1"/>
        <pt x="711" y="1140" on="0"/>
        <pt x="711" y="828" on="1"/>
        <pt x="711" y="122" on="1"/>
        <pt x="711" y="41" on="0"/>
        <pt x="570" y="-101" on="0"/>
        <pt x="401" y="-148" on="0"/>
        <pt x="257" y="-152" on="1"/>
      </contour>
    </TTGlyph>
    <TTGlyph name="#13" xMin="-1018" yMin="-572" xMax="-112" yMax="-55">
      <contour>
        <pt x="-572" y="-376" on="1"/>
        <pt x="-572" y="-363" on="0"/>
        <pt x="-600" y="-345" on="0"/>
        <pt x="-616" y="-345" on="1"/>
        <pt x="-635" y="-345" on="0"/>
        <pt x="-650" y="-354" on="1"/>
        <pt x="-664" y="-363" on="0"/>
        <pt x="-664" y="-376" on="1"/>
        <pt x="-664" y="-377" on="1"/>
        <pt x="-664" y="-388" on="0"/>
        <pt x="-635" y="-409" on="0"/>
        <pt x="-616" y="-409" on="1"/>
        <pt x="-600" y="-409" on="0"/>
        <pt x="-572" y="-387" on="0"/>
      </contour>
      <contour>
        <pt x="-443" y="-443" on="1"/>
        <pt x="-444" y="-443" on="1"/>
        <pt x="-457" y="-468" on="0"/>
        <pt x="-474" y="-490" on="0"/>
        <pt x="-503" y="-516" on="0"/>
        <pt x="-540" y="-543" on="0"/>
        <pt x="-599" y="-572" on="1"/>
        <pt x="-715" y="-529" on="1"/>
        <pt x="-668" y="-513" on="0"/>
        <pt x="-605" y="-468" on="0"/>
        <pt x="-595" y="-450" on="1"/>
        <pt x="-630" y="-457" on="0"/>
        <pt x="-649" y="-458" on="1"/>
        <pt x="-652" y="-458" on="1"/>
        <pt x="-671" y="-458" on="0"/>
        <pt x="-701" y="-449" on="1"/>
        <pt x="-749" y="-432" on="0"/>
        <pt x="-771" y="-393" on="0"/>
        <pt x="-771" y="-363" on="1"/>
        <pt x="-759" y="-329" on="0"/>
        <pt x="-731" y="-306" on="0"/>
        <pt x="-687" y="-286" on="0"/>
        <pt x="-649" y="-279" on="0"/>
        <pt x="-599" y="-278" on="1"/>
        <pt x="-594" y="-278" on="1"/>
        <pt x="-581" y="-278" on="0"/>
        <pt x="-517" y="-296" on="0"/>
        <pt x="-464" y="-327" on="0"/>
        <pt x="-448" y="-358" on="1"/>
        <pt x="-438" y="-376" on="0"/>
        <pt x="-438" y="-403" on="1"/>
        <pt x="-438" y="-420" on="0"/>
      </contour>
      <contour>
        <pt x="-918" y="-210" on="1"/>
        <pt x="-917" y="-210" on="1"/>
        <pt x="-917" y="-214" on="1"/>
        <pt x="-917" y="-232" on="0"/>
        <pt x="-898" y="-244" on="1"/>
        <pt x="-877" y="-258" on="0"/>
        <pt x="-851" y="-258" on="1"/>
        <pt x="-827" y="-258" on="0"/>
        <pt x="-806" y="-243" on="1"/>
        <pt x="-787" y="-230" on="0"/>
        <pt x="-787" y="-211" on="1"/>
        <pt x="-787" y="-206" on="1"/>
        <pt x="-787" y="-182" on="0"/>
        <pt x="-833" y="-148" on="1"/>
        <pt x="-874" y="-154" on="0"/>
        <pt x="-914" y="-181" on="0"/>
      </contour>
      <contour>
        <pt x="-731" y="-142" on="1"/>
        <pt x="-684" y="-180" on="0"/>
        <pt x="-684" y="-214" on="1"/>
        <pt x="-684" y="-218" on="0"/>
        <pt x="-685" y="-222" on="1"/>
        <pt x="-691" y="-260" on="0"/>
        <pt x="-730" y="-292" on="0"/>
        <pt x="-762" y="-310" on="0"/>
        <pt x="-795" y="-316" on="1"/>
        <pt x="-816" y="-320" on="0"/>
        <pt x="-840" y="-320" on="1"/>
        <pt x="-855" y="-320" on="0"/>
        <pt x="-872" y="-319" on="1"/>
        <pt x="-879" y="-319" on="0"/>
        <pt x="-932" y="-308" on="0"/>
        <pt x="-989" y="-277" on="0"/>
        <pt x="-1011" y="-240" on="0"/>
        <pt x="-1018" y="-203" on="1"/>
        <pt x="-1017" y="-160" on="0"/>
        <pt x="-974" y="-92" on="0"/>
        <pt x="-914" y="-73" on="1"/>
        <pt x="-859" y="-55" on="0"/>
        <pt x="-788" y="-55" on="1"/>
        <pt x="-774" y="-55" on="1"/>
        <pt x="-694" y="-57" on="0"/>
        <pt x="-562" y="-116" on="0"/>
        <pt x="-497" y="-166" on="1"/>
        <pt x="-439" y="-212" on="0"/>
        <pt x="-374" y="-212" on="1"/>
        <pt x="-367" y="-212" on="0"/>
        <pt x="-360" y="-211" on="1"/>
        <pt x="-257" y="-207" on="0"/>
        <pt x="-232" y="-55" on="1"/>
        <pt x="-112" y="-55" on="1"/>
        <pt x="-137" y="-318" on="0"/>
        <pt x="-357" y="-318" on="1"/>
        <pt x="-360" y="-318" on="1"/>
        <pt x="-497" y="-316" on="0"/>
        <pt x="-650" y="-168" on="0"/>
      </contour>
    </TTGlyph>
    <TTGlyph name="#14" xMin="-1018" yMin="-558" xMax="-112" yMax="-35">
      <contour>
        <pt x="-918" y="-184" on="1"/>
        <pt x="-917" y="-184" on="1"/>
        <pt x="-917" y="-189" on="1"/>
        <pt x="-917" y="-205" on="0"/>
        <pt x="-898" y="-217" on="1"/>
        <pt x="-877" y="-230" on="0"/>
        <pt x="-851" y="-230" on="1"/>
        <pt x="-827" y="-230" on="0"/>
        <pt x="-806" y="-216" on="1"/>
        <pt x="-787" y="-204" on="0"/>
        <pt x="-787" y="-186" on="1"/>
        <pt x="-787" y="-180" on="1"/>
        <pt x="-787" y="-158" on="0"/>
        <pt x="-833" y="-125" on="1"/>
        <pt x="-874" y="-130" on="0"/>
        <pt x="-914" y="-156" on="0"/>
      </contour>
      <contour>
        <pt x="-731" y="-119" on="1"/>
        <pt x="-684" y="-155" on="0"/>
        <pt x="-684" y="-189" on="1"/>
        <pt x="-684" y="-192" on="0"/>
        <pt x="-685" y="-196" on="1"/>
        <pt x="-691" y="-233" on="0"/>
        <pt x="-730" y="-263" on="0"/>
        <pt x="-762" y="-281" on="0"/>
        <pt x="-795" y="-287" on="1"/>
        <pt x="-816" y="-291" on="0"/>
        <pt x="-840" y="-291" on="1"/>
        <pt x="-855" y="-291" on="0"/>
        <pt x="-872" y="-290" on="1"/>
        <pt x="-879" y="-290" on="0"/>
        <pt x="-932" y="-279" on="0"/>
        <pt x="-989" y="-249" on="0"/>
        <pt x="-1011" y="-213" on="0"/>
        <pt x="-1018" y="-178" on="1"/>
        <pt x="-1017" y="-136" on="0"/>
        <pt x="-974" y="-71" on="0"/>
        <pt x="-914" y="-52" on="1"/>
        <pt x="-859" y="-35" on="0"/>
        <pt x="-788" y="-35" on="1"/>
        <pt x="-774" y="-35" on="1"/>
        <pt x="-694" y="-37" on="0"/>
        <pt x="-562" y="-94" on="0"/>
        <pt x="-497" y="-142" on="1"/>
        <pt x="-439" y="-186" on="0"/>
        <pt x="-374" y="-186" on="1"/>
        <pt x="-367" y="-186" on="0"/>
        <pt x="-360" y="-186" on="1"/>
        <pt x="-257" y="-181" on="0"/>
        <pt x="-232" y="-35" on="1"/>
        <pt x="-112" y="-35" on="1"/>
        <pt x="-137" y="-288" on="0"/>
        <pt x="-357" y="-288" on="1"/>
        <pt x="-360" y="-288" on="1"/>
        <pt x="-497" y="-287" on="0"/>
        <pt x="-650" y="-144" on="0"/>
      </contour>
      <contour>
        <pt x="-712" y="-355" on="0"/>
        <pt x="-723" y="-368" on="0"/>
        <pt x="-723" y="-375" on="1"/>
        <pt x="-723" y="-383" on="0"/>
        <pt x="-712" y="-396" on="0"/>
        <pt x="-694" y="-403" on="0"/>
        <pt x="-661" y="-404" on="1"/>
        <pt x="-644" y="-388" on="0"/>
        <pt x="-644" y="-375" on="1"/>
        <pt x="-644" y="-368" on="0"/>
        <pt x="-655" y="-355" on="0"/>
        <pt x="-673" y="-347" on="0"/>
        <pt x="-683" y="-347" on="1"/>
        <pt x="-693" y="-347" on="0"/>
      </contour>
      <contour>
        <pt x="-589" y="-421" on="1"/>
        <pt x="-599" y="-441" on="0"/>
        <pt x="-599" y="-460" on="1"/>
        <pt x="-599" y="-469" on="0"/>
        <pt x="-597" y="-477" on="1"/>
        <pt x="-590" y="-491" on="0"/>
        <pt x="-554" y="-491" on="1"/>
        <pt x="-519" y="-491" on="0"/>
        <pt x="-519" y="-411" on="1"/>
        <pt x="-519" y="-300" on="1"/>
        <pt x="-409" y="-300" on="1"/>
        <pt x="-409" y="-415" on="1"/>
        <pt x="-409" y="-558" on="0"/>
        <pt x="-554" y="-558" on="1"/>
        <pt x="-657" y="-558" on="0"/>
        <pt x="-686" y="-513" on="1"/>
        <pt x="-698" y="-494" on="0"/>
        <pt x="-698" y="-476" on="1"/>
        <pt x="-698" y="-460" on="0"/>
        <pt x="-689" y="-446" on="1"/>
        <pt x="-716" y="-446" on="0"/>
        <pt x="-741" y="-436" on="1"/>
        <pt x="-768" y="-427" on="0"/>
        <pt x="-799" y="-392" on="0"/>
        <pt x="-799" y="-373" on="1"/>
        <pt x="-799" y="-354" on="0"/>
        <pt x="-768" y="-319" on="0"/>
        <pt x="-714" y="-300" on="0"/>
        <pt x="-686" y="-300" on="1"/>
        <pt x="-657" y="-300" on="0"/>
        <pt x="-604" y="-319" on="0"/>
        <pt x="-574" y="-354" on="0"/>
        <pt x="-574" y="-373" on="1"/>
        <pt x="-574" y="-391" on="0"/>
      </contour>
    </TTGlyph>
    <TTGlyph name="#15" xMin="-46" yMin="1760" xMax="76" yMax="2078">
      <contour>
        <pt x="-46" y="2078" on="1"/>
        <pt x="76" y="2078" on="1"/>
        <pt x="76" y="1760" on="1"/>
        <pt x="-46" y="1760" on="1"/>
      </contour>
    </TTGlyph>
    <TTGlyph name="#16" xMin="-330" yMin="1760" xMax="379" yMax="2087">
      <contour>
        <pt x="-90" y="1972" on="0"/>
        <pt x="-90" y="1983" on="1"/>
        <pt x="-90" y="1990" on="0"/>
        <pt x="-93" y="1996" on="1"/>
        <pt x="-105" y="2018" on="0"/>
        <pt x="-127" y="2018" on="1"/>
        <pt x="-131" y="2018" on="0"/>
        <pt x="-136" y="2017" on="1"/>
        <pt x="-165" y="2012" on="0"/>
        <pt x="-166" y="1987" on="1"/>
        <pt x="-167" y="1985" on="0"/>
        <pt x="-167" y="1984" on="1"/>
        <pt x="-167" y="1961" on="0"/>
        <pt x="-141" y="1958" on="1"/>
        <pt x="-125" y="1956" on="0"/>
        <pt x="-108" y="1956" on="1"/>
        <pt x="-97" y="1956" on="1"/>
      </contour>
      <contour>
        <pt x="-192" y="1902" on="0"/>
        <pt x="-222" y="1924" on="1"/>
        <pt x="-254" y="1947" on="0"/>
        <pt x="-254" y="1986" on="1"/>
        <pt x="-254" y="1995" on="1"/>
        <pt x="-250" y="2040" on="0"/>
        <pt x="-206" y="2066" on="1"/>
        <pt x="-170" y="2087" on="0"/>
        <pt x="-123" y="2087" on="1"/>
        <pt x="-113" y="2087" on="0"/>
        <pt x="-102" y="2086" on="1"/>
        <pt x="-41" y="2080" on="0"/>
        <pt x="-19" y="2045" on="1"/>
        <pt x="1" y="2013" on="0"/>
        <pt x="1" y="1967" on="1"/>
        <pt x="1" y="1959" on="1"/>
        <pt x="-1" y="1907" on="0"/>
        <pt x="-88" y="1835" on="1"/>
        <pt x="60" y="1844" on="0"/>
        <pt x="218" y="1960" on="0"/>
        <pt x="259" y="2057" on="1"/>
        <pt x="379" y="2007" on="1"/>
        <pt x="318" y="1902" on="0"/>
        <pt x="206" y="1815" on="0"/>
        <pt x="24" y="1760" on="0"/>
        <pt x="-116" y="1760" on="1"/>
        <pt x="-330" y="1760" on="1"/>
        <pt x="-330" y="1820" on="1"/>
        <pt x="-194" y="1844" on="0"/>
        <pt x="-140" y="1897" on="1"/>
      </contour>
    </TTGlyph>
    <TTGlyph name="#17" xMin="-274" yMin="1774" xMax="401" yMax="2086">
      <contour>
        <pt x="168" y="1780" on="1"/>
        <pt x="146" y="1785" on="0"/>
        <pt x="117" y="1815" on="0"/>
        <pt x="113" y="1836" on="1"/>
        <pt x="123" y="1846" on="0"/>
        <pt x="150" y="1864" on="0"/>
        <pt x="164" y="1885" on="0"/>
        <pt x="183" y="1904" on="0"/>
        <pt x="184" y="1927" on="1"/>
        <pt x="177" y="1952" on="0"/>
        <pt x="164" y="1964" on="1"/>
        <pt x="152" y="1975" on="0"/>
        <pt x="125" y="1975" on="1"/>
        <pt x="120" y="1975" on="1"/>
        <pt x="86" y="1949" on="0"/>
        <pt x="18" y="1887" on="0"/>
        <pt x="0" y="1887" on="1"/>
        <pt x="-17" y="1887" on="0"/>
        <pt x="-82" y="1957" on="0"/>
        <pt x="-109" y="1972" on="1"/>
        <pt x="-139" y="1972" on="0"/>
        <pt x="-165" y="1945" on="0"/>
        <pt x="-165" y="1916" on="1"/>
        <pt x="-165" y="1894" on="0"/>
        <pt x="-144" y="1871" on="0"/>
        <pt x="-120" y="1856" on="0"/>
        <pt x="-90" y="1836" on="0"/>
        <pt x="-79" y="1826" on="1"/>
        <pt x="-108" y="1783" on="0"/>
        <pt x="-147" y="1774" on="1"/>
        <pt x="-215" y="1803" on="0"/>
        <pt x="-274" y="1881" on="0"/>
        <pt x="-274" y="1930" on="1"/>
        <pt x="-274" y="1967" on="0"/>
        <pt x="-240" y="2022" on="0"/>
        <pt x="-202" y="2063" on="0"/>
        <pt x="-151" y="2084" on="0"/>
        <pt x="-114" y="2084" on="1"/>
        <pt x="-95" y="2084" on="0"/>
        <pt x="-54" y="2069" on="0"/>
        <pt x="-2" y="2020" on="0"/>
        <pt x="9" y="2008" on="1"/>
        <pt x="36" y="2030" on="0"/>
        <pt x="91" y="2079" on="0"/>
        <pt x="133" y="2086" on="1"/>
        <pt x="166" y="2086" on="0"/>
        <pt x="225" y="2059" on="0"/>
        <pt x="258" y="2020" on="0"/>
        <pt x="268" y="1999" on="1"/>
        <pt x="275" y="1982" on="0"/>
        <pt x="275" y="1960" on="1"/>
        <pt x="275" y="1950" on="1"/>
        <pt x="300" y="1986" on="0"/>
        <pt x="314" y="2031" on="0"/>
        <pt x="326" y="2076" on="1"/>
        <pt x="355" y="2074" on="0"/>
        <pt x="388" y="2053" on="0"/>
        <pt x="400" y="2033" on="1"/>
        <pt x="401" y="2029" on="0"/>
        <pt x="401" y="2024" on="1"/>
        <pt x="401" y="1980" on="0"/>
        <pt x="381" y="1943" on="1"/>
        <pt x="359" y="1902" on="0"/>
        <pt x="296" y="1846" on="0"/>
        <pt x="204" y="1797" on="0"/>
      </contour>
    </TTGlyph>
    <TTGlyph name="#18" xMin="-174" yMin="1748" xMax="186" yMax="2096">
      <contour>
        <pt x="65" y="1748" on="1"/>
        <pt x="-54" y="1748" on="1"/>
        <pt x="-54" y="1866" on="1"/>
        <pt x="-174" y="1866" on="1"/>
        <pt x="-174" y="1977" on="1"/>
        <pt x="-54" y="1977" on="1"/>
        <pt x="-54" y="2096" on="1"/>
        <pt x="65" y="2096" on="1"/>
        <pt x="65" y="1977" on="1"/>
        <pt x="186" y="1977" on="1"/>
        <pt x="186" y="1866" on="1"/>
        <pt x="65" y="1866" on="1"/>
      </contour>
    </TTGlyph>
    <TTGlyph name="#19" xMin="-544" yMin="1293" xMax="-422" yMax="1611">
      <contour>
        <pt x="-544" y="1611" on="1"/>
        <pt x="-422" y="1611" on="1"/>
        <pt x="-422" y="1293" on="1"/>
        <pt x="-544" y="1293" on="1"/>
      </contour>
    </TTGlyph>
    <TTGlyph name="#2" xMin="-784" yMin="1291" xMax="-243" yMax="1974">
      <contour>
        <pt x="-577" y="1672" on="1"/>
        <pt x="-528" y="1672" on="0"/>
        <pt x="-434" y="1623" on="0"/>
        <pt x="-382" y="1531" on="0"/>
        <pt x="-382" y="1481" on="1"/>
        <pt x="-382" y="1432" on="0"/>
        <pt x="-433" y="1341" on="0"/>
        <pt x="-526" y="1291" on="0"/>
        <pt x="-577" y="1291" on="1"/>
        <pt x="-628" y="1291" on="0"/>
        <pt x="-721" y="1341" on="0"/>
        <pt x="-773" y="1432" on="0"/>
        <pt x="-773" y="1481" on="1"/>
        <pt x="-773" y="1531" on="0"/>
        <pt x="-720" y="1623" on="0"/>
        <pt x="-627" y="1672" on="0"/>
      </contour>
      <contour>
        <pt x="-597" y="1564" on="0"/>
        <pt x="-636" y="1543" on="0"/>
        <pt x="-659" y="1505" on="0"/>
        <pt x="-659" y="1484" on="1"/>
        <pt x="-659" y="1463" on="0"/>
        <pt x="-637" y="1425" on="0"/>
        <pt x="-598" y="1404" on="0"/>
        <pt x="-577" y="1404" on="1"/>
        <pt x="-555" y="1404" on="0"/>
        <pt x="-516" y="1425" on="0"/>
        <pt x="-495" y="1463" on="0"/>
        <pt x="-495" y="1484" on="1"/>
        <pt x="-495" y="1505" on="0"/>
        <pt x="-517" y="1543" on="0"/>
        <pt x="-556" y="1564" on="0"/>
        <pt x="-577" y="1564" on="1"/>
      </contour>
      <contour>
        <pt x="-430" y="1729" on="1"/>
        <pt x="-447" y="1733" on="0"/>
        <pt x="-471" y="1757" on="0"/>
        <pt x="-474" y="1774" on="1"/>
        <pt x="-466" y="1782" on="0"/>
        <pt x="-444" y="1796" on="0"/>
        <pt x="-433" y="1813" on="0"/>
        <pt x="-418" y="1828" on="0"/>
        <pt x="-417" y="1847" on="1"/>
        <pt x="-423" y="1867" on="0"/>
        <pt x="-433" y="1877" on="1"/>
        <pt x="-442" y="1885" on="0"/>
        <pt x="-463" y="1885" on="1"/>
        <pt x="-468" y="1885" on="1"/>
        <pt x="-495" y="1864" on="0"/>
        <pt x="-550" y="1815" on="0"/>
        <pt x="-564" y="1815" on="1"/>
        <pt x="-578" y="1815" on="0"/>
        <pt x="-630" y="1871" on="0"/>
        <pt x="-652" y="1883" on="1"/>
        <pt x="-676" y="1883" on="0"/>
        <pt x="-697" y="1861" on="0"/>
        <pt x="-697" y="1838" on="1"/>
        <pt x="-697" y="1820" on="0"/>
        <pt x="-680" y="1802" on="0"/>
        <pt x="-661" y="1790" on="0"/>
        <pt x="-637" y="1774" on="0"/>
        <pt x="-628" y="1766" on="1"/>
        <pt x="-651" y="1731" on="0"/>
        <pt x="-682" y="1724" on="1"/>
        <pt x="-737" y="1747" on="0"/>
        <pt x="-784" y="1810" on="0"/>
        <pt x="-784" y="1849" on="1"/>
        <pt x="-784" y="1879" on="0"/>
        <pt x="-757" y="1923" on="0"/>
        <pt x="-726" y="1956" on="0"/>
        <pt x="-685" y="1972" on="0"/>
        <pt x="-656" y="1972" on="1"/>
        <pt x="-641" y="1972" on="0"/>
        <pt x="-608" y="1960" on="0"/>
        <pt x="-566" y="1921" on="0"/>
        <pt x="-557" y="1912" on="1"/>
        <pt x="-536" y="1929" on="0"/>
        <pt x="-491" y="1968" on="0"/>
        <pt x="-458" y="1974" on="1"/>
        <pt x="-431" y="1974" on="0"/>
        <pt x="-384" y="1952" on="0"/>
        <pt x="-358" y="1921" on="0"/>
        <pt x="-350" y="1904" on="1"/>
        <pt x="-344" y="1890" on="0"/>
        <pt x="-344" y="1874" on="1"/>
        <pt x="-344" y="1865" on="1"/>
        <pt x="-324" y="1894" on="0"/>
        <pt x="-313" y="1930" on="0"/>
        <pt x="-303" y="1966" on="1"/>
        <pt x="-280" y="1964" on="0"/>
        <pt x="-253" y="1948" on="0"/>
        <pt x="-244" y="1932" on="1"/>
        <pt x="-243" y="1928" on="0"/>
        <pt x="-243" y="1924" on="1"/>
        <pt x="-243" y="1889" on="0"/>
        <pt x="-259" y="1859" on="1"/>
        <pt x="-277" y="1827" on="0"/>
        <pt x="-327" y="1782" on="0"/>
        <pt x="-401" y="1742" on="0"/>
      </contour>
    </TTGlyph>
    <TTGlyph name="#20" xMin="-786" yMin="1284" xMax="-77" yMax="1679">
      <contour>
        <pt x="-546" y="1540" on="0"/>
        <pt x="-546" y="1553" on="1"/>
        <pt x="-546" y="1562" on="0"/>
        <pt x="-549" y="1569" on="1"/>
        <pt x="-561" y="1595" on="0"/>
        <pt x="-583" y="1595" on="1"/>
        <pt x="-587" y="1595" on="0"/>
        <pt x="-592" y="1594" on="1"/>
        <pt x="-621" y="1588" on="0"/>
        <pt x="-622" y="1558" on="1"/>
        <pt x="-623" y="1556" on="0"/>
        <pt x="-623" y="1554" on="1"/>
        <pt x="-623" y="1527" on="0"/>
        <pt x="-597" y="1523" on="1"/>
        <pt x="-583" y="1520" on="0"/>
        <pt x="-568" y="1520" on="1"/>
        <pt x="-561" y="1520" on="0"/>
        <pt x="-553" y="1521" on="1"/>
      </contour>
      <contour>
        <pt x="-648" y="1456" on="0"/>
        <pt x="-678" y="1482" on="1"/>
        <pt x="-710" y="1510" on="0"/>
        <pt x="-710" y="1557" on="1"/>
        <pt x="-710" y="1568" on="1"/>
        <pt x="-706" y="1622" on="0"/>
        <pt x="-662" y="1654" on="1"/>
        <pt x="-626" y="1679" on="0"/>
        <pt x="-579" y="1679" on="1"/>
        <pt x="-569" y="1679" on="0"/>
        <pt x="-558" y="1678" on="1"/>
        <pt x="-497" y="1671" on="0"/>
        <pt x="-475" y="1629" on="1"/>
        <pt x="-455" y="1590" on="0"/>
        <pt x="-455" y="1534" on="1"/>
        <pt x="-455" y="1524" on="1"/>
        <pt x="-457" y="1461" on="0"/>
        <pt x="-544" y="1374" on="1"/>
        <pt x="-396" y="1385" on="0"/>
        <pt x="-238" y="1526" on="0"/>
        <pt x="-197" y="1643" on="1"/>
        <pt x="-77" y="1582" on="1"/>
        <pt x="-138" y="1456" on="0"/>
        <pt x="-250" y="1350" on="0"/>
        <pt x="-432" y="1284" on="0"/>
        <pt x="-572" y="1284" on="1"/>
        <pt x="-786" y="1284" on="1"/>
        <pt x="-786" y="1357" on="1"/>
        <pt x="-650" y="1386" on="0"/>
        <pt x="-596" y="1449" on="1"/>
      </contour>
    </TTGlyph>
    <TTGlyph name="#21" xMin="-805" yMin="1287" xMax="-130" yMax="1599">
      <contour>
        <pt x="-363" y="1293" on="1"/>
        <pt x="-385" y="1298" on="0"/>
        <pt x="-414" y="1328" on="0"/>
        <pt x="-418" y="1349" on="1"/>
        <pt x="-408" y="1359" on="0"/>
        <pt x="-381" y="1377" on="0"/>
        <pt x="-367" y="1398" on="0"/>
        <pt x="-348" y="1417" on="0"/>
        <pt x="-347" y="1440" on="1"/>
        <pt x="-354" y="1465" on="0"/>
        <pt x="-367" y="1477" on="1"/>
        <pt x="-379" y="1488" on="0"/>
        <pt x="-406" y="1488" on="1"/>
        <pt x="-411" y="1488" on="1"/>
        <pt x="-445" y="1462" on="0"/>
        <pt x="-513" y="1400" on="0"/>
        <pt x="-531" y="1400" on="1"/>
        <pt x="-548" y="1400" on="0"/>
        <pt x="-613" y="1470" on="0"/>
        <pt x="-640" y="1485" on="1"/>
        <pt x="-670" y="1485" on="0"/>
        <pt x="-696" y="1458" on="0"/>
        <pt x="-696" y="1429" on="1"/>
        <pt x="-696" y="1407" on="0"/>
        <pt x="-675" y="1384" on="0"/>
        <pt x="-651" y="1369" on="0"/>
        <pt x="-621" y="1349" on="0"/>
        <pt x="-610" y="1339" on="1"/>
        <pt x="-639" y="1296" on="0"/>
        <pt x="-678" y="1287" on="1"/>
        <pt x="-746" y="1316" on="0"/>
        <pt x="-805" y="1394" on="0"/>
        <pt x="-805" y="1443" on="1"/>
        <pt x="-805" y="1480" on="0"/>
        <pt x="-771" y="1535" on="0"/>
        <pt x="-733" y="1576" on="0"/>
        <pt x="-682" y="1597" on="0"/>
        <pt x="-645" y="1597" on="1"/>
        <pt x="-626" y="1597" on="0"/>
        <pt x="-585" y="1582" on="0"/>
        <pt x="-533" y="1533" on="0"/>
        <pt x="-522" y="1521" on="1"/>
        <pt x="-495" y="1543" on="0"/>
        <pt x="-440" y="1592" on="0"/>
        <pt x="-398" y="1599" on="1"/>
        <pt x="-365" y="1599" on="0"/>
        <pt x="-306" y="1572" on="0"/>
        <pt x="-273" y="1533" on="0"/>
        <pt x="-263" y="1512" on="1"/>
        <pt x="-256" y="1495" on="0"/>
        <pt x="-256" y="1473" on="1"/>
        <pt x="-256" y="1463" on="1"/>
        <pt x="-231" y="1499" on="0"/>
        <pt x="-217" y="1544" on="0"/>
        <pt x="-205" y="1589" on="1"/>
        <pt x="-176" y="1587" on="0"/>
        <pt x="-143" y="1566" on="0"/>
        <pt x="-131" y="1546" on="1"/>
        <pt x="-130" y="1542" on="0"/>
        <pt x="-130" y="1537" on="1"/>
        <pt x="-130" y="1493" on="0"/>
        <pt x="-150" y="1456" on="1"/>
        <pt x="-172" y="1415" on="0"/>
        <pt x="-235" y="1359" on="0"/>
        <pt x="-327" y="1310" on="0"/>
      </contour>
    </TTGlyph>
    <TTGlyph name="#22" xMin="-671" yMin="1295" xMax="-311" yMax="1643">
      <contour>
        <pt x="-432" y="1295" on="1"/>
        <pt x="-551" y="1295" on="1"/>
        <pt x="-551" y="1413" on="1"/>
        <pt x="-671" y="1413" on="1"/>
        <pt x="-671" y="1524" on="1"/>
        <pt x="-551" y="1524" on="1"/>
        <pt x="-551" y="1643" on="1"/>
        <pt x="-432" y="1643" on="1"/>
        <pt x="-432" y="1524" on="1"/>
        <pt x="-311" y="1524" on="1"/>
        <pt x="-311" y="1413" on="1"/>
        <pt x="-432" y="1413" on="1"/>
      </contour>
    </TTGlyph>
    <TTGlyph name="#23" xMin="-588" yMin="-570" xMax="318" yMax="-45">
      <contour>
        <pt x="-142" y="-371" on="1"/>
        <pt x="-142" y="-358" on="0"/>
        <pt x="-170" y="-340" on="0"/>
        <pt x="-186" y="-340" on="1"/>
        <pt x="-205" y="-340" on="0"/>
        <pt x="-220" y="-349" on="1"/>
        <pt x="-234" y="-358" on="0"/>
        <pt x="-234" y="-371" on="1"/>
        <pt x="-234" y="-372" on="1"/>
        <pt x="-234" y="-383" on="0"/>
        <pt x="-205" y="-405" on="0"/>
        <pt x="-186" y="-405" on="1"/>
        <pt x="-170" y="-405" on="0"/>
        <pt x="-142" y="-382" on="0"/>
      </contour>
      <contour>
        <pt x="-13" y="-439" on="1"/>
        <pt x="-14" y="-439" on="1"/>
        <pt x="-27" y="-465" on="0"/>
        <pt x="-44" y="-486" on="0"/>
        <pt x="-73" y="-513" on="0"/>
        <pt x="-110" y="-541" on="0"/>
        <pt x="-169" y="-570" on="1"/>
        <pt x="-285" y="-526" on="1"/>
        <pt x="-238" y="-510" on="0"/>
        <pt x="-175" y="-465" on="0"/>
        <pt x="-165" y="-446" on="1"/>
        <pt x="-200" y="-453" on="0"/>
        <pt x="-219" y="-454" on="1"/>
        <pt x="-222" y="-454" on="1"/>
        <pt x="-241" y="-454" on="0"/>
        <pt x="-271" y="-445" on="1"/>
        <pt x="-319" y="-428" on="0"/>
        <pt x="-341" y="-388" on="0"/>
        <pt x="-341" y="-358" on="1"/>
        <pt x="-329" y="-323" on="0"/>
        <pt x="-301" y="-299" on="0"/>
        <pt x="-257" y="-280" on="0"/>
        <pt x="-219" y="-272" on="0"/>
        <pt x="-169" y="-272" on="1"/>
        <pt x="-164" y="-272" on="1"/>
        <pt x="-151" y="-272" on="0"/>
        <pt x="-87" y="-289" on="0"/>
        <pt x="-34" y="-321" on="0"/>
        <pt x="-18" y="-353" on="1"/>
        <pt x="-8" y="-371" on="0"/>
        <pt x="-8" y="-398" on="1"/>
        <pt x="-8" y="-416" on="0"/>
      </contour>
      <contour>
        <pt x="-488" y="-202" on="1"/>
        <pt x="-487" y="-202" on="1"/>
        <pt x="-487" y="-207" on="1"/>
        <pt x="-487" y="-224" on="0"/>
        <pt x="-468" y="-237" on="1"/>
        <pt x="-447" y="-251" on="0"/>
        <pt x="-421" y="-251" on="1"/>
        <pt x="-397" y="-251" on="0"/>
        <pt x="-376" y="-236" on="1"/>
        <pt x="-357" y="-223" on="0"/>
        <pt x="-357" y="-204" on="1"/>
        <pt x="-357" y="-198" on="1"/>
        <pt x="-357" y="-174" on="0"/>
        <pt x="-403" y="-139" on="1"/>
        <pt x="-444" y="-146" on="0"/>
        <pt x="-484" y="-173" on="0"/>
      </contour>
      <contour>
        <pt x="-301" y="-133" on="1"/>
        <pt x="-254" y="-172" on="0"/>
        <pt x="-254" y="-207" on="1"/>
        <pt x="-254" y="-210" on="0"/>
        <pt x="-255" y="-214" on="1"/>
        <pt x="-261" y="-253" on="0"/>
        <pt x="-300" y="-285" on="0"/>
        <pt x="-332" y="-304" on="0"/>
        <pt x="-365" y="-310" on="1"/>
        <pt x="-386" y="-314" on="0"/>
        <pt x="-410" y="-314" on="1"/>
        <pt x="-425" y="-314" on="0"/>
        <pt x="-442" y="-313" on="1"/>
        <pt x="-449" y="-313" on="0"/>
        <pt x="-502" y="-302" on="0"/>
        <pt x="-559" y="-271" on="0"/>
        <pt x="-581" y="-233" on="0"/>
        <pt x="-588" y="-195" on="1"/>
        <pt x="-587" y="-152" on="0"/>
        <pt x="-544" y="-83" on="0"/>
        <pt x="-484" y="-63" on="1"/>
        <pt x="-429" y="-45" on="0"/>
        <pt x="-358" y="-45" on="1"/>
        <pt x="-344" y="-45" on="1"/>
        <pt x="-264" y="-47" on="0"/>
        <pt x="-132" y="-107" on="0"/>
        <pt x="-67" y="-158" on="1"/>
        <pt x="-9" y="-204" on="0"/>
        <pt x="56" y="-204" on="1"/>
        <pt x="63" y="-204" on="0"/>
        <pt x="70" y="-204" on="1"/>
        <pt x="173" y="-199" on="0"/>
        <pt x="198" y="-45" on="1"/>
        <pt x="318" y="-45" on="1"/>
        <pt x="293" y="-312" on="0"/>
        <pt x="73" y="-312" on="1"/>
        <pt x="70" y="-312" on="1"/>
        <pt x="-67" y="-310" on="0"/>
        <pt x="-220" y="-159" on="0"/>
      </contour>
    </TTGlyph>
    <TTGlyph name="#24" xMin="-578" yMin="-561" xMax="328" yMax="-45">
      <contour>
        <pt x="-478" y="-192" on="1"/>
        <pt x="-477" y="-192" on="1"/>
        <pt x="-477" y="-196" on="1"/>
        <pt x="-477" y="-213" on="0"/>
        <pt x="-458" y="-225" on="1"/>
        <pt x="-437" y="-238" on="0"/>
        <pt x="-411" y="-238" on="1"/>
        <pt x="-387" y="-238" on="0"/>
        <pt x="-366" y="-224" on="1"/>
        <pt x="-347" y="-212" on="0"/>
        <pt x="-347" y="-194" on="1"/>
        <pt x="-347" y="-188" on="1"/>
        <pt x="-347" y="-166" on="0"/>
        <pt x="-393" y="-133" on="1"/>
        <pt x="-434" y="-139" on="0"/>
        <pt x="-474" y="-165" on="0"/>
      </contour>
      <contour>
        <pt x="-291" y="-128" on="1"/>
        <pt x="-244" y="-164" on="0"/>
        <pt x="-244" y="-196" on="1"/>
        <pt x="-244" y="-200" on="0"/>
        <pt x="-245" y="-204" on="1"/>
        <pt x="-251" y="-240" on="0"/>
        <pt x="-290" y="-270" on="0"/>
        <pt x="-322" y="-288" on="0"/>
        <pt x="-355" y="-294" on="1"/>
        <pt x="-376" y="-297" on="0"/>
        <pt x="-400" y="-297" on="1"/>
        <pt x="-415" y="-297" on="0"/>
        <pt x="-432" y="-296" on="1"/>
        <pt x="-439" y="-296" on="0"/>
        <pt x="-492" y="-286" on="0"/>
        <pt x="-549" y="-257" on="0"/>
        <pt x="-571" y="-221" on="0"/>
        <pt x="-578" y="-186" on="1"/>
        <pt x="-577" y="-145" on="0"/>
        <pt x="-534" y="-81" on="0"/>
        <pt x="-474" y="-62" on="1"/>
        <pt x="-419" y="-45" on="0"/>
        <pt x="-348" y="-45" on="1"/>
        <pt x="-334" y="-45" on="1"/>
        <pt x="-254" y="-47" on="0"/>
        <pt x="-122" y="-103" on="0"/>
        <pt x="-57" y="-151" on="1"/>
        <pt x="1" y="-194" on="0"/>
        <pt x="66" y="-194" on="1"/>
        <pt x="73" y="-194" on="0"/>
        <pt x="80" y="-194" on="1"/>
        <pt x="183" y="-189" on="0"/>
        <pt x="208" y="-45" on="1"/>
        <pt x="328" y="-45" on="1"/>
        <pt x="303" y="-295" on="0"/>
        <pt x="83" y="-295" on="1"/>
        <pt x="80" y="-295" on="1"/>
        <pt x="-57" y="-294" on="0"/>
        <pt x="-210" y="-152" on="0"/>
      </contour>
      <contour>
        <pt x="-272" y="-361" on="0"/>
        <pt x="-283" y="-374" on="0"/>
        <pt x="-283" y="-381" on="1"/>
        <pt x="-283" y="-389" on="0"/>
        <pt x="-272" y="-401" on="0"/>
        <pt x="-254" y="-408" on="0"/>
        <pt x="-221" y="-410" on="1"/>
        <pt x="-204" y="-394" on="0"/>
        <pt x="-204" y="-381" on="1"/>
        <pt x="-204" y="-374" on="0"/>
        <pt x="-215" y="-361" on="0"/>
        <pt x="-233" y="-353" on="0"/>
        <pt x="-243" y="-353" on="1"/>
        <pt x="-253" y="-353" on="0"/>
      </contour>
      <contour>
        <pt x="-149" y="-425" on="1"/>
        <pt x="-159" y="-446" on="0"/>
        <pt x="-159" y="-465" on="1"/>
        <pt x="-159" y="-473" on="0"/>
        <pt x="-157" y="-481" on="1"/>
        <pt x="-150" y="-495" on="0"/>
        <pt x="-114" y="-495" on="1"/>
        <pt x="-79" y="-495" on="0"/>
        <pt x="-79" y="-416" on="1"/>
        <pt x="-79" y="-307" on="1"/>
        <pt x="31" y="-307" on="1"/>
        <pt x="31" y="-420" on="1"/>
        <pt x="31" y="-561" on="0"/>
        <pt x="-114" y="-561" on="1"/>
        <pt x="-217" y="-561" on="0"/>
        <pt x="-246" y="-517" on="1"/>
        <pt x="-258" y="-498" on="0"/>
        <pt x="-258" y="-480" on="1"/>
        <pt x="-258" y="-465" on="0"/>
        <pt x="-249" y="-451" on="1"/>
        <pt x="-276" y="-451" on="0"/>
        <pt x="-301" y="-441" on="1"/>
        <pt x="-328" y="-431" on="0"/>
        <pt x="-359" y="-397" on="0"/>
        <pt x="-359" y="-378" on="1"/>
        <pt x="-359" y="-360" on="0"/>
        <pt x="-328" y="-325" on="0"/>
        <pt x="-274" y="-307" on="0"/>
        <pt x="-246" y="-307" on="1"/>
        <pt x="-217" y="-307" on="0"/>
        <pt x="-164" y="-325" on="0"/>
        <pt x="-134" y="-360" on="0"/>
        <pt x="-134" y="-378" on="1"/>
        <pt x="-134" y="-396" on="0"/>
      </contour>
    </TTGlyph>
    <TTGlyph name="#25" xMin="147" yMin="0" xMax="1477" yMax="1140">
      <contour>
        <pt x="378" y="155" on="1"/>
        <pt x="378" y="215" on="0"/>
        <pt x="314" y="215" on="1"/>
        <pt x="250" y="215" on="0"/>
        <pt x="250" y="155" on="1"/>
        <pt x="250" y="94" on="0"/>
        <pt x="314" y="94" on="1"/>
        <pt x="378" y="94" on="0"/>
      </contour>
      <contour>
        <pt x="873" y="568" on="1"/>
        <pt x="873" y="602" on="0"/>
        <pt x="833" y="628" on="0"/>
        <pt x="810" y="628" on="1"/>
        <pt x="783" y="628" on="0"/>
        <pt x="748" y="590" on="0"/>
        <pt x="748" y="572" on="1"/>
        <pt x="748" y="553" on="0"/>
        <pt x="783" y="512" on="0"/>
        <pt x="812" y="512" on="1"/>
        <pt x="835" y="512" on="0"/>
        <pt x="873" y="546" on="0"/>
      </contour>
      <contour>
        <pt x="309" y="1044" on="1"/>
        <pt x="249" y="1044" on="0"/>
        <pt x="249" y="1001" on="1"/>
        <pt x="249" y="956" on="0"/>
        <pt x="290" y="950" on="1"/>
        <pt x="297" y="949" on="0"/>
        <pt x="305" y="949" on="1"/>
        <pt x="339" y="949" on="0"/>
        <pt x="378" y="974" on="1"/>
        <pt x="370" y="1038" on="0"/>
      </contour>
      <contour>
        <pt x="1094" y="502" on="1"/>
        <pt x="1094" y="864" on="1"/>
        <pt x="1093" y="998" on="0"/>
        <pt x="841" y="1015" on="1"/>
        <pt x="670" y="993" on="0"/>
        <pt x="533" y="913" on="0"/>
        <pt x="513" y="892" on="1"/>
        <pt x="513" y="171" on="1"/>
        <pt x="506" y="13" on="0"/>
        <pt x="321" y="0" on="1"/>
        <pt x="156" y="3" on="0"/>
        <pt x="147" y="161" on="1"/>
        <pt x="163" y="291" on="0"/>
        <pt x="276" y="317" on="1"/>
        <pt x="297" y="320" on="0"/>
        <pt x="314" y="320" on="1"/>
        <pt x="355" y="320" on="0"/>
        <pt x="378" y="304" on="1"/>
        <pt x="378" y="843" on="1"/>
        <pt x="346" y="839" on="0"/>
        <pt x="316" y="835" on="1"/>
        <pt x="147" y="849" on="0"/>
        <pt x="147" y="993" on="1"/>
        <pt x="147" y="1135" on="0"/>
        <pt x="303" y="1140" on="1"/>
        <pt x="442" y="1140" on="0"/>
        <pt x="513" y="1032" on="1"/>
        <pt x="677" y="1135" on="0"/>
        <pt x="841" y="1140" on="1"/>
        <pt x="1201" y="1131" on="0"/>
        <pt x="1229" y="867" on="1"/>
        <pt x="1229" y="527" on="1"/>
        <pt x="1234" y="529" on="0"/>
        <pt x="1239" y="532" on="1"/>
        <pt x="1270" y="549" on="0"/>
        <pt x="1323" y="640" on="0"/>
        <pt x="1342" y="716" on="1"/>
        <pt x="1477" y="718" on="1"/>
        <pt x="1453" y="533" on="0"/>
        <pt x="1356" y="457" on="1"/>
        <pt x="1305" y="417" on="0"/>
        <pt x="1229" y="397" on="1"/>
        <pt x="1229" y="35" on="1"/>
        <pt x="1229" y="0" on="0"/>
        <pt x="1162" y="0" on="1"/>
        <pt x="1094" y="0" on="0"/>
        <pt x="1094" y="42" on="1"/>
        <pt x="1094" y="380" on="1"/>
        <pt x="1081" y="379" on="0"/>
        <pt x="1067" y="379" on="1"/>
        <pt x="1065" y="379" on="1"/>
        <pt x="1045" y="379" on="0"/>
        <pt x="1004" y="378" on="1"/>
        <pt x="990" y="377" on="0"/>
        <pt x="974" y="377" on="1"/>
        <pt x="946" y="377" on="0"/>
        <pt x="916" y="379" on="1"/>
        <pt x="868" y="381" on="0"/>
        <pt x="764" y="403" on="0"/>
        <pt x="681" y="448" on="0"/>
        <pt x="653" y="490" on="1"/>
        <pt x="627" y="528" on="0"/>
        <pt x="627" y="577" on="1"/>
        <pt x="627" y="587" on="1"/>
        <pt x="629" y="629" on="0"/>
        <pt x="663" y="682" on="0"/>
        <pt x="716" y="721" on="0"/>
        <pt x="772" y="737" on="0"/>
        <pt x="793" y="737" on="1"/>
        <pt x="799" y="737" on="0"/>
        <pt x="844" y="735" on="0"/>
        <pt x="898" y="721" on="0"/>
        <pt x="956" y="682" on="0"/>
        <pt x="979" y="643" on="0"/>
        <pt x="992" y="613" on="0"/>
        <pt x="994" y="592" on="1"/>
        <pt x="994" y="582" on="1"/>
        <pt x="994" y="565" on="0"/>
        <pt x="990" y="549" on="1"/>
        <pt x="984" y="527" on="0"/>
        <pt x="966" y="504" on="1"/>
        <pt x="966" y="501" on="0"/>
        <pt x="1018" y="501" on="1"/>
        <pt x="1048" y="501" on="0"/>
      </contour>
    </TTGlyph>
    <TTGlyph name="#26" xMin="147" yMin="0" xMax="1447" yMax="1140">
      <contour>
        <pt x="460" y="982" on="1"/>
        <pt x="460" y="1050" on="0"/>
        <pt x="389" y="1050" on="1"/>
        <pt x="318" y="1050" on="0"/>
        <pt x="318" y="982" on="1"/>
        <pt x="318" y="915" on="0"/>
        <pt x="389" y="915" on="1"/>
        <pt x="460" y="915" on="0"/>
      </contour>
      <contour>
        <pt x="843" y="648" on="1"/>
        <pt x="843" y="682" on="0"/>
        <pt x="803" y="708" on="0"/>
        <pt x="780" y="708" on="1"/>
        <pt x="753" y="708" on="0"/>
        <pt x="718" y="670" on="0"/>
        <pt x="718" y="652" on="1"/>
        <pt x="718" y="633" on="0"/>
        <pt x="753" y="592" on="0"/>
        <pt x="782" y="592" on="1"/>
        <pt x="805" y="592" on="0"/>
        <pt x="843" y="626" on="0"/>
      </contour>
      <contour>
        <pt x="1156" y="468" on="1"/>
        <pt x="1156" y="343" on="1"/>
        <pt x="1155" y="0" on="0"/>
        <pt x="651" y="0" on="1"/>
        <pt x="147" y="0" on="0"/>
        <pt x="147" y="356" on="1"/>
        <pt x="147" y="515" on="0"/>
        <pt x="313" y="577" on="1"/>
        <pt x="147" y="640" on="0"/>
        <pt x="147" y="799" on="1"/>
        <pt x="147" y="845" on="1"/>
        <pt x="147" y="1134" on="0"/>
        <pt x="389" y="1140" on="1"/>
        <pt x="567" y="1138" on="0"/>
        <pt x="567" y="993" on="1"/>
        <pt x="567" y="978" on="0"/>
        <pt x="565" y="962" on="1"/>
        <pt x="565" y="823" on="0"/>
        <pt x="409" y="823" on="1"/>
        <pt x="335" y="823" on="0"/>
        <pt x="293" y="865" on="1"/>
        <pt x="284" y="878" on="1"/>
        <pt x="284" y="799" on="1"/>
        <pt x="284" y="704" on="0"/>
        <pt x="409" y="636" on="0"/>
        <pt x="481" y="636" on="1"/>
        <pt x="552" y="636" on="0"/>
        <pt x="552" y="578" on="1"/>
        <pt x="552" y="519" on="0"/>
        <pt x="481" y="519" on="1"/>
        <pt x="409" y="519" on="0"/>
        <pt x="284" y="451" on="0"/>
        <pt x="284" y="356" on="1"/>
        <pt x="284" y="124" on="0"/>
        <pt x="654" y="124" on="1"/>
        <pt x="1022" y="124" on="0"/>
        <pt x="1022" y="343" on="1"/>
        <pt x="1022" y="459" on="1"/>
        <pt x="1003" y="459" on="0"/>
        <pt x="974" y="458" on="1"/>
        <pt x="960" y="457" on="0"/>
        <pt x="944" y="457" on="1"/>
        <pt x="916" y="457" on="0"/>
        <pt x="886" y="459" on="1"/>
        <pt x="838" y="461" on="0"/>
        <pt x="734" y="483" on="0"/>
        <pt x="651" y="528" on="0"/>
        <pt x="623" y="570" on="1"/>
        <pt x="597" y="608" on="0"/>
        <pt x="597" y="657" on="1"/>
        <pt x="597" y="667" on="1"/>
        <pt x="599" y="709" on="0"/>
        <pt x="633" y="762" on="0"/>
        <pt x="686" y="801" on="0"/>
        <pt x="742" y="817" on="0"/>
        <pt x="763" y="817" on="1"/>
        <pt x="769" y="817" on="0"/>
        <pt x="814" y="815" on="0"/>
        <pt x="868" y="801" on="0"/>
        <pt x="926" y="762" on="0"/>
        <pt x="949" y="723" on="0"/>
        <pt x="962" y="693" on="0"/>
        <pt x="964" y="672" on="1"/>
        <pt x="964" y="662" on="1"/>
        <pt x="964" y="645" on="0"/>
        <pt x="960" y="629" on="1"/>
        <pt x="954" y="607" on="0"/>
        <pt x="936" y="584" on="1"/>
        <pt x="936" y="581" on="0"/>
        <pt x="988" y="581" on="1"/>
        <pt x="1022" y="581" on="1"/>
        <pt x="1022" y="1109" on="1"/>
        <pt x="1022" y="1140" on="0"/>
        <pt x="1090" y="1140" on="1"/>
        <pt x="1157" y="1140" on="0"/>
        <pt x="1157" y="1110" on="1"/>
        <pt x="1156" y="591" on="1"/>
        <pt x="1184" y="598" on="0"/>
        <pt x="1209" y="612" on="1"/>
        <pt x="1240" y="629" on="0"/>
        <pt x="1293" y="720" on="0"/>
        <pt x="1312" y="796" on="1"/>
        <pt x="1447" y="798" on="1"/>
        <pt x="1423" y="613" on="0"/>
        <pt x="1326" y="537" on="1"/>
        <pt x="1261" y="486" on="0"/>
      </contour>
    </TTGlyph>
    <TTGlyph name="#3" xMin="-167" yMin="-438" xMax="166" yMax="-42">
      <contour>
        <pt x="32" y="-175" on="1"/>
        <pt x="32" y="-157" on="0"/>
        <pt x="4" y="-132" on="0"/>
        <pt x="-12" y="-132" on="1"/>
        <pt x="-31" y="-132" on="0"/>
        <pt x="-46" y="-145" on="1"/>
        <pt x="-60" y="-157" on="0"/>
        <pt x="-60" y="-174" on="1"/>
        <pt x="-60" y="-176" on="1"/>
        <pt x="-60" y="-189" on="0"/>
        <pt x="-31" y="-218" on="0"/>
        <pt x="-12" y="-218" on="1"/>
        <pt x="4" y="-218" on="0"/>
        <pt x="32" y="-189" on="0"/>
      </contour>
      <contour>
        <pt x="161" y="-264" on="1"/>
        <pt x="160" y="-264" on="1"/>
        <pt x="147" y="-299" on="0"/>
        <pt x="130" y="-328" on="0"/>
        <pt x="101" y="-362" on="0"/>
        <pt x="64" y="-399" on="0"/>
        <pt x="5" y="-438" on="1"/>
        <pt x="-111" y="-380" on="1"/>
        <pt x="-64" y="-359" on="0"/>
        <pt x="-1" y="-299" on="0"/>
        <pt x="9" y="-274" on="1"/>
        <pt x="-26" y="-283" on="0"/>
        <pt x="-45" y="-284" on="1"/>
        <pt x="-48" y="-284" on="1"/>
        <pt x="-67" y="-284" on="0"/>
        <pt x="-97" y="-272" on="1"/>
        <pt x="-145" y="-250" on="0"/>
        <pt x="-167" y="-197" on="0"/>
        <pt x="-167" y="-157" on="1"/>
        <pt x="-155" y="-111" on="0"/>
        <pt x="-127" y="-79" on="0"/>
        <pt x="-83" y="-53" on="0"/>
        <pt x="-45" y="-43" on="0"/>
        <pt x="5" y="-42" on="1"/>
        <pt x="10" y="-42" on="1"/>
        <pt x="23" y="-42" on="0"/>
        <pt x="87" y="-65" on="0"/>
        <pt x="140" y="-108" on="0"/>
        <pt x="156" y="-150" on="1"/>
        <pt x="166" y="-175" on="0"/>
        <pt x="166" y="-210" on="1"/>
        <pt x="166" y="-234" on="0"/>
      </contour>
    </TTGlyph>
    <TTGlyph name="#4" xMin="-239" yMin="-427" xMax="151" yMax="-56">
      <contour>
        <pt x="-152" y="-135" on="0"/>
        <pt x="-163" y="-154" on="0"/>
        <pt x="-163" y="-164" on="1"/>
        <pt x="-163" y="-175" on="0"/>
        <pt x="-152" y="-193" on="0"/>
        <pt x="-134" y="-204" on="0"/>
        <pt x="-101" y="-206" on="1"/>
        <pt x="-84" y="-183" on="0"/>
        <pt x="-84" y="-164" on="1"/>
        <pt x="-84" y="-154" on="0"/>
        <pt x="-95" y="-135" on="0"/>
        <pt x="-113" y="-124" on="0"/>
        <pt x="-123" y="-124" on="1"/>
        <pt x="-133" y="-124" on="0"/>
      </contour>
      <contour>
        <pt x="-29" y="-229" on="1"/>
        <pt x="-39" y="-259" on="0"/>
        <pt x="-39" y="-286" on="1"/>
        <pt x="-39" y="-299" on="0"/>
        <pt x="-37" y="-311" on="1"/>
        <pt x="-30" y="-331" on="0"/>
        <pt x="6" y="-331" on="1"/>
        <pt x="41" y="-331" on="0"/>
        <pt x="41" y="-216" on="1"/>
        <pt x="41" y="-56" on="1"/>
        <pt x="151" y="-56" on="1"/>
        <pt x="151" y="-221" on="1"/>
        <pt x="151" y="-427" on="0"/>
        <pt x="6" y="-427" on="1"/>
        <pt x="-97" y="-427" on="0"/>
        <pt x="-126" y="-362" on="1"/>
        <pt x="-138" y="-335" on="0"/>
        <pt x="-138" y="-309" on="1"/>
        <pt x="-138" y="-287" on="0"/>
        <pt x="-129" y="-266" on="1"/>
        <pt x="-156" y="-266" on="0"/>
        <pt x="-181" y="-252" on="1"/>
        <pt x="-208" y="-238" on="0"/>
        <pt x="-239" y="-188" on="0"/>
        <pt x="-239" y="-161" on="1"/>
        <pt x="-239" y="-133" on="0"/>
        <pt x="-208" y="-82" on="0"/>
        <pt x="-154" y="-56" on="0"/>
        <pt x="-126" y="-56" on="1"/>
        <pt x="-97" y="-56" on="0"/>
        <pt x="-44" y="-82" on="0"/>
        <pt x="-14" y="-133" on="0"/>
        <pt x="-14" y="-161" on="1"/>
        <pt x="-14" y="-186" on="0"/>
      </contour>
    </TTGlyph>
    <TTGlyph name="#5" xMin="-444" yMin="1292" xMax="444" yMax="1742">
      <contour>
        <pt x="116" y="1340" on="1"/>
        <pt x="120" y="1369" on="0"/>
        <pt x="153" y="1389" on="0"/>
        <pt x="200" y="1409" on="1"/>
        <pt x="246" y="1434" on="0"/>
        <pt x="277" y="1465" on="1"/>
        <pt x="298" y="1485" on="0"/>
        <pt x="298" y="1510" on="1"/>
        <pt x="298" y="1522" on="0"/>
        <pt x="293" y="1536" on="1"/>
        <pt x="278" y="1576" on="0"/>
        <pt x="204" y="1604" on="1"/>
        <pt x="132" y="1631" on="0"/>
        <pt x="1" y="1631" on="1"/>
        <pt x="-20" y="1631" on="1"/>
        <pt x="-152" y="1631" on="0"/>
        <pt x="-215" y="1610" on="1"/>
        <pt x="-282" y="1587" on="0"/>
        <pt x="-299" y="1544" on="1"/>
        <pt x="-305" y="1528" on="0"/>
        <pt x="-305" y="1513" on="1"/>
        <pt x="-305" y="1489" on="0"/>
        <pt x="-288" y="1469" on="1"/>
        <pt x="-261" y="1436" on="0"/>
        <pt x="-223" y="1414" on="1"/>
        <pt x="-161" y="1389" on="0"/>
        <pt x="-130" y="1363" on="0"/>
        <pt x="-128" y="1344" on="1"/>
        <pt x="-133" y="1292" on="0"/>
        <pt x="-198" y="1292" on="1"/>
        <pt x="-209" y="1292" on="0"/>
        <pt x="-223" y="1294" on="1"/>
        <pt x="-277" y="1311" on="0"/>
        <pt x="-352" y="1357" on="0"/>
        <pt x="-415" y="1415" on="0"/>
        <pt x="-439" y="1473" on="0"/>
        <pt x="-444" y="1518" on="1"/>
        <pt x="-444" y="1570" on="0"/>
        <pt x="-348" y="1682" on="0"/>
        <pt x="-162" y="1736" on="0"/>
        <pt x="-8" y="1742" on="1"/>
        <pt x="143" y="1736" on="0"/>
        <pt x="342" y="1684" on="0"/>
        <pt x="443" y="1562" on="0"/>
        <pt x="444" y="1517" on="1"/>
        <pt x="444" y="1468" on="0"/>
        <pt x="402" y="1403" on="0"/>
        <pt x="344" y="1355" on="0"/>
        <pt x="273" y="1307" on="0"/>
        <pt x="200" y="1292" on="1"/>
        <pt x="116" y="1292" on="0"/>
      </contour>
    </TTGlyph>
    <TTGlyph name="#6" xMin="-434" yMin="1292" xMax="494" yMax="1742">
      <contour>
        <pt x="494" y="1292" on="1"/>
        <pt x="193" y="1292" on="1"/>
        <pt x="111" y="1292" on="0"/>
        <pt x="111" y="1343" on="1"/>
        <pt x="114" y="1370" on="0"/>
        <pt x="148" y="1392" on="0"/>
        <pt x="193" y="1411" on="1"/>
        <pt x="239" y="1437" on="0"/>
        <pt x="269" y="1468" on="1"/>
        <pt x="288" y="1488" on="0"/>
        <pt x="288" y="1511" on="1"/>
        <pt x="288" y="1523" on="0"/>
        <pt x="283" y="1536" on="1"/>
        <pt x="267" y="1572" on="0"/>
        <pt x="196" y="1601" on="1"/>
        <pt x="129" y="1628" on="0"/>
        <pt x="9" y="1628" on="1"/>
        <pt x="-29" y="1628" on="1"/>
        <pt x="-152" y="1628" on="0"/>
        <pt x="-211" y="1607" on="1"/>
        <pt x="-275" y="1583" on="0"/>
        <pt x="-291" y="1544" on="1"/>
        <pt x="-298" y="1529" on="0"/>
        <pt x="-298" y="1515" on="1"/>
        <pt x="-298" y="1492" on="0"/>
        <pt x="-281" y="1472" on="1"/>
        <pt x="-255" y="1439" on="0"/>
        <pt x="-218" y="1416" on="1"/>
        <pt x="-158" y="1391" on="0"/>
        <pt x="-128" y="1364" on="0"/>
        <pt x="-126" y="1346" on="1"/>
        <pt x="-131" y="1292" on="0"/>
        <pt x="-194" y="1292" on="1"/>
        <pt x="-205" y="1292" on="0"/>
        <pt x="-218" y="1294" on="1"/>
        <pt x="-271" y="1311" on="0"/>
        <pt x="-344" y="1358" on="0"/>
        <pt x="-405" y="1417" on="0"/>
        <pt x="-429" y="1478" on="0"/>
        <pt x="-434" y="1523" on="1"/>
        <pt x="-434" y="1567" on="0"/>
        <pt x="-340" y="1680" on="0"/>
        <pt x="-159" y="1735" on="0"/>
        <pt x="-8" y="1742" on="1"/>
        <pt x="138" y="1735" on="0"/>
        <pt x="331" y="1681" on="0"/>
        <pt x="428" y="1558" on="0"/>
        <pt x="429" y="1522" on="1"/>
        <pt x="429" y="1471" on="0"/>
        <pt x="397" y="1424" on="0"/>
        <pt x="348" y="1381" on="1"/>
        <pt x="494" y="1381" on="1"/>
      </contour>
    </TTGlyph>
    <TTGlyph name="#7" xMin="-434" yMin="1292" xMax="438" yMax="1742">
      <contour>
        <pt x="126" y="1340" on="1"/>
        <pt x="130" y="1369" on="0"/>
        <pt x="163" y="1389" on="0"/>
        <pt x="210" y="1409" on="1"/>
        <pt x="256" y="1434" on="0"/>
        <pt x="287" y="1465" on="1"/>
        <pt x="308" y="1485" on="0"/>
        <pt x="308" y="1510" on="1"/>
        <pt x="308" y="1522" on="0"/>
        <pt x="303" y="1536" on="1"/>
        <pt x="288" y="1576" on="0"/>
        <pt x="214" y="1604" on="1"/>
        <pt x="144" y="1630" on="0"/>
        <pt x="20" y="1630" on="1"/>
        <pt x="-20" y="1630" on="1"/>
        <pt x="-144" y="1630" on="0"/>
        <pt x="-205" y="1610" on="1"/>
        <pt x="-272" y="1587" on="0"/>
        <pt x="-289" y="1544" on="1"/>
        <pt x="-295" y="1528" on="0"/>
        <pt x="-295" y="1513" on="1"/>
        <pt x="-295" y="1489" on="0"/>
        <pt x="-278" y="1469" on="1"/>
        <pt x="-251" y="1436" on="0"/>
        <pt x="-213" y="1414" on="1"/>
        <pt x="-151" y="1389" on="0"/>
        <pt x="-120" y="1363" on="0"/>
        <pt x="-118" y="1344" on="1"/>
        <pt x="-123" y="1292" on="0"/>
        <pt x="-188" y="1292" on="1"/>
        <pt x="-199" y="1292" on="0"/>
        <pt x="-213" y="1294" on="1"/>
        <pt x="-267" y="1311" on="0"/>
        <pt x="-342" y="1357" on="0"/>
        <pt x="-405" y="1416" on="0"/>
        <pt x="-429" y="1473" on="0"/>
        <pt x="-434" y="1519" on="1"/>
        <pt x="-434" y="1561" on="0"/>
        <pt x="-338" y="1682" on="0"/>
        <pt x="-152" y="1736" on="0"/>
        <pt x="2" y="1742" on="1"/>
        <pt x="153" y="1736" on="0"/>
        <pt x="346" y="1682" on="0"/>
        <pt x="437" y="1553" on="0"/>
        <pt x="438" y="1517" on="1"/>
        <pt x="438" y="1469" on="0"/>
        <pt x="406" y="1403" on="0"/>
        <pt x="354" y="1355" on="0"/>
        <pt x="283" y="1307" on="0"/>
        <pt x="210" y="1292" on="1"/>
        <pt x="126" y="1292" on="0"/>
      </contour>
      <contour>
        <pt x="-87" y="1517" on="0"/>
        <pt x="-32" y="1561" on="0"/>
        <pt x="6" y="1561" on="1"/>
        <pt x="44" y="1561" on="0"/>
        <pt x="100" y="1517" on="0"/>
        <pt x="100" y="1487" on="1"/>
        <pt x="100" y="1454" on="0"/>
        <pt x="44" y="1409" on="0"/>
        <pt x="6" y="1409" on="1"/>
        <pt x="-32" y="1409" on="0"/>
        <pt x="-87" y="1454" on="0"/>
        <pt x="-87" y="1487" on="1"/>
      </contour>
    </TTGlyph>
    <TTGlyph name="#8" xMin="-433" yMin="1272" xMax="495" yMax="1722">
      <contour>
        <pt x="-95" y="1503" on="0"/>
        <pt x="-42" y="1548" on="0"/>
        <pt x="-5" y="1548" on="1"/>
        <pt x="32" y="1548" on="0"/>
        <pt x="87" y="1503" on="0"/>
        <pt x="87" y="1471" on="1"/>
        <pt x="87" y="1439" on="0"/>
        <pt x="32" y="1392" on="0"/>
        <pt x="-5" y="1392" on="1"/>
        <pt x="-42" y="1392" on="0"/>
        <pt x="-95" y="1439" on="0"/>
        <pt x="-95" y="1471" on="1"/>
      </contour>
      <contour>
        <pt x="495" y="1272" on="1"/>
        <pt x="194" y="1272" on="1"/>
        <pt x="112" y="1272" on="0"/>
        <pt x="112" y="1323" on="1"/>
        <pt x="115" y="1350" on="0"/>
        <pt x="149" y="1372" on="0"/>
        <pt x="194" y="1391" on="1"/>
        <pt x="240" y="1417" on="0"/>
        <pt x="270" y="1448" on="1"/>
        <pt x="289" y="1468" on="0"/>
        <pt x="289" y="1491" on="1"/>
        <pt x="289" y="1503" on="0"/>
        <pt x="284" y="1516" on="1"/>
        <pt x="268" y="1552" on="0"/>
        <pt x="197" y="1581" on="1"/>
        <pt x="130" y="1608" on="0"/>
        <pt x="10" y="1608" on="1"/>
        <pt x="-28" y="1608" on="1"/>
        <pt x="-151" y="1608" on="0"/>
        <pt x="-210" y="1587" on="1"/>
        <pt x="-274" y="1563" on="0"/>
        <pt x="-290" y="1524" on="1"/>
        <pt x="-297" y="1509" on="0"/>
        <pt x="-297" y="1495" on="1"/>
        <pt x="-297" y="1472" on="0"/>
        <pt x="-280" y="1452" on="1"/>
        <pt x="-254" y="1419" on="0"/>
        <pt x="-217" y="1396" on="1"/>
        <pt x="-157" y="1371" on="0"/>
        <pt x="-127" y="1344" on="0"/>
        <pt x="-125" y="1326" on="1"/>
        <pt x="-130" y="1272" on="0"/>
        <pt x="-193" y="1272" on="1"/>
        <pt x="-204" y="1272" on="0"/>
        <pt x="-217" y="1274" on="1"/>
        <pt x="-270" y="1291" on="0"/>
        <pt x="-343" y="1338" on="0"/>
        <pt x="-404" y="1397" on="0"/>
        <pt x="-429" y="1454" on="0"/>
        <pt x="-433" y="1503" on="1"/>
        <pt x="-433" y="1547" on="0"/>
        <pt x="-339" y="1660" on="0"/>
        <pt x="-158" y="1715" on="0"/>
        <pt x="-7" y="1722" on="1"/>
        <pt x="139" y="1715" on="0"/>
        <pt x="324" y="1667" on="0"/>
        <pt x="399" y="1589" on="0"/>
        <pt x="412" y="1526" on="1"/>
        <pt x="413" y="1515" on="0"/>
        <pt x="413" y="1505" on="1"/>
        <pt x="413" y="1460" on="0"/>
        <pt x="402" y="1435" on="1"/>
        <pt x="388" y="1404" on="0"/>
        <pt x="349" y="1361" on="1"/>
        <pt x="495" y="1361" on="1"/>
      </contour>
    </TTGlyph>
    <TTGlyph name="#9" xMin="-424" yMin="1292" xMax="426" yMax="1652">
      <contour>
        <pt x="-178" y="1483" on="1"/>
        <pt x="-178" y="1517" on="0"/>
        <pt x="-218" y="1543" on="0"/>
        <pt x="-241" y="1543" on="1"/>
        <pt x="-268" y="1543" on="0"/>
        <pt x="-303" y="1505" on="0"/>
        <pt x="-303" y="1487" on="1"/>
        <pt x="-303" y="1468" on="0"/>
        <pt x="-268" y="1427" on="0"/>
        <pt x="-239" y="1427" on="1"/>
        <pt x="-216" y="1427" on="0"/>
        <pt x="-178" y="1461" on="0"/>
      </contour>
      <contour>
        <pt x="426" y="1633" on="1"/>
        <pt x="402" y="1448" on="0"/>
        <pt x="207" y="1295" on="0"/>
        <pt x="16" y="1294" on="1"/>
        <pt x="14" y="1294" on="1"/>
        <pt x="-6" y="1294" on="0"/>
        <pt x="-47" y="1293" on="1"/>
        <pt x="-61" y="1292" on="0"/>
        <pt x="-77" y="1292" on="1"/>
        <pt x="-105" y="1292" on="0"/>
        <pt x="-135" y="1294" on="1"/>
        <pt x="-183" y="1296" on="0"/>
        <pt x="-287" y="1318" on="0"/>
        <pt x="-370" y="1363" on="0"/>
        <pt x="-398" y="1405" on="1"/>
        <pt x="-424" y="1443" on="0"/>
        <pt x="-424" y="1492" on="1"/>
        <pt x="-424" y="1502" on="1"/>
        <pt x="-422" y="1544" on="0"/>
        <pt x="-388" y="1597" on="0"/>
        <pt x="-335" y="1636" on="0"/>
        <pt x="-279" y="1652" on="0"/>
        <pt x="-258" y="1652" on="1"/>
        <pt x="-252" y="1652" on="0"/>
        <pt x="-207" y="1650" on="0"/>
        <pt x="-153" y="1636" on="0"/>
        <pt x="-95" y="1597" on="0"/>
        <pt x="-72" y="1558" on="0"/>
        <pt x="-59" y="1528" on="0"/>
        <pt x="-57" y="1507" on="1"/>
        <pt x="-57" y="1497" on="1"/>
        <pt x="-57" y="1480" on="0"/>
        <pt x="-61" y="1464" on="1"/>
        <pt x="-67" y="1442" on="0"/>
        <pt x="-85" y="1419" on="1"/>
        <pt x="-85" y="1416" on="0"/>
        <pt x="-33" y="1416" on="1"/>
        <pt x="-2" y="1416" on="0"/>
        <pt x="47" y="1417" on="1"/>
        <pt x="83" y="1417" on="0"/>
        <pt x="156" y="1429" on="0"/>
        <pt x="219" y="1464" on="0"/>
        <pt x="272" y="1555" on="0"/>
        <pt x="291" y="1631" on="1"/>
      </contour>
    </TTGlyph>
    <TTGlyph name="ampersand" xMin="133" yMin="934" xMax="330" yMax="1462">
      <contour>
        <pt x="330" y="1462" on="1"/>
        <pt x="289" y="934" on="1"/>
        <pt x="174" y="934" on="1"/>
        <pt x="133" y="1462" on="1"/>
      </contour>
    </TTGlyph>
    <TTGlyph name="asterisk" xMin="102" yMin="262" xMax="1026" yMax="1186">
      <contour>
        <pt x="489" y="647" on="1"/>
        <pt x="102" y="647" on="1"/>
        <pt x="102" y="797" on="1"/>
        <pt x="489" y="797" on="1"/>
        <pt x="489" y="1186" on="1"/>
        <pt x="639" y="1186" on="1"/>
        <pt x="639" y="797" on="1"/>
        <pt x="1026" y="797" on="1"/>
        <pt x="1026" y="647" on="1"/>
        <pt x="639" y="647" on="1"/>
        <pt x="639" y="262" on="1"/>
        <pt x="489" y="262" on="1"/>
      </contour>
    </TTGlyph>
    <TTGlyph name="at" xMin="109" yMin="-182" xMax="1665" yMax="1462">
      <contour>
        <pt x="1665" y="731" on="1"/>
        <pt x="1665" y="669" on="0"/>
        <pt x="1646" y="544" on="0"/>
        <pt x="1609" y="431" on="0"/>
        <pt x="1552" y="334" on="0"/>
        <pt x="1476" y="262" on="0"/>
        <pt x="1379" y="221" on="0"/>
        <pt x="1321" y="221" on="1"/>
        <pt x="1276" y="221" on="0"/>
        <pt x="1203" y="251" on="0"/>
        <pt x="1151" y="301" on="0"/>
        <pt x="1118" y="366" on="0"/>
        <pt x="1112" y="401" on="1"/>
        <pt x="1108" y="401" on="1"/>
        <pt x="1090" y="364" on="0"/>
        <pt x="1036" y="298" on="0"/>
        <pt x="965" y="249" on="0"/>
        <pt x="876" y="221" on="0"/>
        <pt x="823" y="221" on="1"/>
        <pt x="746" y="221" on="0"/>
        <pt x="627" y="277" on="0"/>
        <pt x="545" y="378" on="0"/>
        <pt x="502" y="520" on="0"/>
        <pt x="502" y="606" on="1"/>
        <pt x="502" y="707" on="0"/>
        <pt x="561" y="875" on="0"/>
        <pt x="672" y="997" on="0"/>
        <pt x="830" y="1065" on="0"/>
        <pt x="928" y="1065" on="1"/>
        <pt x="973" y="1065" on="0"/>
        <pt x="1063" y="1057" on="0"/>
        <pt x="1145" y="1043" on="0"/>
        <pt x="1214" y="1026" on="0"/>
        <pt x="1237" y="1018" on="1"/>
        <pt x="1214" y="602" on="1"/>
        <pt x="1213" y="580" on="0"/>
        <pt x="1212" y="553" on="0"/>
        <pt x="1212" y="545" on="1"/>
        <pt x="1212" y="526" on="1"/>
        <pt x="1212" y="473" on="0"/>
        <pt x="1233" y="405" on="0"/>
        <pt x="1267" y="365" on="0"/>
        <pt x="1310" y="350" on="0"/>
        <pt x="1333" y="350" on="1"/>
        <pt x="1379" y="350" on="0"/>
        <pt x="1449" y="411" on="0"/>
        <pt x="1496" y="515" on="0"/>
        <pt x="1520" y="655" on="0"/>
        <pt x="1520" y="733" on="1"/>
        <pt x="1520" y="875" on="0"/>
        <pt x="1434" y="1096" on="0"/>
        <pt x="1282" y="1248" on="0"/>
        <pt x="1073" y="1327" on="0"/>
        <pt x="950" y="1327" on="1"/>
        <pt x="781" y="1327" on="0"/>
        <pt x="523" y="1216" on="0"/>
        <pt x="348" y="1017" on="0"/>
        <pt x="258" y="744" on="0"/>
        <pt x="258" y="582" on="1"/>
        <pt x="258" y="431" on="0"/>
        <pt x="337" y="197" on="0"/>
        <pt x="490" y="37" on="0"/>
        <pt x="717" y="-45" on="0"/>
        <pt x="864" y="-45" on="1"/>
        <pt x="925" y="-45" on="0"/>
        <pt x="1044" y="-31" on="0"/>
        <pt x="1155" y="-7" on="0"/>
        <pt x="1255" y="24" on="0"/>
        <pt x="1298" y="41" on="1"/>
        <pt x="1298" y="-100" on="1"/>
        <pt x="1212" y="-138" on="0"/>
        <pt x="996" y="-182" on="0"/>
        <pt x="866" y="-182" on="1"/>
        <pt x="687" y="-182" on="0"/>
        <pt x="406" y="-80" on="0"/>
        <pt x="211" y="115" on="0"/>
        <pt x="109" y="396" on="0"/>
        <pt x="109" y="575" on="1"/>
        <pt x="109" y="763" on="0"/>
        <pt x="227" y="1088" on="0"/>
        <pt x="446" y="1326" on="0"/>
        <pt x="757" y="1462" on="0"/>
        <pt x="950" y="1462" on="1"/>
        <pt x="1106" y="1462" on="0"/>
        <pt x="1368" y="1361" on="0"/>
        <pt x="1559" y="1172" on="0"/>
        <pt x="1665" y="901" on="0"/>
      </contour>
      <contour>
        <pt x="662" y="602" on="1"/>
        <pt x="662" y="469" on="0"/>
        <pt x="763" y="350" on="0"/>
        <pt x="848" y="350" on="1"/>
        <pt x="903" y="350" on="0"/>
        <pt x="981" y="395" on="0"/>
        <pt x="1031" y="478" on="0"/>
        <pt x="1057" y="593" on="0"/>
        <pt x="1061" y="662" on="1"/>
        <pt x="1075" y="915" on="1"/>
        <pt x="1047" y="923" on="0"/>
        <pt x="970" y="936" on="0"/>
        <pt x="928" y="936" on="1"/>
        <pt x="854" y="936" on="0"/>
        <pt x="753" y="878" on="0"/>
        <pt x="690" y="784" on="0"/>
        <pt x="662" y="664" on="0"/>
      </contour>
    </TTGlyph>
    <TTGlyph name="colon" xMin="63" yMin="-264" xMax="401" yMax="1126">
      <contour>
        <pt x="362" y="238" on="1"/>
        <pt x="377" y="215" on="1"/>
        <pt x="363" y="161" on="0"/>
        <pt x="324" y="39" on="0"/>
        <pt x="277" y="-85" on="0"/>
        <pt x="226" y="-208" on="0"/>
        <pt x="201" y="-264" on="1"/>
        <pt x="63" y="-264" on="1"/>
        <pt x="78" y="-203" on="0"/>
        <pt x="107" y="-71" on="0"/>
        <pt x="134" y="60" on="0"/>
        <pt x="156" y="185" on="0"/>
        <pt x="164" y="238" on="1"/>
      </contour>
      <contour>
        <pt x="147" y="987" on="1"/>
        <pt x="147" y="1026" on="0"/>
        <pt x="167" y="1079" on="0"/>
        <pt x="201" y="1112" on="0"/>
        <pt x="247" y="1126" on="0"/>
        <pt x="274" y="1126" on="1"/>
        <pt x="300" y="1126" on="0"/>
        <pt x="347" y="1112" on="0"/>
        <pt x="381" y="1079" on="0"/>
        <pt x="401" y="1026" on="0"/>
        <pt x="401" y="987" on="1"/>
        <pt x="401" y="950" on="0"/>
        <pt x="381" y="898" on="0"/>
        <pt x="347" y="864" on="0"/>
        <pt x="300" y="848" on="0"/>
        <pt x="274" y="848" on="1"/>
        <pt x="247" y="848" on="0"/>
        <pt x="201" y="864" on="0"/>
        <pt x="167" y="898" on="0"/>
        <pt x="147" y="950" on="0"/>
      </contour>
    </TTGlyph>
    <TTGlyph name="comma" xMin="82" yMin="465" xMax="578" yMax="633">
      <contour>
        <pt x="82" y="465" on="1"/>
        <pt x="82" y="633" on="1"/>
        <pt x="578" y="633" on="1"/>
        <pt x="578" y="465" on="1"/>
      </contour>
    </TTGlyph>
    <TTGlyph name="dollar" xMin="102" yMin="-20" xMax="1587" yMax="1483">
      <contour>
        <pt x="250" y="1026" on="1"/>
        <pt x="250" y="861" on="0"/>
        <pt x="321" y="696" on="0"/>
        <pt x="401" y="696" on="1"/>
        <pt x="557" y="696" on="0"/>
        <pt x="557" y="1026" on="1"/>
        <pt x="557" y="1354" on="0"/>
        <pt x="401" y="1354" on="1"/>
        <pt x="321" y="1354" on="0"/>
        <pt x="250" y="1191" on="0"/>
      </contour>
      <contour>
        <pt x="705" y="1026" on="1"/>
        <pt x="705" y="918" on="0"/>
        <pt x="669" y="746" on="0"/>
        <pt x="595" y="628" on="0"/>
        <pt x="480" y="565" on="0"/>
        <pt x="401" y="565" on="1"/>
        <pt x="328" y="565" on="0"/>
        <pt x="216" y="628" on="0"/>
        <pt x="140" y="746" on="0"/>
        <pt x="102" y="918" on="0"/>
        <pt x="102" y="1026" on="1"/>
        <pt x="102" y="1134" on="0"/>
        <pt x="137" y="1304" on="0"/>
        <pt x="210" y="1421" on="0"/>
        <pt x="323" y="1483" on="0"/>
        <pt x="401" y="1483" on="1"/>
        <pt x="476" y="1483" on="0"/>
        <pt x="589" y="1421" on="0"/>
        <pt x="666" y="1304" on="0"/>
        <pt x="705" y="1134" on="0"/>
      </contour>
      <contour>
        <pt x="1133" y="440" on="1"/>
        <pt x="1133" y="275" on="0"/>
        <pt x="1204" y="111" on="0"/>
        <pt x="1284" y="111" on="1"/>
        <pt x="1440" y="111" on="0"/>
        <pt x="1440" y="440" on="1"/>
        <pt x="1440" y="768" on="0"/>
        <pt x="1284" y="768" on="1"/>
        <pt x="1204" y="768" on="0"/>
        <pt x="1133" y="605" on="0"/>
      </contour>
      <contour>
        <pt x="1587" y="440" on="1"/>
        <pt x="1587" y="332" on="0"/>
        <pt x="1552" y="161" on="0"/>
        <pt x="1478" y="43" on="0"/>
        <pt x="1363" y="-20" on="0"/>
        <pt x="1284" y="-20" on="1"/>
        <pt x="1210" y="-20" on="0"/>
        <pt x="1098" y="43" on="0"/>
        <pt x="1023" y="161" on="0"/>
        <pt x="985" y="332" on="0"/>
        <pt x="985" y="440" on="1"/>
        <pt x="985" y="548" on="0"/>
        <pt x="1020" y="718" on="0"/>
        <pt x="1093" y="835" on="0"/>
        <pt x="1206" y="897" on="0"/>
        <pt x="1284" y="897" on="1"/>
        <pt x="1359" y="897" on="0"/>
        <pt x="1472" y="835" on="0"/>
        <pt x="1548" y="718" on="0"/>
        <pt x="1587" y="548" on="0"/>
      </contour>
      <contour>
        <pt x="1331" y="1462" on="1"/>
        <pt x="520" y="0" on="1"/>
        <pt x="362" y="0" on="1"/>
        <pt x="1174" y="1462" on="1"/>
      </contour>
    </TTGlyph>
    <TTGlyph name="eight" xMin="106" yMin="-20" xMax="1028" yMax="1483">
      <contour>
        <pt x="1028" y="838" on="1"/>
        <pt x="1028" y="733" on="0"/>
        <pt x="1007" y="524" on="0"/>
        <pt x="954" y="334" on="0"/>
        <pt x="862" y="169" on="0"/>
        <pt x="720" y="49" on="0"/>
        <pt x="522" y="-20" on="0"/>
        <pt x="389" y="-20" on="1"/>
        <pt x="370" y="-20" on="0"/>
        <pt x="324" y="-18" on="0"/>
        <pt x="278" y="-13" on="0"/>
        <pt x="234" y="-7" on="0"/>
        <pt x="217" y="-2" on="1"/>
        <pt x="217" y="154" on="1"/>
        <pt x="252" y="141" on="0"/>
        <pt x="340" y="129" on="0"/>
        <pt x="383" y="129" on="1"/>
        <pt x="518" y="129" on="0"/>
        <pt x="692" y="223" on="0"/>
        <pt x="794" y="384" on="0"/>
        <pt x="837" y="598" on="0"/>
        <pt x="842" y="717" on="1"/>
        <pt x="829" y="717" on="1"/>
        <pt x="809" y="681" on="0"/>
        <pt x="753" y="619" on="0"/>
        <pt x="677" y="573" on="0"/>
        <pt x="581" y="547" on="0"/>
        <pt x="522" y="547" on="1"/>
        <pt x="427" y="547" on="0"/>
        <pt x="273" y="606" on="0"/>
        <pt x="165" y="720" on="0"/>
        <pt x="106" y="885" on="0"/>
        <pt x="106" y="991" on="1"/>
        <pt x="106" y="1105" on="0"/>
        <pt x="169" y="1288" on="0"/>
        <pt x="284" y="1415" on="0"/>
        <pt x="449" y="1483" on="0"/>
        <pt x="551" y="1483" on="1"/>
        <pt x="652" y="1483" on="0"/>
        <pt x="826" y="1405" on="0"/>
        <pt x="954" y="1245" on="0"/>
        <pt x="1028" y="1002" on="0"/>
      </contour>
      <contour>
        <pt x="553" y="1329" on="1"/>
        <pt x="493" y="1329" on="0"/>
        <pt x="394" y="1289" on="0"/>
        <pt x="322" y="1205" on="0"/>
        <pt x="283" y="1078" on="0"/>
        <pt x="283" y="991" on="1"/>
        <pt x="283" y="921" on="0"/>
        <pt x="316" y="810" on="0"/>
        <pt x="382" y="732" on="0"/>
        <pt x="481" y="690" on="0"/>
        <pt x="547" y="690" on="1"/>
        <pt x="615" y="690" on="0"/>
        <pt x="725" y="737" on="0"/>
        <pt x="803" y="812" on="0"/>
        <pt x="846" y="908" on="0"/>
        <pt x="846" y="956" on="1"/>
        <pt x="846" y="1023" on="0"/>
        <pt x="809" y="1156" on="0"/>
        <pt x="736" y="1263" on="0"/>
        <pt x="626" y="1329" on="0"/>
      </contour>
    </TTGlyph>
    <TTGlyph name="equal" xMin="102" yMin="442" xMax="1026" yMax="1001">
      <contour>
        <pt x="102" y="852" on="1"/>
        <pt x="102" y="1001" on="1"/>
        <pt x="1026" y="1001" on="1"/>
        <pt x="1026" y="852" on="1"/>
      </contour>
      <contour>
        <pt x="102" y="442" on="1"/>
        <pt x="102" y="592" on="1"/>
        <pt x="1026" y="592" on="1"/>
        <pt x="1026" y="442" on="1"/>
      </contour>
    </TTGlyph>
    <TTGlyph name="exclam" xMin="133" yMin="934" xMax="690" yMax="1462">
      <contour>
        <pt x="330" y="1462" on="1"/>
        <pt x="289" y="934" on="1"/>
        <pt x="174" y="934" on="1"/>
        <pt x="133" y="1462" on="1"/>
      </contour>
      <contour>
        <pt x="690" y="1462" on="1"/>
        <pt x="649" y="934" on="1"/>
        <pt x="535" y="934" on="1"/>
        <pt x="494" y="1462" on="1"/>
      </contour>
    </TTGlyph>
    <TTGlyph name="five" xMin="113" yMin="-20" xMax="1034" yMax="1483">
      <contour>
        <pt x="113" y="625" on="1"/>
        <pt x="113" y="730" on="0"/>
        <pt x="134" y="938" on="0"/>
        <pt x="187" y="1129" on="0"/>
        <pt x="279" y="1293" on="0"/>
        <pt x="421" y="1414" on="0"/>
        <pt x="619" y="1483" on="0"/>
        <pt x="752" y="1483" on="1"/>
        <pt x="771" y="1483" on="0"/>
        <pt x="817" y="1481" on="0"/>
        <pt x="864" y="1476" on="0"/>
        <pt x="907" y="1469" on="0"/>
        <pt x="924" y="1464" on="1"/>
        <pt x="924" y="1309" on="1"/>
        <pt x="889" y="1321" on="0"/>
        <pt x="801" y="1333" on="0"/>
        <pt x="758" y="1333" on="1"/>
        <pt x="668" y="1333" on="0"/>
        <pt x="531" y="1290" on="0"/>
        <pt x="431" y="1212" on="0"/>
        <pt x="364" y="1104" on="0"/>
        <pt x="322" y="973" on="0"/>
        <pt x="302" y="825" on="0"/>
        <pt x="299" y="745" on="1"/>
        <pt x="311" y="745" on="1"/>
        <pt x="331" y="781" on="0"/>
        <pt x="388" y="844" on="0"/>
        <pt x="464" y="889" on="0"/>
        <pt x="559" y="915" on="0"/>
        <pt x="618" y="915" on="1"/>
        <pt x="713" y="915" on="0"/>
        <pt x="867" y="856" on="0"/>
        <pt x="975" y="742" on="0"/>
        <pt x="1034" y="577" on="0"/>
        <pt x="1034" y="471" on="1"/>
        <pt x="1034" y="357" on="0"/>
        <pt x="972" y="175" on="0"/>
        <pt x="856" y="48" on="0"/>
        <pt x="692" y="-20" on="0"/>
        <pt x="590" y="-20" on="1"/>
        <pt x="490" y="-20" on="0"/>
        <pt x="315" y="58" on="0"/>
        <pt x="187" y="218" on="0"/>
        <pt x="113" y="460" on="0"/>
      </contour>
      <contour>
        <pt x="588" y="133" on="1"/>
        <pt x="648" y="133" on="0"/>
        <pt x="747" y="174" on="0"/>
        <pt x="819" y="257" on="0"/>
        <pt x="858" y="384" on="0"/>
        <pt x="858" y="471" on="1"/>
        <pt x="858" y="541" on="0"/>
        <pt x="825" y="652" on="0"/>
        <pt x="759" y="730" on="0"/>
        <pt x="660" y="772" on="0"/>
        <pt x="594" y="772" on="1"/>
        <pt x="527" y="772" on="0"/>
        <pt x="416" y="725" on="0"/>
        <pt x="338" y="650" on="0"/>
        <pt x="295" y="554" on="0"/>
        <pt x="295" y="506" on="1"/>
        <pt x="295" y="439" on="0"/>
        <pt x="332" y="306" on="0"/>
        <pt x="405" y="200" on="0"/>
        <pt x="515" y="133" on="0"/>
      </contour>
    </TTGlyph>
    <TTGlyph name="four" xMin="131" yMin="-20" xMax="1014" yMax="1462">
      <contour>
        <pt x="545" y="897" on="1"/>
        <pt x="644" y="897" on="0"/>
        <pt x="815" y="842" on="0"/>
        <pt x="942" y="734" on="0"/>
        <pt x="1014" y="574" on="0"/>
        <pt x="1014" y="469" on="1"/>
        <pt x="1014" y="355" on="0"/>
        <pt x="946" y="173" on="0"/>
        <pt x="812" y="47" on="0"/>
        <pt x="615" y="-20" on="0"/>
        <pt x="487" y="-20" on="1"/>
        <pt x="436" y="-20" on="0"/>
        <pt x="337" y="-10" on="0"/>
        <pt x="246" y="9" on="0"/>
        <pt x="164" y="39" on="0"/>
        <pt x="131" y="59" on="1"/>
        <pt x="131" y="231" on="1"/>
        <pt x="164" y="208" on="0"/>
        <pt x="253" y="172" on="0"/>
        <pt x="351" y="148" on="0"/>
        <pt x="450" y="135" on="0"/>
        <pt x="492" y="135" on="1"/>
        <pt x="571" y="135" on="0"/>
        <pt x="695" y="172" on="0"/>
        <pt x="781" y="250" on="0"/>
        <pt x="827" y="368" on="0"/>
        <pt x="827" y="449" on="1"/>
        <pt x="827" y="592" on="0"/>
        <pt x="651" y="743" on="0"/>
        <pt x="483" y="743" on="1"/>
        <pt x="456" y="743" on="0"/>
        <pt x="393" y="738" on="0"/>
        <pt x="330" y="730" on="0"/>
        <pt x="273" y="721" on="0"/>
        <pt x="252" y="717" on="1"/>
        <pt x="162" y="774" on="1"/>
        <pt x="217" y="1462" on="1"/>
        <pt x="907" y="1462" on="1"/>
        <pt x="907" y="1296" on="1"/>
        <pt x="375" y="1296" on="1"/>
        <pt x="336" y="877" on="1"/>
        <pt x="368" y="883" on="0"/>
        <pt x="473" y="897" on="0"/>
      </contour>
    </TTGlyph>
    <TTGlyph name="greater" xMin="102" yMin="238" xMax="1026" yMax="1245">
      <contour>
        <pt x="102" y="399" on="1"/>
        <pt x="838" y="721" on="1"/>
        <pt x="102" y="1085" on="1"/>
        <pt x="102" y="1245" on="1"/>
        <pt x="1026" y="764" on="1"/>
        <pt x="1026" y="662" on="1"/>
        <pt x="102" y="238" on="1"/>
      </contour>
    </TTGlyph>
    <TTGlyph name="hyphen" xMin="147" yMin="-29" xMax="401" yMax="250">
      <contour>
        <pt x="147" y="111" on="1"/>
        <pt x="147" y="149" on="0"/>
        <pt x="167" y="202" on="0"/>
        <pt x="201" y="235" on="0"/>
        <pt x="247" y="250" on="0"/>
        <pt x="274" y="250" on="1"/>
        <pt x="300" y="250" on="0"/>
        <pt x="347" y="235" on="0"/>
        <pt x="381" y="202" on="0"/>
        <pt x="401" y="149" on="0"/>
        <pt x="401" y="111" on="1"/>
        <pt x="401" y="74" on="0"/>
        <pt x="381" y="21" on="0"/>
        <pt x="347" y="-13" on="0"/>
        <pt x="300" y="-29" on="0"/>
        <pt x="274" y="-29" on="1"/>
        <pt x="247" y="-29" on="0"/>
        <pt x="201" y="-13" on="0"/>
        <pt x="167" y="21" on="0"/>
        <pt x="147" y="74" on="0"/>
      </contour>
    </TTGlyph>
    <TTGlyph name="less" xMin="102" yMin="238" xMax="1026" yMax="1245">
      <contour>
        <pt x="1026" y="238" on="1"/>
        <pt x="102" y="662" on="1"/>
        <pt x="102" y="764" on="1"/>
        <pt x="1026" y="1245" on="1"/>
        <pt x="1026" y="1085" on="1"/>
        <pt x="291" y="721" on="1"/>
        <pt x="1026" y="399" on="1"/>
      </contour>
    </TTGlyph>
    <TTGlyph name="nine" xMin="147" yMin="-29" xMax="401" yMax="1126">
      <contour>
        <pt x="147" y="111" on="1"/>
        <pt x="147" y="149" on="0"/>
        <pt x="167" y="202" on="0"/>
        <pt x="201" y="235" on="0"/>
        <pt x="247" y="250" on="0"/>
        <pt x="274" y="250" on="1"/>
        <pt x="300" y="250" on="0"/>
        <pt x="347" y="235" on="0"/>
        <pt x="381" y="202" on="0"/>
        <pt x="401" y="149" on="0"/>
        <pt x="401" y="111" on="1"/>
        <pt x="401" y="74" on="0"/>
        <pt x="381" y="21" on="0"/>
        <pt x="347" y="-13" on="0"/>
        <pt x="300" y="-29" on="0"/>
        <pt x="274" y="-29" on="1"/>
        <pt x="247" y="-29" on="0"/>
        <pt x="201" y="-13" on="0"/>
        <pt x="167" y="21" on="0"/>
        <pt x="147" y="74" on="0"/>
      </contour>
      <contour>
        <pt x="147" y="987" on="1"/>
        <pt x="147" y="1026" on="0"/>
        <pt x="167" y="1079" on="0"/>
        <pt x="201" y="1112" on="0"/>
        <pt x="247" y="1126" on="0"/>
        <pt x="274" y="1126" on="1"/>
        <pt x="300" y="1126" on="0"/>
        <pt x="347" y="1112" on="0"/>
        <pt x="381" y="1079" on="0"/>
        <pt x="401" y="1026" on="0"/>
        <pt x="401" y="987" on="1"/>
        <pt x="401" y="950" on="0"/>
        <pt x="381" y="898" on="0"/>
        <pt x="347" y="864" on="0"/>
        <pt x="300" y="848" on="0"/>
        <pt x="274" y="848" on="1"/>
        <pt x="247" y="848" on="0"/>
        <pt x="201" y="864" on="0"/>
        <pt x="167" y="898" on="0"/>
        <pt x="147" y="950" on="0"/>
      </contour>
    </TTGlyph>
    <TTGlyph name="numbersign" xMin="123" yMin="-119" xMax="985" yMax="1554">
      <contour>
        <pt x="985" y="446" on="1"/>
        <pt x="985" y="376" on="0"/>
        <pt x="935" y="262" on="0"/>
        <pt x="842" y="178" on="0"/>
        <pt x="709" y="123" on="0"/>
        <pt x="625" y="111" on="1"/>
        <pt x="625" y="-119" on="1"/>
        <pt x="487" y="-119" on="1"/>
        <pt x="487" y="102" on="1"/>
        <pt x="437" y="102" on="0"/>
        <pt x="335" y="111" on="0"/>
        <pt x="239" y="129" on="0"/>
        <pt x="155" y="155" on="0"/>
        <pt x="123" y="172" on="1"/>
        <pt x="123" y="344" on="1"/>
        <pt x="156" y="328" on="0"/>
        <pt x="243" y="295" on="0"/>
        <pt x="339" y="269" on="0"/>
        <pt x="440" y="252" on="0"/>
        <pt x="487" y="252" on="1"/>
        <pt x="487" y="686" on="1"/>
        <pt x="398" y="716" on="0"/>
        <pt x="267" y="782" on="0"/>
        <pt x="181" y="867" on="0"/>
        <pt x="139" y="977" on="0"/>
        <pt x="139" y="1051" on="1"/>
        <pt x="139" y="1118" on="0"/>
        <pt x="188" y="1229" on="0"/>
        <pt x="279" y="1312" on="0"/>
        <pt x="408" y="1365" on="0"/>
        <pt x="487" y="1374" on="1"/>
        <pt x="487" y="1554" on="1"/>
        <pt x="625" y="1554" on="1"/>
        <pt x="625" y="1378" on="1"/>
        <pt x="725" y="1373" on="0"/>
        <pt x="894" y="1331" on="0"/>
        <pt x="961" y="1300" on="1"/>
        <pt x="895" y="1155" on="1"/>
        <pt x="839" y="1180" on="0"/>
        <pt x="699" y="1221" on="0"/>
        <pt x="625" y="1227" on="1"/>
        <pt x="625" y="805" on="1"/>
        <pt x="713" y="774" on="0"/>
        <pt x="848" y="708" on="0"/>
        <pt x="939" y="625" on="0"/>
        <pt x="985" y="518" on="0"/>
      </contour>
      <contour>
        <pt x="809" y="446" on="1"/>
        <pt x="809" y="479" on="0"/>
        <pt x="789" y="534" on="0"/>
        <pt x="746" y="579" on="0"/>
        <pt x="676" y="617" on="0"/>
        <pt x="625" y="635" on="1"/>
        <pt x="625" y="262" on="1"/>
        <pt x="718" y="276" on="0"/>
        <pt x="809" y="374" on="0"/>
      </contour>
      <contour>
        <pt x="315" y="1049" on="1"/>
        <pt x="315" y="1013" on="0"/>
        <pt x="332" y="956" on="0"/>
        <pt x="372" y="909" on="0"/>
        <pt x="438" y="871" on="0"/>
        <pt x="487" y="854" on="1"/>
        <pt x="487" y="1223" on="1"/>
        <pt x="398" y="1207" on="0"/>
        <pt x="315" y="1118" on="0"/>
      </contour>
    </TTGlyph>
    <TTGlyph name="one" xMin="96" yMin="0" xMax="1008" yMax="1483">
      <contour>
        <pt x="1008" y="0" on="1"/>
        <pt x="96" y="0" on="1"/>
        <pt x="96" y="156" on="1"/>
        <pt x="446" y="537" on="1"/>
        <pt x="521" y="618" on="0"/>
        <pt x="639" y="752" on="0"/>
        <pt x="722" y="880" on="0"/>
        <pt x="766" y="1009" on="0"/>
        <pt x="766" y="1085" on="1"/>
        <pt x="766" y="1144" on="0"/>
        <pt x="732" y="1234" on="0"/>
        <pt x="669" y="1297" on="0"/>
        <pt x="583" y="1329" on="0"/>
        <pt x="530" y="1329" on="1"/>
        <pt x="435" y="1329" on="0"/>
        <pt x="282" y="1252" on="0"/>
        <pt x="213" y="1192" on="1"/>
        <pt x="111" y="1311" on="1"/>
        <pt x="151" y="1347" on="0"/>
        <pt x="243" y="1410" on="0"/>
        <pt x="349" y="1456" on="0"/>
        <pt x="467" y="1483" on="0"/>
        <pt x="532" y="1483" on="1"/>
        <pt x="628" y="1483" on="0"/>
        <pt x="783" y="1429" on="0"/>
        <pt x="891" y="1328" on="0"/>
        <pt x="950" y="1183" on="0"/>
        <pt x="950" y="1092" on="1"/>
        <pt x="950" y="1007" on="0"/>
        <pt x="897" y="853" on="0"/>
        <pt x="804" y="704" on="0"/>
        <pt x="675" y="554" on="0"/>
        <pt x="600" y="473" on="1"/>
        <pt x="319" y="174" on="1"/>
        <pt x="319" y="166" on="1"/>
        <pt x="1008" y="166" on="1"/>
      </contour>
    </TTGlyph>
    <TTGlyph name="parenleft" xMin="61" yMin="-324" xMax="535" yMax="1462">
      <contour>
        <pt x="535" y="561" on="1"/>
        <pt x="535" y="437" on="0"/>
        <pt x="499" y="197" on="0"/>
        <pt x="424" y="-28" on="0"/>
        <pt x="311" y="-234" on="0"/>
        <pt x="233" y="-324" on="1"/>
        <pt x="63" y="-324" on="1"/>
        <pt x="132" y="-230" on="0"/>
        <pt x="238" y="-18" on="0"/>
        <pt x="310" y="208" on="0"/>
        <pt x="346" y="444" on="0"/>
        <pt x="346" y="563" on="1"/>
        <pt x="346" y="807" on="0"/>
        <pt x="202" y="1269" on="0"/>
        <pt x="61" y="1462" on="1"/>
        <pt x="233" y="1462" on="1"/>
        <pt x="311" y="1369" on="0"/>
        <pt x="424" y="1158" on="0"/>
        <pt x="499" y="929" on="0"/>
        <pt x="535" y="686" on="0"/>
      </contour>
    </TTGlyph>
    <TTGlyph name="parenright" xMin="82" yMin="631" xMax="1044" yMax="1556">
      <contour>
        <pt x="664" y="1556" on="1"/>
        <pt x="621" y="1163" on="1"/>
        <pt x="1018" y="1274" on="1"/>
        <pt x="1044" y="1081" on="1"/>
        <pt x="666" y="1053" on="1"/>
        <pt x="911" y="727" on="1"/>
        <pt x="733" y="631" on="1"/>
        <pt x="557" y="989" on="1"/>
        <pt x="399" y="631" on="1"/>
        <pt x="215" y="727" on="1"/>
        <pt x="457" y="1053" on="1"/>
        <pt x="82" y="1081" on="1"/>
        <pt x="111" y="1274" on="1"/>
        <pt x="502" y="1163" on="1"/>
        <pt x="459" y="1556" on="1"/>
      </contour>
    </TTGlyph>
    <TTGlyph name="percent" xMin="109" yMin="-20" xMax="1405" yMax="1485">
      <contour>
        <pt x="422" y="1165" on="1"/>
        <pt x="422" y="1131" on="0"/>
        <pt x="438" y="1066" on="0"/>
        <pt x="471" y="1001" on="0"/>
        <pt x="523" y="934" on="0"/>
        <pt x="559" y="897" on="1"/>
        <pt x="618" y="932" on="0"/>
        <pt x="704" y="994" on="0"/>
        <pt x="760" y="1058" on="0"/>
        <pt x="788" y="1128" on="0"/>
        <pt x="788" y="1169" on="1"/>
        <pt x="788" y="1205" on="0"/>
        <pt x="763" y="1266" on="0"/>
        <pt x="716" y="1310" on="0"/>
        <pt x="650" y="1335" on="0"/>
        <pt x="608" y="1335" on="1"/>
        <pt x="522" y="1335" on="0"/>
        <pt x="422" y="1246" on="0"/>
      </contour>
      <contour>
        <pt x="557" y="141" on="1"/>
        <pt x="615" y="141" on="0"/>
        <pt x="713" y="164" on="0"/>
        <pt x="797" y="204" on="0"/>
        <pt x="869" y="258" on="0"/>
        <pt x="901" y="289" on="1"/>
        <pt x="514" y="696" on="1"/>
        <pt x="462" y="663" on="0"/>
        <pt x="382" y="600" on="0"/>
        <pt x="327" y="528" on="0"/>
        <pt x="299" y="443" on="0"/>
        <pt x="299" y="387" on="1"/>
        <pt x="299" y="333" on="0"/>
        <pt x="334" y="242" on="0"/>
        <pt x="400" y="177" on="0"/>
        <pt x="496" y="141" on="0"/>
      </contour>
      <contour>
        <pt x="109" y="381" on="1"/>
        <pt x="109" y="459" on="0"/>
        <pt x="149" y="581" on="0"/>
        <pt x="226" y="681" on="0"/>
        <pt x="337" y="767" on="0"/>
        <pt x="408" y="809" on="1"/>
        <pt x="377" y="845" on="0"/>
        <pt x="317" y="922" on="0"/>
        <pt x="272" y="1009" on="0"/>
        <pt x="244" y="1108" on="0"/>
        <pt x="244" y="1165" on="1"/>
        <pt x="244" y="1240" on="0"/>
        <pt x="294" y="1359" on="0"/>
        <pt x="388" y="1442" on="0"/>
        <pt x="526" y="1485" on="0"/>
        <pt x="614" y="1485" on="1"/>
        <pt x="697" y="1485" on="0"/>
        <pt x="828" y="1442" on="0"/>
        <pt x="919" y="1359" on="0"/>
        <pt x="967" y="1240" on="0"/>
        <pt x="967" y="1165" on="1"/>
        <pt x="967" y="1101" on="0"/>
        <pt x="917" y="992" on="0"/>
        <pt x="833" y="899" on="0"/>
        <pt x="724" y="820" on="0"/>
        <pt x="664" y="784" on="1"/>
        <pt x="1016" y="412" on="1"/>
        <pt x="1043" y="441" on="0"/>
        <pt x="1086" y="501" on="0"/>
        <pt x="1120" y="569" on="0"/>
        <pt x="1147" y="647" on="0"/>
        <pt x="1157" y="694" on="1"/>
        <pt x="1341" y="694" on="1"/>
        <pt x="1326" y="628" on="0"/>
        <pt x="1285" y="517" on="0"/>
        <pt x="1232" y="419" on="0"/>
        <pt x="1167" y="334" on="0"/>
        <pt x="1128" y="293" on="1"/>
        <pt x="1405" y="0" on="1"/>
        <pt x="1180" y="0" on="1"/>
        <pt x="1012" y="172" on="1"/>
        <pt x="963" y="127" on="0"/>
        <pt x="867" y="56" on="0"/>
        <pt x="759" y="7" on="0"/>
        <pt x="635" y="-20" on="0"/>
        <pt x="557" y="-20" on="1"/>
        <pt x="452" y="-20" on="0"/>
        <pt x="285" y="33" on="0"/>
        <pt x="170" y="136" on="0"/>
        <pt x="109" y="285" on="0"/>
      </contour>
    </TTGlyph>
    <TTGlyph name="period" xMin="20" yMin="0" xMax="743" yMax="1462">
      <contour>
        <pt x="743" y="1462" on="1"/>
        <pt x="199" y="0" on="1"/>
        <pt x="20" y="0" on="1"/>
        <pt x="565" y="1462" on="1"/>
      </contour>
    </TTGlyph>
    <TTGlyph name="plus" xMin="63" yMin="-264" xMax="377" yMax="238">
      <contour>
        <pt x="362" y="238" on="1"/>
        <pt x="377" y="215" on="1"/>
        <pt x="363" y="161" on="0"/>
        <pt x="324" y="39" on="0"/>
        <pt x="277" y="-85" on="0"/>
        <pt x="226" y="-208" on="0"/>
        <pt x="201" y="-264" on="1"/>
        <pt x="63" y="-264" on="1"/>
        <pt x="78" y="-203" on="0"/>
        <pt x="107" y="-71" on="0"/>
        <pt x="134" y="60" on="0"/>
        <pt x="156" y="185" on="0"/>
        <pt x="164" y="238" on="1"/>
      </contour>
    </TTGlyph>
    <TTGlyph name="question" xMin="37" yMin="-29" xMax="805" yMax="1483">
      <contour>
        <pt x="281" y="414" on="1"/>
        <pt x="281" y="451" on="1"/>
        <pt x="281" y="508" on="0"/>
        <pt x="296" y="600" on="0"/>
        <pt x="335" y="680" on="0"/>
        <pt x="401" y="757" on="0"/>
        <pt x="451" y="799" on="1"/>
        <pt x="499" y="840" on="0"/>
        <pt x="567" y="907" on="0"/>
        <pt x="610" y="976" on="0"/>
        <pt x="631" y="1055" on="0"/>
        <pt x="631" y="1108" on="1"/>
        <pt x="631" y="1156" on="0"/>
        <pt x="601" y="1235" on="0"/>
        <pt x="544" y="1292" on="0"/>
        <pt x="459" y="1323" on="0"/>
        <pt x="403" y="1323" on="1"/>
        <pt x="320" y="1323" on="0"/>
        <pt x="170" y="1271" on="0"/>
        <pt x="100" y="1237" on="1"/>
        <pt x="37" y="1382" on="1"/>
        <pt x="118" y="1424" on="0"/>
        <pt x="306" y="1483" on="0"/>
        <pt x="403" y="1483" on="1"/>
        <pt x="496" y="1483" on="0"/>
        <pt x="645" y="1432" on="0"/>
        <pt x="749" y="1336" on="0"/>
        <pt x="805" y="1197" on="0"/>
        <pt x="805" y="1110" on="1"/>
        <pt x="805" y="1043" on="0"/>
        <pt x="778" y="938" on="0"/>
        <pt x="724" y="848" on="0"/>
        <pt x="644" y="764" on="0"/>
        <pt x="590" y="717" on="1"/>
        <pt x="538" y="672" on="0"/>
        <pt x="472" y="605" on="0"/>
        <pt x="434" y="542" on="0"/>
        <pt x="420" y="476" on="0"/>
        <pt x="420" y="432" on="1"/>
        <pt x="420" y="414" on="1"/>
      </contour>
      <contour>
        <pt x="233" y="111" on="1"/>
        <pt x="233" y="149" on="0"/>
        <pt x="253" y="202" on="0"/>
        <pt x="287" y="235" on="0"/>
        <pt x="333" y="250" on="0"/>
        <pt x="360" y="250" on="1"/>
        <pt x="386" y="250" on="0"/>
        <pt x="433" y="235" on="0"/>
        <pt x="467" y="202" on="0"/>
        <pt x="487" y="149" on="0"/>
        <pt x="487" y="111" on="1"/>
        <pt x="487" y="74" on="0"/>
        <pt x="467" y="21" on="0"/>
        <pt x="433" y="-13" on="0"/>
        <pt x="386" y="-29" on="0"/>
        <pt x="360" y="-29" on="1"/>
        <pt x="333" y="-29" on="0"/>
        <pt x="287" y="-13" on="0"/>
        <pt x="253" y="21" on="0"/>
        <pt x="233" y="74" on="0"/>
      </contour>
    </TTGlyph>
    <TTGlyph name="quotedbl" xMin="51" yMin="0" xMax="1272" yMax="1462">
      <contour>
        <pt x="983" y="893" on="1"/>
        <pt x="920" y="565" on="1"/>
        <pt x="1200" y="565" on="1"/>
        <pt x="1200" y="428" on="1"/>
        <pt x="893" y="428" on="1"/>
        <pt x="811" y="0" on="1"/>
        <pt x="664" y="0" on="1"/>
        <pt x="748" y="428" on="1"/>
        <pt x="457" y="428" on="1"/>
        <pt x="375" y="0" on="1"/>
        <pt x="231" y="0" on="1"/>
        <pt x="309" y="428" on="1"/>
        <pt x="51" y="428" on="1"/>
        <pt x="51" y="565" on="1"/>
        <pt x="336" y="565" on="1"/>
        <pt x="401" y="893" on="1"/>
        <pt x="127" y="893" on="1"/>
        <pt x="127" y="1030" on="1"/>
        <pt x="426" y="1030" on="1"/>
        <pt x="508" y="1462" on="1"/>
        <pt x="655" y="1462" on="1"/>
        <pt x="573" y="1030" on="1"/>
        <pt x="866" y="1030" on="1"/>
        <pt x="950" y="1462" on="1"/>
        <pt x="1094" y="1462" on="1"/>
        <pt x="1010" y="1030" on="1"/>
        <pt x="1272" y="1030" on="1"/>
        <pt x="1272" y="893" on="1"/>
      </contour>
      <contour>
        <pt x="483" y="565" on="1"/>
        <pt x="774" y="565" on="1"/>
        <pt x="838" y="893" on="1"/>
        <pt x="547" y="893" on="1"/>
      </contour>
    </TTGlyph>
    <TTGlyph name="quotesingle" xMin="82" yMin="-324" xMax="555" yMax="1462">
      <contour>
        <pt x="82" y="561" on="1"/>
        <pt x="82" y="686" on="0"/>
        <pt x="118" y="929" on="0"/>
        <pt x="192" y="1158" on="0"/>
        <pt x="305" y="1369" on="0"/>
        <pt x="383" y="1462" on="1"/>
        <pt x="555" y="1462" on="1"/>
        <pt x="415" y="1269" on="0"/>
        <pt x="270" y="807" on="0"/>
        <pt x="270" y="563" on="1"/>
        <pt x="270" y="444" on="0"/>
        <pt x="307" y="208" on="0"/>
        <pt x="378" y="-18" on="0"/>
        <pt x="484" y="-230" on="0"/>
        <pt x="553" y="-324" on="1"/>
        <pt x="383" y="-324" on="1"/>
        <pt x="305" y="-234" on="0"/>
        <pt x="192" y="-28" on="0"/>
        <pt x="118" y="197" on="0"/>
        <pt x="82" y="437" on="0"/>
      </contour>
    </TTGlyph>
    <TTGlyph name="seven" xMin="106" yMin="-20" xMax="1024" yMax="1485">
      <contour>
        <pt x="565" y="1485" on="1"/>
        <pt x="649" y="1485" on="0"/>
        <pt x="798" y="1441" on="0"/>
        <pt x="911" y="1353" on="0"/>
        <pt x="977" y="1221" on="0"/>
        <pt x="977" y="1133" on="1"/>
        <pt x="977" y="1066" on="0"/>
        <pt x="937" y="958" on="0"/>
        <pt x="867" y="871" on="0"/>
        <pt x="771" y="802" on="0"/>
        <pt x="715" y="774" on="1"/>
        <pt x="773" y="743" on="0"/>
        <pt x="884" y="667" on="0"/>
        <pt x="971" y="572" on="0"/>
        <pt x="1024" y="454" on="0"/>
        <pt x="1024" y="381" on="1"/>
        <pt x="1024" y="289" on="0"/>
        <pt x="957" y="140" on="0"/>
        <pt x="836" y="36" on="0"/>
        <pt x="667" y="-20" on="0"/>
        <pt x="565" y="-20" on="1"/>
        <pt x="455" y="-20" on="0"/>
        <pt x="284" y="34" on="0"/>
        <pt x="167" y="135" on="0"/>
        <pt x="106" y="281" on="0"/>
        <pt x="106" y="373" on="1"/>
        <pt x="106" y="448" on="0"/>
        <pt x="151" y="568" on="0"/>
        <pt x="227" y="664" on="0"/>
        <pt x="331" y="738" on="0"/>
        <pt x="389" y="766" on="1"/>
        <pt x="340" y="797" on="0"/>
        <pt x="254" y="870" on="0"/>
        <pt x="191" y="960" on="0"/>
        <pt x="154" y="1069" on="0"/>
        <pt x="154" y="1135" on="1"/>
        <pt x="154" y="1222" on="0"/>
        <pt x="221" y="1353" on="0"/>
        <pt x="335" y="1441" on="0"/>
        <pt x="484" y="1485" on="0"/>
      </contour>
      <contour>
        <pt x="285" y="371" on="1"/>
        <pt x="285" y="318" on="0"/>
        <pt x="317" y="229" on="0"/>
        <pt x="385" y="166" on="0"/>
        <pt x="489" y="131" on="0"/>
        <pt x="561" y="131" on="1"/>
        <pt x="631" y="131" on="0"/>
        <pt x="738" y="166" on="0"/>
        <pt x="810" y="231" on="0"/>
        <pt x="846" y="323" on="0"/>
        <pt x="846" y="379" on="1"/>
        <pt x="846" y="431" on="0"/>
        <pt x="807" y="515" on="0"/>
        <pt x="734" y="587" on="0"/>
        <pt x="632" y="651" on="0"/>
        <pt x="569" y="682" on="1"/>
        <pt x="539" y="696" on="1"/>
        <pt x="413" y="636" on="0"/>
        <pt x="285" y="481" on="0"/>
      </contour>
      <contour>
        <pt x="563" y="1333" on="1"/>
        <pt x="457" y="1333" on="0"/>
        <pt x="332" y="1227" on="0"/>
        <pt x="332" y="1126" on="1"/>
        <pt x="332" y="1069" on="0"/>
        <pt x="367" y="987" on="0"/>
        <pt x="429" y="923" on="0"/>
        <pt x="516" y="872" on="0"/>
        <pt x="567" y="848" on="1"/>
        <pt x="615" y="870" on="0"/>
        <pt x="700" y="922" on="0"/>
        <pt x="763" y="988" on="0"/>
        <pt x="799" y="1072" on="0"/>
        <pt x="799" y="1126" on="1"/>
        <pt x="799" y="1227" on="0"/>
        <pt x="673" y="1333" on="0"/>
      </contour>
    </TTGlyph>
    <TTGlyph name="six" xMin="90" yMin="0" xMax="1030" yMax="1462">
      <contour>
        <pt x="281" y="0" on="1"/>
        <pt x="844" y="1296" on="1"/>
        <pt x="90" y="1296" on="1"/>
        <pt x="90" y="1462" on="1"/>
        <pt x="1030" y="1462" on="1"/>
        <pt x="1030" y="1317" on="1"/>
        <pt x="475" y="0" on="1"/>
      </contour>
    </TTGlyph>
    <TTGlyph name="slash" xMin="98" yMin="-20" xMax="1032" yMax="1485">
      <contour>
        <pt x="1032" y="733" on="1"/>
        <pt x="1032" y="556" on="0"/>
        <pt x="981" y="276" on="0"/>
        <pt x="868" y="82" on="0"/>
        <pt x="690" y="-20" on="0"/>
        <pt x="563" y="-20" on="1"/>
        <pt x="445" y="-20" on="0"/>
        <pt x="270" y="82" on="0"/>
        <pt x="155" y="276" on="0"/>
        <pt x="98" y="556" on="0"/>
        <pt x="98" y="733" on="1"/>
        <pt x="98" y="910" on="0"/>
        <pt x="149" y="1190" on="0"/>
        <pt x="260" y="1383" on="0"/>
        <pt x="437" y="1485" on="0"/>
        <pt x="563" y="1485" on="1"/>
        <pt x="682" y="1485" on="0"/>
        <pt x="858" y="1384" on="0"/>
        <pt x="974" y="1191" on="0"/>
        <pt x="1032" y="911" on="0"/>
      </contour>
      <contour>
        <pt x="283" y="733" on="1"/>
        <pt x="283" y="583" on="0"/>
        <pt x="313" y="359" on="0"/>
        <pt x="379" y="210" on="0"/>
        <pt x="486" y="135" on="0"/>
        <pt x="563" y="135" on="1"/>
        <pt x="640" y="135" on="0"/>
        <pt x="748" y="209" on="0"/>
        <pt x="817" y="357" on="0"/>
        <pt x="848" y="582" on="0"/>
        <pt x="848" y="733" on="1"/>
        <pt x="848" y="883" on="0"/>
        <pt x="817" y="1107" on="0"/>
        <pt x="748" y="1255" on="0"/>
        <pt x="640" y="1329" on="0"/>
        <pt x="563" y="1329" on="1"/>
        <pt x="486" y="1329" on="0"/>
        <pt x="379" y="1255" on="0"/>
        <pt x="313" y="1107" on="0"/>
        <pt x="283" y="883" on="0"/>
      </contour>
    </TTGlyph>
    <TTGlyph name="space" xMin="147" yMin="-29" xMax="401" yMax="1462">
      <contour>
        <pt x="336" y="414" on="1"/>
        <pt x="215" y="414" on="1"/>
        <pt x="164" y="1462" on="1"/>
        <pt x="387" y="1462" on="1"/>
      </contour>
      <contour>
        <pt x="147" y="111" on="1"/>
        <pt x="147" y="149" on="0"/>
        <pt x="167" y="202" on="0"/>
        <pt x="201" y="235" on="0"/>
        <pt x="247" y="250" on="0"/>
        <pt x="274" y="250" on="1"/>
        <pt x="300" y="250" on="0"/>
        <pt x="347" y="235" on="0"/>
        <pt x="381" y="202" on="0"/>
        <pt x="401" y="149" on="0"/>
        <pt x="401" y="111" on="1"/>
        <pt x="401" y="74" on="0"/>
        <pt x="381" y="21" on="0"/>
        <pt x="347" y="-13" on="0"/>
        <pt x="300" y="-29" on="0"/>
        <pt x="274" y="-29" on="1"/>
        <pt x="247" y="-29" on="0"/>
        <pt x="201" y="-13" on="0"/>
        <pt x="167" y="21" on="0"/>
        <pt x="147" y="74" on="0"/>
      </contour>
    </TTGlyph>
    <TTGlyph name="three" xMin="23" yMin="0" xMax="1087" yMax="1470">
      <contour>
        <pt x="1087" y="328" on="1"/>
        <pt x="874" y="328" on="1"/>
        <pt x="874" y="0" on="1"/>
        <pt x="698" y="0" on="1"/>
        <pt x="698" y="328" on="1"/>
        <pt x="23" y="328" on="1"/>
        <pt x="23" y="487" on="1"/>
        <pt x="686" y="1470" on="1"/>
        <pt x="874" y="1470" on="1"/>
        <pt x="874" y="494" on="1"/>
        <pt x="1087" y="494" on="1"/>
      </contour>
      <contour>
        <pt x="698" y="494" on="1"/>
        <pt x="698" y="850" on="1"/>
        <pt x="698" y="906" on="0"/>
        <pt x="701" y="1029" on="0"/>
        <pt x="705" y="1146" on="0"/>
        <pt x="710" y="1248" on="0"/>
        <pt x="711" y="1282" on="1"/>
        <pt x="702" y="1282" on="1"/>
        <pt x="695" y="1262" on="0"/>
        <pt x="674" y="1213" on="0"/>
        <pt x="649" y="1164" on="0"/>
        <pt x="623" y="1118" on="0"/>
        <pt x="612" y="1102" on="1"/>
        <pt x="201" y="494" on="1"/>
      </contour>
    </TTGlyph>
    <TTGlyph name="two" xMin="82" yMin="-20" xMax="1006" yMax="1483">
      <contour>
        <pt x="961" y="1120" on="1"/>
        <pt x="961" y="1047" on="0"/>
        <pt x="915" y="927" on="0"/>
        <pt x="832" y="839" on="0"/>
        <pt x="716" y="782" on="0"/>
        <pt x="645" y="770" on="1"/>
        <pt x="645" y="764" on="1"/>
        <pt x="822" y="742" on="0"/>
        <pt x="1006" y="561" on="0"/>
        <pt x="1006" y="416" on="1"/>
        <pt x="1006" y="320" on="0"/>
        <pt x="941" y="160" on="0"/>
        <pt x="809" y="44" on="0"/>
        <pt x="607" y="-20" on="0"/>
        <pt x="469" y="-20" on="1"/>
        <pt x="360" y="-20" on="0"/>
        <pt x="167" y="14" on="0"/>
        <pt x="82" y="59" on="1"/>
        <pt x="82" y="229" on="1"/>
        <pt x="169" y="183" on="0"/>
        <pt x="372" y="133" on="0"/>
        <pt x="465" y="133" on="1"/>
        <pt x="557" y="133" on="0"/>
        <pt x="691" y="173" on="0"/>
        <pt x="778" y="247" on="0"/>
        <pt x="819" y="355" on="0"/>
        <pt x="819" y="422" on="1"/>
        <pt x="819" y="490" on="0"/>
        <pt x="766" y="587" on="0"/>
        <pt x="668" y="650" on="0"/>
        <pt x="527" y="680" on="0"/>
        <pt x="438" y="680" on="1"/>
        <pt x="305" y="680" on="1"/>
        <pt x="305" y="831" on="1"/>
        <pt x="438" y="831" on="1"/>
        <pt x="519" y="831" on="0"/>
        <pt x="645" y="871" on="0"/>
        <pt x="730" y="945" on="0"/>
        <pt x="774" y="1047" on="0"/>
        <pt x="774" y="1108" on="1"/>
        <pt x="774" y="1160" on="0"/>
        <pt x="738" y="1242" on="0"/>
        <pt x="672" y="1299" on="0"/>
        <pt x="580" y="1329" on="0"/>
        <pt x="524" y="1329" on="1"/>
        <pt x="417" y="1329" on="0"/>
        <pt x="254" y="1262" on="0"/>
        <pt x="180" y="1208" on="1"/>
        <pt x="88" y="1333" on="1"/>
        <pt x="126" y="1364" on="0"/>
        <pt x="219" y="1418" on="0"/>
        <pt x="329" y="1459" on="0"/>
        <pt x="454" y="1483" on="0"/>
        <pt x="524" y="1483" on="1"/>
        <pt x="632" y="1483" on="0"/>
        <pt x="795" y="1429" on="0"/>
        <pt x="905" y="1332" on="0"/>
        <pt x="961" y="1199" on="0"/>
      </contour>
    </TTGlyph>
    <TTGlyph name="uni0E81" xMin="147" yMin="0" xMax="1229" yMax="1140">
      <contour>
        <pt x="378" y="94" on="0"/>
        <pt x="378" y="155" on="1"/>
        <pt x="378" y="215" on="0"/>
        <pt x="314" y="215" on="1"/>
        <pt x="250" y="215" on="0"/>
        <pt x="250" y="155" on="1"/>
        <pt x="250" y="94" on="0"/>
        <pt x="314" y="94" on="1"/>
      </contour>
      <contour>
        <pt x="309" y="1044" on="1"/>
        <pt x="249" y="1044" on="0"/>
        <pt x="249" y="1001" on="1"/>
        <pt x="249" y="956" on="0"/>
        <pt x="290" y="950" on="1"/>
        <pt x="297" y="949" on="0"/>
        <pt x="305" y="949" on="1"/>
        <pt x="339" y="949" on="0"/>
        <pt x="378" y="974" on="1"/>
        <pt x="370" y="1038" on="0"/>
      </contour>
      <contour>
        <pt x="513" y="171" on="1"/>
        <pt x="506" y="13" on="0"/>
        <pt x="321" y="0" on="1"/>
        <pt x="156" y="3" on="0"/>
        <pt x="147" y="161" on="1"/>
        <pt x="163" y="291" on="0"/>
        <pt x="276" y="317" on="1"/>
        <pt x="297" y="320" on="0"/>
        <pt x="314" y="320" on="1"/>
        <pt x="355" y="320" on="0"/>
        <pt x="378" y="304" on="1"/>
        <pt x="378" y="843" on="1"/>
        <pt x="346" y="839" on="0"/>
        <pt x="316" y="835" on="1"/>
        <pt x="147" y="849" on="0"/>
        <pt x="147" y="993" on="1"/>
        <pt x="147" y="1135" on="0"/>
        <pt x="303" y="1140" on="1"/>
        <pt x="442" y="1140" on="0"/>
        <pt x="513" y="1032" on="1"/>
        <pt x="677" y="1135" on="0"/>
        <pt x="841" y="1140" on="1"/>
        <pt x="1201" y="1131" on="0"/>
        <pt x="1229" y="867" on="1"/>
        <pt x="1229" y="35" on="1"/>
        <pt x="1229" y="0" on="0"/>
        <pt x="1162" y="0" on="1"/>
        <pt x="1094" y="0" on="0"/>
        <pt x="1094" y="42" on="1"/>
        <pt x="1094" y="864" on="1"/>
        <pt x="1093" y="998" on="0"/>
        <pt x="841" y="1015" on="1"/>
        <pt x="670" y="993" on="0"/>
        <pt x="533" y="913" on="0"/>
        <pt x="513" y="892" on="1"/>
      </contour>
    </TTGlyph>
    <TTGlyph name="uni0E81.am" xMin="147" yMin="0" xMax="1229" yMax="1672">
      <contour>
        <pt x="378" y="94" on="0"/>
        <pt x="378" y="155" on="1"/>
        <pt x="378" y="215" on="0"/>
        <pt x="314" y="215" on="1"/>
        <pt x="250" y="215" on="0"/>
        <pt x="250" y="155" on="1"/>
        <pt x="250" y="94" on="0"/>
        <pt x="314" y="94" on="1"/>
      </contour>
      <contour>
        <pt x="309" y="1044" on="1"/>
        <pt x="249" y="1044" on="0"/>
        <pt x="249" y="1001" on="1"/>
        <pt x="249" y="956" on="0"/>
        <pt x="290" y="950" on="1"/>
        <pt x="297" y="949" on="0"/>
        <pt x="305" y="949" on="1"/>
        <pt x="339" y="949" on="0"/>
        <pt x="378" y="974" on="1"/>
        <pt x="370" y="1038" on="0"/>
      </contour>
      <contour>
        <pt x="513" y="171" on="1"/>
        <pt x="506" y="13" on="0"/>
        <pt x="321" y="0" on="1"/>
        <pt x="156" y="3" on="0"/>
        <pt x="147" y="161" on="1"/>
        <pt x="163" y="291" on="0"/>
        <pt x="276" y="317" on="1"/>
        <pt x="297" y="320" on="0"/>
        <pt x="314" y="320" on="1"/>
        <pt x="355" y="320" on="0"/>
        <pt x="378" y="304" on="1"/>
        <pt x="378" y="843" on="1"/>
        <pt x="346" y="839" on="0"/>
        <pt x="316" y="835" on="1"/>
        <pt x="147" y="849" on="0"/>
        <pt x="147" y="993" on="1"/>
        <pt x="147" y="1135" on="0"/>
        <pt x="303" y="1140" on="1"/>
        <pt x="442" y="1140" on="0"/>
        <pt x="513" y="1032" on="1"/>
        <pt x="677" y="1135" on="0"/>
        <pt x="841" y="1140" on="1"/>
        <pt x="1201" y="1131" on="0"/>
        <pt x="1229" y="867" on="1"/>
        <pt x="1229" y="35" on="1"/>
        <pt x="1229" y="0" on="0"/>
        <pt x="1162" y="0" on="1"/>
        <pt x="1094" y="0" on="0"/>
        <pt x="1094" y="42" on="1"/>
        <pt x="1094" y="864" on="1"/>
        <pt x="1093" y="998" on="0"/>
        <pt x="841" y="1015" on="1"/>
        <pt x="670" y="993" on="0"/>
        <pt x="533" y="913" on="0"/>
        <pt x="513" y="892" on="1"/>
      </contour>
      <contour>
        <pt x="776" y="1672" on="1"/>
        <pt x="825" y="1672" on="0"/>
        <pt x="919" y="1623" on="0"/>
        <pt x="971" y="1531" on="0"/>
        <pt x="971" y="1481" on="1"/>
        <pt x="971" y="1432" on="0"/>
        <pt x="920" y="1341" on="0"/>
        <pt x="827" y="1291" on="0"/>
        <pt x="776" y="1291" on="1"/>
        <pt x="725" y="1291" on="0"/>
        <pt x="632" y="1341" on="0"/>
        <pt x="580" y="1432" on="0"/>
        <pt x="580" y="1481" on="1"/>
        <pt x="580" y="1531" on="0"/>
        <pt x="633" y="1623" on="0"/>
        <pt x="726" y="1672" on="0"/>
      </contour>
      <contour>
        <pt x="756" y="1564" on="0"/>
        <pt x="717" y="1543" on="0"/>
        <pt x="694" y="1505" on="0"/>
        <pt x="694" y="1484" on="1"/>
        <pt x="694" y="1463" on="0"/>
        <pt x="716" y="1425" on="0"/>
        <pt x="755" y="1404" on="0"/>
        <pt x="776" y="1404" on="1"/>
        <pt x="798" y="1404" on="0"/>
        <pt x="837" y="1425" on="0"/>
        <pt x="858" y="1463" on="0"/>
        <pt x="858" y="1484" on="1"/>
        <pt x="858" y="1505" on="0"/>
        <pt x="836" y="1543" on="0"/>
        <pt x="797" y="1564" on="0"/>
        <pt x="776" y="1564" on="1"/>
      </contour>
    </TTGlyph>
    <TTGlyph name="uni0E82" xMin="147" yMin="0" xMax="1157" yMax="1140">
      <contour>
        <pt x="378" y="836" on="1"/>
        <pt x="310" y="836" on="0"/>
        <pt x="310" y="767" on="1"/>
        <pt x="310" y="698" on="0"/>
        <pt x="378" y="698" on="1"/>
        <pt x="445" y="698" on="0"/>
        <pt x="445" y="767" on="1"/>
        <pt x="445" y="836" on="0"/>
      </contour>
      <contour>
        <pt x="315" y="0" on="0"/>
        <pt x="147" y="145" on="0"/>
        <pt x="147" y="240" on="1"/>
        <pt x="147" y="448" on="0"/>
        <pt x="440" y="532" on="1"/>
        <pt x="652" y="594" on="1"/>
        <pt x="1024" y="694" on="0"/>
        <pt x="1024" y="818" on="1"/>
        <pt x="1019" y="904" on="0"/>
        <pt x="838" y="1009" on="0"/>
        <pt x="623" y="1009" on="1"/>
        <pt x="328" y="1009" on="0"/>
        <pt x="286" y="887" on="1"/>
        <pt x="326" y="929" on="0"/>
        <pt x="377" y="929" on="1"/>
        <pt x="545" y="929" on="0"/>
        <pt x="545" y="788" on="1"/>
        <pt x="547" y="772" on="0"/>
        <pt x="547" y="758" on="1"/>
        <pt x="547" y="608" on="0"/>
        <pt x="368" y="606" on="1"/>
        <pt x="147" y="612" on="0"/>
        <pt x="147" y="837" on="1"/>
        <pt x="147" y="1140" on="0"/>
        <pt x="623" y="1140" on="1"/>
        <pt x="764" y="1138" on="0"/>
        <pt x="836" y="1126" on="1"/>
        <pt x="921" y="1111" on="0"/>
        <pt x="992" y="1074" on="1"/>
        <pt x="1063" y="1037" on="0"/>
        <pt x="1111" y="975" on="1"/>
        <pt x="1157" y="912" on="0"/>
        <pt x="1157" y="815" on="1"/>
        <pt x="1157" y="599" on="0"/>
        <pt x="699" y="471" on="1"/>
        <pt x="460" y="403" on="1"/>
        <pt x="279" y="350" on="0"/>
        <pt x="279" y="240" on="1"/>
        <pt x="280" y="202" on="0"/>
        <pt x="361" y="133" on="0"/>
        <pt x="412" y="133" on="1"/>
        <pt x="474" y="133" on="0"/>
        <pt x="807" y="254" on="0"/>
        <pt x="889" y="254" on="1"/>
        <pt x="989" y="254" on="0"/>
        <pt x="1073" y="170" on="1"/>
        <pt x="1111" y="126" on="1"/>
        <pt x="1139" y="83" on="0"/>
        <pt x="1147" y="42" on="1"/>
        <pt x="1147" y="32" on="1"/>
        <pt x="1147" y="0" on="0"/>
        <pt x="1097" y="0" on="1"/>
        <pt x="1040" y="0" on="0"/>
        <pt x="1037" y="26" on="1"/>
        <pt x="1029" y="46" on="0"/>
        <pt x="942" y="121" on="0"/>
        <pt x="891" y="121" on="1"/>
        <pt x="830" y="121" on="0"/>
        <pt x="490" y="2" on="0"/>
        <pt x="414" y="0" on="1"/>
      </contour>
    </TTGlyph>
    <TTGlyph name="uni0E82.am" xMin="147" yMin="0" xMax="1157" yMax="1672">
      <contour>
        <pt x="378" y="836" on="1"/>
        <pt x="310" y="836" on="0"/>
        <pt x="310" y="767" on="1"/>
        <pt x="310" y="698" on="0"/>
        <pt x="378" y="698" on="1"/>
        <pt x="445" y="698" on="0"/>
        <pt x="445" y="767" on="1"/>
        <pt x="445" y="836" on="0"/>
      </contour>
      <contour>
        <pt x="315" y="0" on="0"/>
        <pt x="147" y="145" on="0"/>
        <pt x="147" y="240" on="1"/>
        <pt x="147" y="448" on="0"/>
        <pt x="440" y="532" on="1"/>
        <pt x="652" y="594" on="1"/>
        <pt x="1024" y="694" on="0"/>
        <pt x="1024" y="818" on="1"/>
        <pt x="1019" y="904" on="0"/>
        <pt x="838" y="1009" on="0"/>
        <pt x="623" y="1009" on="1"/>
        <pt x="328" y="1009" on="0"/>
        <pt x="286" y="887" on="1"/>
        <pt x="326" y="929" on="0"/>
        <pt x="377" y="929" on="1"/>
        <pt x="545" y="929" on="0"/>
        <pt x="545" y="788" on="1"/>
        <pt x="547" y="772" on="0"/>
        <pt x="547" y="758" on="1"/>
        <pt x="547" y="608" on="0"/>
        <pt x="368" y="606" on="1"/>
        <pt x="147" y="612" on="0"/>
        <pt x="147" y="837" on="1"/>
        <pt x="147" y="1140" on="0"/>
        <pt x="623" y="1140" on="1"/>
        <pt x="764" y="1138" on="0"/>
        <pt x="836" y="1126" on="1"/>
        <pt x="921" y="1111" on="0"/>
        <pt x="992" y="1074" on="1"/>
        <pt x="1063" y="1037" on="0"/>
        <pt x="1111" y="975" on="1"/>
        <pt x="1157" y="912" on="0"/>
        <pt x="1157" y="815" on="1"/>
        <pt x="1157" y="599" on="0"/>
        <pt x="699" y="471" on="1"/>
        <pt x="460" y="403" on="1"/>
        <pt x="279" y="350" on="0"/>
        <pt x="279" y="240" on="1"/>
        <pt x="280" y="202" on="0"/>
        <pt x="361" y="133" on="0"/>
        <pt x="412" y="133" on="1"/>
        <pt x="474" y="133" on="0"/>
        <pt x="807" y="254" on="0"/>
        <pt x="889" y="254" on="1"/>
        <pt x="989" y="254" on="0"/>
        <pt x="1073" y="170" on="1"/>
        <pt x="1111" y="126" on="1"/>
        <pt x="1139" y="83" on="0"/>
        <pt x="1147" y="42" on="1"/>
        <pt x="1147" y="32" on="1"/>
        <pt x="1147" y="0" on="0"/>
        <pt x="1097" y="0" on="1"/>
        <pt x="1040" y="0" on="0"/>
        <pt x="1037" y="26" on="1"/>
        <pt x="1029" y="46" on="0"/>
        <pt x="942" y="121" on="0"/>
        <pt x="891" y="121" on="1"/>
        <pt x="830" y="121" on="0"/>
        <pt x="490" y="2" on="0"/>
        <pt x="414" y="0" on="1"/>
      </contour>
      <contour>
        <pt x="696" y="1672" on="1"/>
        <pt x="745" y="1672" on="0"/>
        <pt x="839" y="1623" on="0"/>
        <pt x="891" y="1531" on="0"/>
        <pt x="891" y="1481" on="1"/>
        <pt x="891" y="1432" on="0"/>
        <pt x="840" y="1341" on="0"/>
        <pt x="747" y="1291" on="0"/>
        <pt x="696" y="1291" on="1"/>
        <pt x="645" y="1291" on="0"/>
        <pt x="552" y="1341" on="0"/>
        <pt x="500" y="1432" on="0"/>
        <pt x="500" y="1481" on="1"/>
        <pt x="500" y="1531" on="0"/>
        <pt x="553" y="1623" on="0"/>
        <pt x="646" y="1672" on="0"/>
      </contour>
      <contour>
        <pt x="676" y="1564" on="0"/>
        <pt x="637" y="1543" on="0"/>
        <pt x="614" y="1505" on="0"/>
        <pt x="614" y="1484" on="1"/>
        <pt x="614" y="1463" on="0"/>
        <pt x="636" y="1425" on="0"/>
        <pt x="675" y="1404" on="0"/>
        <pt x="696" y="1404" on="1"/>
        <pt x="718" y="1404" on="0"/>
        <pt x="757" y="1425" on="0"/>
        <pt x="778" y="1463" on="0"/>
        <pt x="778" y="1484" on="1"/>
        <pt x="778" y="1505" on="0"/>
        <pt x="756" y="1543" on="0"/>
        <pt x="717" y="1564" on="0"/>
        <pt x="696" y="1564" on="1"/>
      </contour>
    </TTGlyph>
    <TTGlyph name="uni0E84" xMin="147" yMin="0" xMax="1157" yMax="1140">
      <contour>
        <pt x="460" y="225" on="0"/>
        <pt x="389" y="225" on="1"/>
        <pt x="318" y="225" on="0"/>
        <pt x="318" y="158" on="1"/>
        <pt x="318" y="90" on="0"/>
        <pt x="389" y="90" on="1"/>
        <pt x="460" y="90" on="0"/>
        <pt x="460" y="158" on="1"/>
      </contour>
      <contour>
        <pt x="147" y="380" on="1"/>
        <pt x="147" y="539" on="0"/>
        <pt x="313" y="602" on="1"/>
        <pt x="147" y="665" on="0"/>
        <pt x="147" y="833" on="1"/>
        <pt x="147" y="1140" on="0"/>
        <pt x="651" y="1140" on="1"/>
        <pt x="1155" y="1140" on="0"/>
        <pt x="1157" y="787" on="1"/>
        <pt x="1157" y="41" on="1"/>
        <pt x="1157" y="0" on="0"/>
        <pt x="1090" y="0" on="1"/>
        <pt x="1022" y="0" on="0"/>
        <pt x="1022" y="41" on="1"/>
        <pt x="1022" y="789" on="1"/>
        <pt x="1022" y="1016" on="0"/>
        <pt x="654" y="1016" on="1"/>
        <pt x="284" y="1016" on="0"/>
        <pt x="284" y="833" on="1"/>
        <pt x="284" y="728" on="0"/>
        <pt x="409" y="659" on="0"/>
        <pt x="473" y="657" on="1"/>
        <pt x="552" y="657" on="0"/>
        <pt x="552" y="602" on="1"/>
        <pt x="552" y="547" on="0"/>
        <pt x="512" y="547" on="1"/>
        <pt x="472" y="547" on="0"/>
        <pt x="347" y="515" on="1"/>
        <pt x="284" y="475" on="0"/>
        <pt x="284" y="380" on="1"/>
        <pt x="284" y="262" on="1"/>
        <pt x="293" y="275" on="1"/>
        <pt x="335" y="317" on="0"/>
        <pt x="409" y="317" on="1"/>
        <pt x="565" y="317" on="0"/>
        <pt x="565" y="178" on="1"/>
        <pt x="567" y="162" on="0"/>
        <pt x="567" y="147" on="1"/>
        <pt x="567" y="2" on="0"/>
        <pt x="389" y="0" on="1"/>
        <pt x="147" y="6" on="0"/>
        <pt x="147" y="295" on="1"/>
      </contour>
    </TTGlyph>
    <TTGlyph name="uni0E84.am" xMin="147" yMin="0" xMax="1157" yMax="1672">
      <contour>
        <pt x="460" y="225" on="0"/>
        <pt x="389" y="225" on="1"/>
        <pt x="318" y="225" on="0"/>
        <pt x="318" y="158" on="1"/>
        <pt x="318" y="90" on="0"/>
        <pt x="389" y="90" on="1"/>
        <pt x="460" y="90" on="0"/>
        <pt x="460" y="158" on="1"/>
      </contour>
      <contour>
        <pt x="147" y="380" on="1"/>
        <pt x="147" y="539" on="0"/>
        <pt x="313" y="602" on="1"/>
        <pt x="147" y="665" on="0"/>
        <pt x="147" y="833" on="1"/>
        <pt x="147" y="1140" on="0"/>
        <pt x="651" y="1140" on="1"/>
        <pt x="1155" y="1140" on="0"/>
        <pt x="1157" y="787" on="1"/>
        <pt x="1157" y="41" on="1"/>
        <pt x="1157" y="0" on="0"/>
        <pt x="1090" y="0" on="1"/>
        <pt x="1022" y="0" on="0"/>
        <pt x="1022" y="41" on="1"/>
        <pt x="1022" y="789" on="1"/>
        <pt x="1022" y="1016" on="0"/>
        <pt x="654" y="1016" on="1"/>
        <pt x="284" y="1016" on="0"/>
        <pt x="284" y="833" on="1"/>
        <pt x="284" y="728" on="0"/>
        <pt x="409" y="659" on="0"/>
        <pt x="473" y="657" on="1"/>
        <pt x="552" y="657" on="0"/>
        <pt x="552" y="602" on="1"/>
        <pt x="552" y="547" on="0"/>
        <pt x="512" y="547" on="1"/>
        <pt x="472" y="547" on="0"/>
        <pt x="347" y="515" on="1"/>
        <pt x="284" y="475" on="0"/>
        <pt x="284" y="380" on="1"/>
        <pt x="284" y="262" on="1"/>
        <pt x="293" y="275" on="1"/>
        <pt x="335" y="317" on="0"/>
        <pt x="409" y="317" on="1"/>
        <pt x="565" y="317" on="0"/>
        <pt x="565" y="178" on="1"/>
        <pt x="567" y="162" on="0"/>
        <pt x="567" y="147" on="1"/>
        <pt x="567" y="2" on="0"/>
        <pt x="389" y="0" on="1"/>
        <pt x="147" y="6" on="0"/>
        <pt x="147" y="295" on="1"/>
      </contour>
      <contour>
        <pt x="676" y="1672" on="1"/>
        <pt x="725" y="1672" on="0"/>
        <pt x="819" y="1623" on="0"/>
        <pt x="871" y="1531" on="0"/>
        <pt x="871" y="1481" on="1"/>
        <pt x="871" y="1432" on="0"/>
        <pt x="820" y="1341" on="0"/>
        <pt x="727" y="1291" on="0"/>
        <pt x="676" y="1291" on="1"/>
        <pt x="625" y="1291" on="0"/>
        <pt x="532" y="1341" on="0"/>
        <pt x="480" y="1432" on="0"/>
        <pt x="480" y="1481" on="1"/>
        <pt x="480" y="1531" on="0"/>
        <pt x="533" y="1623" on="0"/>
        <pt x="626" y="1672" on="0"/>
      </contour>
      <contour>
        <pt x="656" y="1564" on="0"/>
        <pt x="617" y="1543" on="0"/>
        <pt x="594" y="1505" on="0"/>
        <pt x="594" y="1484" on="1"/>
        <pt x="594" y="1463" on="0"/>
        <pt x="616" y="1425" on="0"/>
        <pt x="655" y="1404" on="0"/>
        <pt x="676" y="1404" on="1"/>
        <pt x="698" y="1404" on="0"/>
        <pt x="737" y="1425" on="0"/>
        <pt x="758" y="1463" on="0"/>
        <pt x="758" y="1484" on="1"/>
        <pt x="758" y="1505" on="0"/>
        <pt x="736" y="1543" on="0"/>
        <pt x="697" y="1564" on="0"/>
        <pt x="676" y="1564" on="1"/>
      </contour>
    </TTGlyph>
    <TTGlyph name="uni0E87" xMin="147" yMin="-422" xMax="709" yMax="1140">
      <contour>
        <pt x="278" y="972" on="0"/>
        <pt x="278" y="902" on="1"/>
        <pt x="278" y="832" on="0"/>
        <pt x="347" y="832" on="1"/>
        <pt x="416" y="832" on="0"/>
        <pt x="416" y="902" on="1"/>
        <pt x="416" y="972" on="0"/>
        <pt x="347" y="972" on="1"/>
      </contour>
      <contour>
        <pt x="230" y="-420" on="0"/>
        <pt x="147" y="-411" on="0"/>
        <pt x="147" y="-343" on="1"/>
        <pt x="147" y="-282" on="0"/>
        <pt x="182" y="-282" on="1"/>
        <pt x="189" y="-282" on="1"/>
        <pt x="231" y="-289" on="0"/>
        <pt x="262" y="-290" on="1"/>
        <pt x="355" y="-286" on="0"/>
        <pt x="458" y="-259" on="0"/>
        <pt x="544" y="-182" on="0"/>
        <pt x="574" y="-84" on="0"/>
        <pt x="574" y="20" on="1"/>
        <pt x="574" y="834" on="1"/>
        <pt x="574" y="983" on="0"/>
        <pt x="467" y="996" on="1"/>
        <pt x="509" y="955" on="0"/>
        <pt x="509" y="902" on="1"/>
        <pt x="509" y="729" on="0"/>
        <pt x="368" y="729" on="1"/>
        <pt x="352" y="727" on="0"/>
        <pt x="337" y="727" on="1"/>
        <pt x="186" y="727" on="0"/>
        <pt x="166" y="912" on="1"/>
        <pt x="192" y="1140" on="0"/>
        <pt x="417" y="1140" on="1"/>
        <pt x="709" y="1140" on="0"/>
        <pt x="709" y="828" on="1"/>
        <pt x="709" y="-148" on="1"/>
        <pt x="709" y="-229" on="0"/>
        <pt x="568" y="-371" on="0"/>
        <pt x="399" y="-418" on="0"/>
        <pt x="255" y="-422" on="1"/>
      </contour>
    </TTGlyph>
    <TTGlyph name="uni0E87.am" xMin="147" yMin="-422" xMax="709" yMax="1672">
      <contour>
        <pt x="278" y="972" on="0"/>
        <pt x="278" y="902" on="1"/>
        <pt x="278" y="832" on="0"/>
        <pt x="347" y="832" on="1"/>
        <pt x="416" y="832" on="0"/>
        <pt x="416" y="902" on="1"/>
        <pt x="416" y="972" on="0"/>
        <pt x="347" y="972" on="1"/>
      </contour>
      <contour>
        <pt x="230" y="-420" on="0"/>
        <pt x="147" y="-411" on="0"/>
        <pt x="147" y="-343" on="1"/>
        <pt x="147" y="-282" on="0"/>
        <pt x="182" y="-282" on="1"/>
        <pt x="189" y="-282" on="1"/>
        <pt x="231" y="-289" on="0"/>
        <pt x="262" y="-290" on="1"/>
        <pt x="355" y="-286" on="0"/>
        <pt x="458" y="-259" on="0"/>
        <pt x="544" y="-182" on="0"/>
        <pt x="574" y="-84" on="0"/>
        <pt x="574" y="20" on="1"/>
        <pt x="574" y="834" on="1"/>
        <pt x="574" y="983" on="0"/>
        <pt x="467" y="996" on="1"/>
        <pt x="509" y="955" on="0"/>
        <pt x="509" y="902" on="1"/>
        <pt x="509" y="729" on="0"/>
        <pt x="368" y="729" on="1"/>
        <pt x="352" y="727" on="0"/>
        <pt x="337" y="727" on="1"/>
        <pt x="186" y="727" on="0"/>
        <pt x="166" y="912" on="1"/>
        <pt x="192" y="1140" on="0"/>
        <pt x="417" y="1140" on="1"/>
        <pt x="709" y="1140" on="0"/>
        <pt x="709" y="828" on="1"/>
        <pt x="709" y="-148" on="1"/>
        <pt x="709" y="-229" on="0"/>
        <pt x="568" y="-371" on="0"/>
        <pt x="399" y="-418" on="0"/>
        <pt x="255" y="-422" on="1"/>
      </contour>
      <contour>
        <pt x="446" y="1672" on="1"/>
        <pt x="495" y="1672" on="0"/>
        <pt x="589" y="1623" on="0"/>
        <pt x="641" y="1531" on="0"/>
        <pt x="641" y="1481" on="1"/>
        <pt x="641" y="1432" on="0"/>
        <pt x="590" y="1341" on="0"/>
        <pt x="497" y="1291" on="0"/>
        <pt x="446" y="1291" on="1"/>
        <pt x="395" y="1291" on="0"/>
        <pt x="302" y="1341" on="0"/>
        <pt x="250" y="1432" on="0"/>
        <pt x="250" y="1481" on="1"/>
        <pt x="250" y="1531" on="0"/>
        <pt x="303" y="1623" on="0"/>
        <pt x="396" y="1672" on="0"/>
      </contour>
      <contour>
        <pt x="426" y="1564" on="0"/>
        <pt x="387" y="1543" on="0"/>
        <pt x="364" y="1505" on="0"/>
        <pt x="364" y="1484" on="1"/>
        <pt x="364" y="1463" on="0"/>
        <pt x="386" y="1425" on="0"/>
        <pt x="425" y="1404" on="0"/>
        <pt x="446" y="1404" on="1"/>
        <pt x="468" y="1404" on="0"/>
        <pt x="507" y="1425" on="0"/>
        <pt x="528" y="1463" on="0"/>
        <pt x="528" y="1484" on="1"/>
        <pt x="528" y="1505" on="0"/>
        <pt x="506" y="1543" on="0"/>
        <pt x="467" y="1564" on="0"/>
        <pt x="446" y="1564" on="1"/>
      </contour>
    </TTGlyph>
    <TTGlyph name="uni0E88" xMin="147" yMin="0" xMax="1157" yMax="1140">
      <contour>
        <pt x="666" y="581" on="1"/>
        <pt x="666" y="576" on="1"/>
        <pt x="666" y="511" on="0"/>
        <pt x="740" y="511" on="1"/>
        <pt x="742" y="511" on="1"/>
        <pt x="820" y="512" on="0"/>
        <pt x="820" y="582" on="1"/>
        <pt x="820" y="651" on="0"/>
        <pt x="745" y="651" on="1"/>
        <pt x="669" y="651" on="0"/>
      </contour>
      <contour>
        <pt x="662" y="1010" on="1"/>
        <pt x="302" y="1010" on="0"/>
        <pt x="302" y="847" on="1"/>
        <pt x="302" y="803" on="0"/>
        <pt x="225" y="803" on="1"/>
        <pt x="147" y="803" on="0"/>
        <pt x="147" y="847" on="1"/>
        <pt x="147" y="1140" on="0"/>
        <pt x="666" y="1140" on="1"/>
        <pt x="1157" y="1140" on="0"/>
        <pt x="1157" y="837" on="1"/>
        <pt x="1157" y="820" on="0"/>
        <pt x="1156" y="802" on="1"/>
        <pt x="1156" y="205" on="1"/>
        <pt x="1156" y="2" on="0"/>
        <pt x="935" y="0" on="1"/>
        <pt x="783" y="5" on="0"/>
        <pt x="739" y="107" on="1"/>
        <pt x="718" y="154" on="0"/>
        <pt x="718" y="199" on="1"/>
        <pt x="718" y="253" on="0"/>
        <pt x="747" y="304" on="1"/>
        <pt x="799" y="399" on="0"/>
        <pt x="799" y="404" on="1"/>
        <pt x="777" y="384" on="0"/>
        <pt x="711" y="384" on="1"/>
        <pt x="705" y="384" on="1"/>
        <pt x="535" y="410" on="0"/>
        <pt x="530" y="578" on="1"/>
        <pt x="530" y="588" on="1"/>
        <pt x="530" y="747" on="0"/>
        <pt x="718" y="779" on="1"/>
        <pt x="721" y="779" on="1"/>
        <pt x="920" y="779" on="0"/>
        <pt x="949" y="632" on="1"/>
        <pt x="958" y="582" on="0"/>
        <pt x="958" y="538" on="1"/>
        <pt x="958" y="451" on="0"/>
        <pt x="921" y="385" on="1"/>
        <pt x="865" y="286" on="0"/>
        <pt x="861" y="215" on="1"/>
        <pt x="860" y="211" on="0"/>
        <pt x="860" y="207" on="1"/>
        <pt x="860" y="142" on="0"/>
        <pt x="935" y="129" on="1"/>
        <pt x="945" y="129" on="1"/>
        <pt x="1013" y="129" on="0"/>
        <pt x="1021" y="209" on="1"/>
        <pt x="1021" y="802" on="1"/>
        <pt x="1021" y="1010" on="0"/>
      </contour>
    </TTGlyph>
    <TTGlyph name="uni0E88.am" xMin="147" yMin="0" xMax="1157" yMax="1672">
      <contour>
        <pt x="666" y="581" on="1"/>
        <pt x="666" y="576" on="1"/>
        <pt x="666" y="511" on="0"/>
        <pt x="740" y="511" on="1"/>
        <pt x="742" y="511" on="1"/>
        <pt x="820" y="512" on="0"/>
        <pt x="820" y="582" on="1"/>
        <pt x="820" y="651" on="0"/>
        <pt x="745" y="651" on="1"/>
        <pt x="669" y="651" on="0"/>
      </contour>
      <contour>
        <pt x="662" y="1010" on="1"/>
        <pt x="302" y="1010" on="0"/>
        <pt x="302" y="847" on="1"/>
        <pt x="302" y="803" on="0"/>
        <pt x="225" y="803" on="1"/>
        <pt x="147" y="803" on="0"/>
        <pt x="147" y="847" on="1"/>
        <pt x="147" y="1140" on="0"/>
        <pt x="666" y="1140" on="1"/>
        <pt x="1157" y="1140" on="0"/>
        <pt x="1157" y="837" on="1"/>
        <pt x="1157" y="820" on="0"/>
        <pt x="1156" y="802" on="1"/>
        <pt x="1156" y="205" on="1"/>
        <pt x="1156" y="2" on="0"/>
        <pt x="935" y="0" on="1"/>
        <pt x="783" y="5" on="0"/>
        <pt x="739" y="107" on="1"/>
        <pt x="718" y="154" on="0"/>
        <pt x="718" y="199" on="1"/>
        <pt x="718" y="253" on="0"/>
        <pt x="747" y="304" on="1"/>
        <pt x="799" y="399" on="0"/>
        <pt x="799" y="404" on="1"/>
        <pt x="777" y="384" on="0"/>
        <pt x="711" y="384" on="1"/>
        <pt x="705" y="384" on="1"/>
        <pt x="535" y="410" on="0"/>
        <pt x="530" y="578" on="1"/>
        <pt x="530" y="588" on="1"/>
        <pt x="530" y="747" on="0"/>
        <pt x="718" y="779" on="1"/>
        <pt x="721" y="779" on="1"/>
        <pt x="920" y="779" on="0"/>
        <pt x="949" y="632" on="1"/>
        <pt x="958" y="582" on="0"/>
        <pt x="958" y="538" on="1"/>
        <pt x="958" y="451" on="0"/>
        <pt x="921" y="385" on="1"/>
        <pt x="865" y="286" on="0"/>
        <pt x="861" y="215" on="1"/>
        <pt x="860" y="211" on="0"/>
        <pt x="860" y="207" on="1"/>
        <pt x="860" y="142" on="0"/>
        <pt x="935" y="129" on="1"/>
        <pt x="945" y="129" on="1"/>
        <pt x="1013" y="129" on="0"/>
        <pt x="1021" y="209" on="1"/>
        <pt x="1021" y="802" on="1"/>
        <pt x="1021" y="1010" on="0"/>
      </contour>
      <contour>
        <pt x="766" y="1672" on="1"/>
        <pt x="815" y="1672" on="0"/>
        <pt x="909" y="1623" on="0"/>
        <pt x="961" y="1531" on="0"/>
        <pt x="961" y="1481" on="1"/>
        <pt x="961" y="1432" on="0"/>
        <pt x="910" y="1341" on="0"/>
        <pt x="817" y="1291" on="0"/>
        <pt x="766" y="1291" on="1"/>
        <pt x="715" y="1291" on="0"/>
        <pt x="622" y="1341" on="0"/>
        <pt x="570" y="1432" on="0"/>
        <pt x="570" y="1481" on="1"/>
        <pt x="570" y="1531" on="0"/>
        <pt x="623" y="1623" on="0"/>
        <pt x="716" y="1672" on="0"/>
      </contour>
      <contour>
        <pt x="746" y="1564" on="0"/>
        <pt x="707" y="1543" on="0"/>
        <pt x="684" y="1505" on="0"/>
        <pt x="684" y="1484" on="1"/>
        <pt x="684" y="1463" on="0"/>
        <pt x="706" y="1425" on="0"/>
        <pt x="745" y="1404" on="0"/>
        <pt x="766" y="1404" on="1"/>
        <pt x="788" y="1404" on="0"/>
        <pt x="827" y="1425" on="0"/>
        <pt x="848" y="1463" on="0"/>
        <pt x="848" y="1484" on="1"/>
        <pt x="848" y="1505" on="0"/>
        <pt x="826" y="1543" on="0"/>
        <pt x="787" y="1564" on="0"/>
        <pt x="766" y="1564" on="1"/>
      </contour>
    </TTGlyph>
    <TTGlyph name="uni0E8A" xMin="147" yMin="-390" xMax="1157" yMax="1140">
      <contour>
        <pt x="434" y="833" on="0"/>
        <pt x="369" y="833" on="1"/>
        <pt x="303" y="833" on="0"/>
        <pt x="303" y="764" on="1"/>
        <pt x="303" y="695" on="0"/>
        <pt x="369" y="695" on="1"/>
        <pt x="434" y="695" on="0"/>
        <pt x="434" y="764" on="1"/>
      </contour>
      <contour>
        <pt x="992" y="96" on="1"/>
        <pt x="992" y="170" on="0"/>
        <pt x="951" y="231" on="0"/>
        <pt x="900" y="231" on="1"/>
        <pt x="805" y="231" on="0"/>
        <pt x="707" y="144" on="1"/>
        <pt x="543" y="0" on="0"/>
        <pt x="386" y="0" on="1"/>
        <pt x="252" y="0" on="0"/>
        <pt x="147" y="125" on="0"/>
        <pt x="147" y="216" on="1"/>
        <pt x="147" y="383" on="0"/>
        <pt x="463" y="497" on="1"/>
        <pt x="671" y="574" on="1"/>
        <pt x="992" y="685" on="0"/>
        <pt x="992" y="845" on="1"/>
        <pt x="987" y="1010" on="0"/>
        <pt x="606" y="1010" on="1"/>
        <pt x="321" y="1010" on="0"/>
        <pt x="282" y="884" on="1"/>
        <pt x="320" y="926" on="0"/>
        <pt x="369" y="926" on="1"/>
        <pt x="531" y="926" on="0"/>
        <pt x="531" y="785" on="1"/>
        <pt x="533" y="769" on="0"/>
        <pt x="533" y="755" on="1"/>
        <pt x="533" y="605" on="0"/>
        <pt x="360" y="603" on="1"/>
        <pt x="147" y="609" on="0"/>
        <pt x="147" y="834" on="1"/>
        <pt x="147" y="1140" on="0"/>
        <pt x="603" y="1140" on="1"/>
        <pt x="609" y="1140" on="1"/>
        <pt x="1121" y="1140" on="0"/>
        <pt x="1121" y="842" on="1"/>
        <pt x="1121" y="589" on="0"/>
        <pt x="713" y="449" on="1"/>
        <pt x="493" y="367" on="1"/>
        <pt x="274" y="291" on="0"/>
        <pt x="274" y="216" on="1"/>
        <pt x="274" y="172" on="0"/>
        <pt x="316" y="133" on="0"/>
        <pt x="384" y="133" on="1"/>
        <pt x="491" y="133" on="0"/>
        <pt x="637" y="249" on="1"/>
        <pt x="784" y="364" on="0"/>
        <pt x="899" y="364" on="1"/>
        <pt x="1004" y="364" on="0"/>
        <pt x="1121" y="227" on="0"/>
        <pt x="1121" y="96" on="1"/>
        <pt x="1121" y="-217" on="1"/>
        <pt x="1123" y="-266" on="0"/>
        <pt x="1142" y="-357" on="0"/>
        <pt x="1151" y="-368" on="1"/>
        <pt x="1157" y="-375" on="0"/>
        <pt x="1157" y="-380" on="1"/>
        <pt x="1157" y="-382" on="0"/>
        <pt x="1156" y="-384" on="1"/>
        <pt x="1152" y="-390" on="0"/>
        <pt x="1100" y="-390" on="1"/>
        <pt x="1028" y="-390" on="0"/>
        <pt x="1021" y="-369" on="1"/>
        <pt x="1007" y="-338" on="0"/>
        <pt x="994" y="-253" on="0"/>
        <pt x="993" y="-204" on="1"/>
        <pt x="992" y="-186" on="0"/>
        <pt x="992" y="-59" on="1"/>
      </contour>
    </TTGlyph>
    <TTGlyph name="uni0E8A.am" xMin="147" yMin="-390" xMax="1157" yMax="1672">
      <contour>
        <pt x="666" y="1672" on="1"/>
        <pt x="715" y="1672" on="0"/>
        <pt x="809" y="1623" on="0"/>
        <pt x="861" y="1531" on="0"/>
        <pt x="861" y="1481" on="1"/>
        <pt x="861" y="1432" on="0"/>
        <pt x="810" y="1341" on="0"/>
        <pt x="717" y="1291" on="0"/>
        <pt x="666" y="1291" on="1"/>
        <pt x="615" y="1291" on="0"/>
        <pt x="522" y="1341" on="0"/>
        <pt x="470" y="1432" on="0"/>
        <pt x="470" y="1481" on="1"/>
        <pt x="470" y="1531" on="0"/>
        <pt x="523" y="1623" on="0"/>
        <pt x="616" y="1672" on="0"/>
      </contour>
      <contour>
        <pt x="607" y="1543" on="0"/>
        <pt x="584" y="1505" on="0"/>
        <pt x="584" y="1484" on="1"/>
        <pt x="584" y="1463" on="0"/>
        <pt x="606" y="1425" on="0"/>
        <pt x="645" y="1404" on="0"/>
        <pt x="666" y="1404" on="1"/>
        <pt x="688" y="1404" on="0"/>
        <pt x="727" y="1425" on="0"/>
        <pt x="748" y="1463" on="0"/>
        <pt x="748" y="1484" on="1"/>
        <pt x="748" y="1505" on="0"/>
        <pt x="726" y="1543" on="0"/>
        <pt x="687" y="1564" on="0"/>
        <pt x="666" y="1564" on="1"/>
        <pt x="646" y="1564" on="0"/>
      </contour>
      <contour>
        <pt x="369" y="833" on="1"/>
        <pt x="303" y="833" on="0"/>
        <pt x="303" y="764" on="1"/>
        <pt x="303" y="695" on="0"/>
        <pt x="369" y="695" on="1"/>
        <pt x="434" y="695" on="0"/>
        <pt x="434" y="764" on="1"/>
        <pt x="434" y="833" on="0"/>
      </contour>
      <contour>
        <pt x="992" y="96" on="1"/>
        <pt x="992" y="170" on="0"/>
        <pt x="951" y="231" on="0"/>
        <pt x="900" y="231" on="1"/>
        <pt x="805" y="231" on="0"/>
        <pt x="707" y="144" on="1"/>
        <pt x="543" y="0" on="0"/>
        <pt x="386" y="0" on="1"/>
        <pt x="252" y="0" on="0"/>
        <pt x="147" y="125" on="0"/>
        <pt x="147" y="216" on="1"/>
        <pt x="147" y="383" on="0"/>
        <pt x="463" y="497" on="1"/>
        <pt x="671" y="574" on="1"/>
        <pt x="992" y="685" on="0"/>
        <pt x="992" y="845" on="1"/>
        <pt x="987" y="1010" on="0"/>
        <pt x="606" y="1010" on="1"/>
        <pt x="321" y="1010" on="0"/>
        <pt x="282" y="884" on="1"/>
        <pt x="320" y="926" on="0"/>
        <pt x="369" y="926" on="1"/>
        <pt x="531" y="926" on="0"/>
        <pt x="531" y="785" on="1"/>
        <pt x="533" y="769" on="0"/>
        <pt x="533" y="755" on="1"/>
        <pt x="533" y="605" on="0"/>
        <pt x="360" y="603" on="1"/>
        <pt x="147" y="609" on="0"/>
        <pt x="147" y="834" on="1"/>
        <pt x="147" y="1140" on="0"/>
        <pt x="603" y="1140" on="1"/>
        <pt x="609" y="1140" on="1"/>
        <pt x="1121" y="1140" on="0"/>
        <pt x="1121" y="842" on="1"/>
        <pt x="1121" y="589" on="0"/>
        <pt x="713" y="449" on="1"/>
        <pt x="493" y="367" on="1"/>
        <pt x="274" y="291" on="0"/>
        <pt x="274" y="216" on="1"/>
        <pt x="274" y="172" on="0"/>
        <pt x="316" y="133" on="0"/>
        <pt x="384" y="133" on="1"/>
        <pt x="491" y="133" on="0"/>
        <pt x="637" y="249" on="1"/>
        <pt x="784" y="364" on="0"/>
        <pt x="899" y="364" on="1"/>
        <pt x="1004" y="364" on="0"/>
        <pt x="1121" y="227" on="0"/>
        <pt x="1121" y="96" on="1"/>
        <pt x="1121" y="-217" on="1"/>
        <pt x="1123" y="-266" on="0"/>
        <pt x="1142" y="-357" on="0"/>
        <pt x="1151" y="-368" on="1"/>
        <pt x="1157" y="-375" on="0"/>
        <pt x="1157" y="-380" on="1"/>
        <pt x="1157" y="-382" on="0"/>
        <pt x="1156" y="-384" on="1"/>
        <pt x="1152" y="-390" on="0"/>
        <pt x="1100" y="-390" on="1"/>
        <pt x="1028" y="-390" on="0"/>
        <pt x="1021" y="-369" on="1"/>
        <pt x="1007" y="-338" on="0"/>
        <pt x="994" y="-253" on="0"/>
        <pt x="993" y="-204" on="1"/>
        <pt x="992" y="-186" on="0"/>
        <pt x="992" y="-59" on="1"/>
      </contour>
    </TTGlyph>
    <TTGlyph name="uni0E8D" xMin="147" yMin="0" xMax="1157" yMax="1140">
      <contour>
        <pt x="460" y="982" on="1"/>
        <pt x="460" y="1050" on="0"/>
        <pt x="389" y="1050" on="1"/>
        <pt x="318" y="1050" on="0"/>
        <pt x="318" y="982" on="1"/>
        <pt x="318" y="915" on="0"/>
        <pt x="389" y="915" on="1"/>
        <pt x="460" y="915" on="0"/>
      </contour>
      <contour>
        <pt x="284" y="124" on="0"/>
        <pt x="654" y="124" on="1"/>
        <pt x="1022" y="124" on="0"/>
        <pt x="1022" y="343" on="1"/>
        <pt x="1022" y="1109" on="1"/>
        <pt x="1022" y="1140" on="0"/>
        <pt x="1090" y="1140" on="1"/>
        <pt x="1157" y="1140" on="0"/>
        <pt x="1157" y="1110" on="1"/>
        <pt x="1156" y="343" on="1"/>
        <pt x="1155" y="0" on="0"/>
        <pt x="651" y="0" on="1"/>
        <pt x="147" y="0" on="0"/>
        <pt x="147" y="356" on="1"/>
        <pt x="147" y="515" on="0"/>
        <pt x="313" y="577" on="1"/>
        <pt x="147" y="640" on="0"/>
        <pt x="147" y="799" on="1"/>
        <pt x="147" y="845" on="1"/>
        <pt x="147" y="1134" on="0"/>
        <pt x="389" y="1140" on="1"/>
        <pt x="567" y="1138" on="0"/>
        <pt x="567" y="993" on="1"/>
        <pt x="567" y="978" on="0"/>
        <pt x="565" y="962" on="1"/>
        <pt x="565" y="823" on="0"/>
        <pt x="409" y="823" on="1"/>
        <pt x="335" y="823" on="0"/>
        <pt x="293" y="865" on="1"/>
        <pt x="284" y="878" on="1"/>
        <pt x="284" y="799" on="1"/>
        <pt x="284" y="704" on="0"/>
        <pt x="409" y="636" on="0"/>
        <pt x="481" y="636" on="1"/>
        <pt x="552" y="636" on="0"/>
        <pt x="552" y="578" on="1"/>
        <pt x="552" y="519" on="0"/>
        <pt x="481" y="519" on="1"/>
        <pt x="409" y="519" on="0"/>
        <pt x="284" y="451" on="0"/>
        <pt x="284" y="356" on="1"/>
      </contour>
    </TTGlyph>
    <TTGlyph name="uni0E8D.am" xMin="147" yMin="0" xMax="1157" yMax="1672">
      <contour>
        <pt x="460" y="982" on="1"/>
        <pt x="460" y="1050" on="0"/>
        <pt x="389" y="1050" on="1"/>
        <pt x="318" y="1050" on="0"/>
        <pt x="318" y="982" on="1"/>
        <pt x="318" y="915" on="0"/>
        <pt x="389" y="915" on="1"/>
        <pt x="460" y="915" on="0"/>
      </contour>
      <contour>
        <pt x="284" y="124" on="0"/>
        <pt x="654" y="124" on="1"/>
        <pt x="1022" y="124" on="0"/>
        <pt x="1022" y="343" on="1"/>
        <pt x="1022" y="1109" on="1"/>
        <pt x="1022" y="1140" on="0"/>
        <pt x="1090" y="1140" on="1"/>
        <pt x="1157" y="1140" on="0"/>
        <pt x="1157" y="1110" on="1"/>
        <pt x="1156" y="343" on="1"/>
        <pt x="1155" y="0" on="0"/>
        <pt x="651" y="0" on="1"/>
        <pt x="147" y="0" on="0"/>
        <pt x="147" y="356" on="1"/>
        <pt x="147" y="515" on="0"/>
        <pt x="313" y="577" on="1"/>
        <pt x="147" y="640" on="0"/>
        <pt x="147" y="799" on="1"/>
        <pt x="147" y="845" on="1"/>
        <pt x="147" y="1134" on="0"/>
        <pt x="389" y="1140" on="1"/>
        <pt x="567" y="1138" on="0"/>
        <pt x="567" y="993" on="1"/>
        <pt x="567" y="978" on="0"/>
        <pt x="565" y="962" on="1"/>
        <pt x="565" y="823" on="0"/>
        <pt x="409" y="823" on="1"/>
        <pt x="335" y="823" on="0"/>
        <pt x="293" y="865" on="1"/>
        <pt x="284" y="878" on="1"/>
        <pt x="284" y="799" on="1"/>
        <pt x="284" y="704" on="0"/>
        <pt x="409" y="636" on="0"/>
        <pt x="481" y="636" on="1"/>
        <pt x="552" y="636" on="0"/>
        <pt x="552" y="578" on="1"/>
        <pt x="552" y="519" on="0"/>
        <pt x="481" y="519" on="1"/>
        <pt x="409" y="519" on="0"/>
        <pt x="284" y="451" on="0"/>
        <pt x="284" y="356" on="1"/>
      </contour>
      <contour>
        <pt x="736" y="1672" on="1"/>
        <pt x="785" y="1672" on="0"/>
        <pt x="879" y="1623" on="0"/>
        <pt x="931" y="1531" on="0"/>
        <pt x="931" y="1481" on="1"/>
        <pt x="931" y="1432" on="0"/>
        <pt x="880" y="1341" on="0"/>
        <pt x="787" y="1291" on="0"/>
        <pt x="736" y="1291" on="1"/>
        <pt x="685" y="1291" on="0"/>
        <pt x="592" y="1341" on="0"/>
        <pt x="540" y="1432" on="0"/>
        <pt x="540" y="1481" on="1"/>
        <pt x="540" y="1531" on="0"/>
        <pt x="593" y="1623" on="0"/>
        <pt x="686" y="1672" on="0"/>
      </contour>
      <contour>
        <pt x="716" y="1564" on="0"/>
        <pt x="677" y="1543" on="0"/>
        <pt x="654" y="1505" on="0"/>
        <pt x="654" y="1484" on="1"/>
        <pt x="654" y="1463" on="0"/>
        <pt x="676" y="1425" on="0"/>
        <pt x="715" y="1404" on="0"/>
        <pt x="736" y="1404" on="1"/>
        <pt x="758" y="1404" on="0"/>
        <pt x="797" y="1425" on="0"/>
        <pt x="818" y="1463" on="0"/>
        <pt x="818" y="1484" on="1"/>
        <pt x="818" y="1505" on="0"/>
        <pt x="796" y="1543" on="0"/>
        <pt x="757" y="1564" on="0"/>
        <pt x="736" y="1564" on="1"/>
      </contour>
    </TTGlyph>
    <TTGlyph name="uni0E94" xMin="168" yMin="0" xMax="1178" yMax="1140">
      <contour>
        <pt x="481" y="225" on="0"/>
        <pt x="410" y="225" on="1"/>
        <pt x="339" y="225" on="0"/>
        <pt x="339" y="158" on="1"/>
        <pt x="339" y="90" on="0"/>
        <pt x="410" y="90" on="1"/>
        <pt x="481" y="90" on="0"/>
        <pt x="481" y="158" on="1"/>
      </contour>
      <contour>
        <pt x="168" y="735" on="1"/>
        <pt x="168" y="1140" on="0"/>
        <pt x="675" y="1140" on="1"/>
        <pt x="1178" y="1140" on="0"/>
        <pt x="1178" y="735" on="1"/>
        <pt x="1178" y="33" on="1"/>
        <pt x="1178" y="0" on="0"/>
        <pt x="1111" y="0" on="1"/>
        <pt x="1043" y="0" on="0"/>
        <pt x="1043" y="33" on="1"/>
        <pt x="1043" y="735" on="1"/>
        <pt x="1043" y="1016" on="0"/>
        <pt x="675" y="1016" on="1"/>
        <pt x="305" y="1016" on="0"/>
        <pt x="305" y="735" on="1"/>
        <pt x="305" y="262" on="1"/>
        <pt x="314" y="275" on="1"/>
        <pt x="356" y="317" on="0"/>
        <pt x="430" y="317" on="1"/>
        <pt x="586" y="317" on="0"/>
        <pt x="586" y="178" on="1"/>
        <pt x="588" y="162" on="0"/>
        <pt x="588" y="147" on="1"/>
        <pt x="588" y="2" on="0"/>
        <pt x="410" y="0" on="1"/>
        <pt x="168" y="6" on="0"/>
        <pt x="168" y="295" on="1"/>
      </contour>
    </TTGlyph>
    <TTGlyph name="uni0E94.am" xMin="168" yMin="0" xMax="1178" yMax="1672">
      <contour>
        <pt x="481" y="225" on="0"/>
        <pt x="410" y="225" on="1"/>
        <pt x="339" y="225" on="0"/>
        <pt x="339" y="158" on="1"/>
        <pt x="339" y="90" on="0"/>
        <pt x="410" y="90" on="1"/>
        <pt x="481" y="90" on="0"/>
        <pt x="481" y="158" on="1"/>
      </contour>
      <contour>
        <pt x="168" y="735" on="1"/>
        <pt x="168" y="1140" on="0"/>
        <pt x="675" y="1140" on="1"/>
        <pt x="1178" y="1140" on="0"/>
        <pt x="1178" y="735" on="1"/>
        <pt x="1178" y="33" on="1"/>
        <pt x="1178" y="0" on="0"/>
        <pt x="1111" y="0" on="1"/>
        <pt x="1043" y="0" on="0"/>
        <pt x="1043" y="33" on="1"/>
        <pt x="1043" y="735" on="1"/>
        <pt x="1043" y="1016" on="0"/>
        <pt x="675" y="1016" on="1"/>
        <pt x="305" y="1016" on="0"/>
        <pt x="305" y="735" on="1"/>
        <pt x="305" y="262" on="1"/>
        <pt x="314" y="275" on="1"/>
        <pt x="356" y="317" on="0"/>
        <pt x="430" y="317" on="1"/>
        <pt x="586" y="317" on="0"/>
        <pt x="586" y="178" on="1"/>
        <pt x="588" y="162" on="0"/>
        <pt x="588" y="147" on="1"/>
        <pt x="588" y="2" on="0"/>
        <pt x="410" y="0" on="1"/>
        <pt x="168" y="6" on="0"/>
        <pt x="168" y="295" on="1"/>
      </contour>
      <contour>
        <pt x="697" y="1672" on="1"/>
        <pt x="746" y="1672" on="0"/>
        <pt x="840" y="1623" on="0"/>
        <pt x="892" y="1531" on="0"/>
        <pt x="892" y="1481" on="1"/>
        <pt x="892" y="1432" on="0"/>
        <pt x="841" y="1341" on="0"/>
        <pt x="748" y="1291" on="0"/>
        <pt x="697" y="1291" on="1"/>
        <pt x="646" y="1291" on="0"/>
        <pt x="553" y="1341" on="0"/>
        <pt x="501" y="1432" on="0"/>
        <pt x="501" y="1481" on="1"/>
        <pt x="501" y="1531" on="0"/>
        <pt x="554" y="1623" on="0"/>
        <pt x="647" y="1672" on="0"/>
      </contour>
      <contour>
        <pt x="677" y="1564" on="0"/>
        <pt x="638" y="1543" on="0"/>
        <pt x="615" y="1505" on="0"/>
        <pt x="615" y="1484" on="1"/>
        <pt x="615" y="1463" on="0"/>
        <pt x="637" y="1425" on="0"/>
        <pt x="676" y="1404" on="0"/>
        <pt x="697" y="1404" on="1"/>
        <pt x="719" y="1404" on="0"/>
        <pt x="758" y="1425" on="0"/>
        <pt x="779" y="1463" on="0"/>
        <pt x="779" y="1484" on="1"/>
        <pt x="779" y="1505" on="0"/>
        <pt x="757" y="1543" on="0"/>
        <pt x="718" y="1564" on="0"/>
        <pt x="697" y="1564" on="1"/>
      </contour>
    </TTGlyph>
    <TTGlyph name="uni0E95" xMin="168" yMin="0" xMax="1176" yMax="1140">
      <contour>
        <pt x="407" y="225" on="1"/>
        <pt x="336" y="225" on="0"/>
        <pt x="336" y="158" on="1"/>
        <pt x="336" y="90" on="0"/>
        <pt x="407" y="90" on="1"/>
        <pt x="478" y="90" on="0"/>
        <pt x="478" y="158" on="1"/>
        <pt x="478" y="225" on="0"/>
      </contour>
      <contour>
        <pt x="1176" y="735" on="1"/>
        <pt x="1176" y="33" on="1"/>
        <pt x="1176" y="0" on="0"/>
        <pt x="1109" y="0" on="1"/>
        <pt x="1041" y="0" on="0"/>
        <pt x="1041" y="33" on="1"/>
        <pt x="1041" y="735" on="1"/>
        <pt x="1041" y="1016" on="0"/>
        <pt x="927" y="1016" on="1"/>
        <pt x="835" y="1016" on="0"/>
        <pt x="758" y="912" on="1"/>
        <pt x="712" y="849" on="0"/>
        <pt x="671" y="849" on="1"/>
        <pt x="630" y="849" on="0"/>
        <pt x="584" y="912" on="1"/>
        <pt x="508" y="1016" on="0"/>
        <pt x="415" y="1016" on="1"/>
        <pt x="303" y="1016" on="0"/>
        <pt x="303" y="735" on="1"/>
        <pt x="303" y="262" on="1"/>
        <pt x="312" y="275" on="1"/>
        <pt x="354" y="317" on="0"/>
        <pt x="428" y="317" on="1"/>
        <pt x="583" y="317" on="0"/>
        <pt x="583" y="178" on="1"/>
        <pt x="585" y="162" on="0"/>
        <pt x="585" y="147" on="1"/>
        <pt x="585" y="2" on="0"/>
        <pt x="407" y="0" on="1"/>
        <pt x="168" y="6" on="0"/>
        <pt x="168" y="295" on="1"/>
        <pt x="168" y="735" on="1"/>
        <pt x="168" y="1140" on="0"/>
        <pt x="424" y="1140" on="1"/>
        <pt x="549" y="1140" on="0"/>
        <pt x="671" y="983" on="1"/>
        <pt x="793" y="1140" on="0"/>
        <pt x="918" y="1140" on="1"/>
        <pt x="1176" y="1140" on="0"/>
      </contour>
    </TTGlyph>
    <TTGlyph name="uni0E95.am" xMin="168" yMin="0" xMax="1176" yMax="1672">
      <contour>
        <pt x="407" y="225" on="1"/>
        <pt x="336" y="225" on="0"/>
        <pt x="336" y="158" on="1"/>
        <pt x="336" y="90" on="0"/>
        <pt x="407" y="90" on="1"/>
        <pt x="478" y="90" on="0"/>
        <pt x="478" y="158" on="1"/>
        <pt x="478" y="225" on="0"/>
      </contour>
      <contour>
        <pt x="1176" y="735" on="1"/>
        <pt x="1176" y="33" on="1"/>
        <pt x="1176" y="0" on="0"/>
        <pt x="1109" y="0" on="1"/>
        <pt x="1041" y="0" on="0"/>
        <pt x="1041" y="33" on="1"/>
        <pt x="1041" y="735" on="1"/>
        <pt x="1041" y="1016" on="0"/>
        <pt x="927" y="1016" on="1"/>
        <pt x="835" y="1016" on="0"/>
        <pt x="758" y="912" on="1"/>
        <pt x="712" y="849" on="0"/>
        <pt x="671" y="849" on="1"/>
        <pt x="630" y="849" on="0"/>
        <pt x="584" y="912" on="1"/>
        <pt x="508" y="1016" on="0"/>
        <pt x="415" y="1016" on="1"/>
        <pt x="303" y="1016" on="0"/>
        <pt x="303" y="735" on="1"/>
        <pt x="303" y="262" on="1"/>
        <pt x="312" y="275" on="1"/>
        <pt x="354" y="317" on="0"/>
        <pt x="428" y="317" on="1"/>
        <pt x="583" y="317" on="0"/>
        <pt x="583" y="178" on="1"/>
        <pt x="585" y="162" on="0"/>
        <pt x="585" y="147" on="1"/>
        <pt x="585" y="2" on="0"/>
        <pt x="407" y="0" on="1"/>
        <pt x="168" y="6" on="0"/>
        <pt x="168" y="295" on="1"/>
        <pt x="168" y="735" on="1"/>
        <pt x="168" y="1140" on="0"/>
        <pt x="424" y="1140" on="1"/>
        <pt x="549" y="1140" on="0"/>
        <pt x="671" y="983" on="1"/>
        <pt x="793" y="1140" on="0"/>
        <pt x="918" y="1140" on="1"/>
        <pt x="1176" y="1140" on="0"/>
      </contour>
      <contour>
        <pt x="697" y="1672" on="1"/>
        <pt x="746" y="1672" on="0"/>
        <pt x="840" y="1623" on="0"/>
        <pt x="892" y="1531" on="0"/>
        <pt x="892" y="1481" on="1"/>
        <pt x="892" y="1432" on="0"/>
        <pt x="841" y="1341" on="0"/>
        <pt x="748" y="1291" on="0"/>
        <pt x="697" y="1291" on="1"/>
        <pt x="646" y="1291" on="0"/>
        <pt x="553" y="1341" on="0"/>
        <pt x="501" y="1432" on="0"/>
        <pt x="501" y="1481" on="1"/>
        <pt x="501" y="1531" on="0"/>
        <pt x="554" y="1623" on="0"/>
        <pt x="647" y="1672" on="0"/>
      </contour>
      <contour>
        <pt x="677" y="1564" on="0"/>
        <pt x="638" y="1543" on="0"/>
        <pt x="615" y="1505" on="0"/>
        <pt x="615" y="1484" on="1"/>
        <pt x="615" y="1463" on="0"/>
        <pt x="637" y="1425" on="0"/>
        <pt x="676" y="1404" on="0"/>
        <pt x="697" y="1404" on="1"/>
        <pt x="719" y="1404" on="0"/>
        <pt x="758" y="1425" on="0"/>
        <pt x="779" y="1463" on="0"/>
        <pt x="779" y="1484" on="1"/>
        <pt x="779" y="1505" on="0"/>
        <pt x="757" y="1543" on="0"/>
        <pt x="718" y="1564" on="0"/>
        <pt x="697" y="1564" on="1"/>
      </contour>
    </TTGlyph>
    <TTGlyph name="uni0E96" xMin="100" yMin="-400" xMax="1295" yMax="1140">
      <contour>
        <pt x="565" y="244" on="1"/>
        <pt x="494" y="244" on="0"/>
        <pt x="494" y="169" on="1"/>
        <pt x="494" y="94" on="0"/>
        <pt x="565" y="94" on="1"/>
        <pt x="635" y="94" on="0"/>
        <pt x="635" y="169" on="1"/>
        <pt x="635" y="244" on="0"/>
      </contour>
      <contour>
        <pt x="272" y="1040" on="1"/>
        <pt x="210" y="1040" on="0"/>
        <pt x="210" y="995" on="1"/>
        <pt x="210" y="949" on="0"/>
        <pt x="279" y="947" on="1"/>
        <pt x="293" y="947" on="1"/>
        <pt x="325" y="947" on="0"/>
        <pt x="354" y="954" on="1"/>
        <pt x="345" y="1040" on="0"/>
      </contour>
      <contour>
        <pt x="1112" y="810" on="1"/>
        <pt x="1102" y="999" on="0"/>
        <pt x="836" y="1006" on="1"/>
        <pt x="717" y="1001" on="0"/>
        <pt x="604" y="948" on="1"/>
        <pt x="534" y="915" on="1"/>
        <pt x="494" y="894" on="1"/>
        <pt x="494" y="337" on="1"/>
        <pt x="519" y="340" on="0"/>
        <pt x="544" y="340" on="1"/>
        <pt x="754" y="340" on="0"/>
        <pt x="754" y="165" on="1"/>
        <pt x="754" y="-10" on="0"/>
        <pt x="544" y="-10" on="1"/>
        <pt x="530" y="-10" on="1"/>
        <pt x="359" y="-10" on="0"/>
        <pt x="359" y="156" on="1"/>
        <pt x="359" y="856" on="1"/>
        <pt x="309" y="840" on="0"/>
        <pt x="283" y="840" on="1"/>
        <pt x="100" y="840" on="0"/>
        <pt x="100" y="987" on="1"/>
        <pt x="100" y="1130" on="0"/>
        <pt x="280" y="1140" on="1"/>
        <pt x="419" y="1130" on="0"/>
        <pt x="477" y="1028" on="1"/>
        <pt x="659" y="1130" on="0"/>
        <pt x="846" y="1140" on="1"/>
        <pt x="1248" y="1123" on="0"/>
        <pt x="1248" y="810" on="1"/>
        <pt x="1248" y="-114" on="1"/>
        <pt x="1248" y="-186" on="0"/>
        <pt x="1257" y="-321" on="0"/>
        <pt x="1287" y="-375" on="1"/>
        <pt x="1295" y="-385" on="0"/>
        <pt x="1295" y="-391" on="1"/>
        <pt x="1291" y="-400" on="0"/>
        <pt x="1248" y="-400" on="1"/>
        <pt x="1177" y="-400" on="0"/>
        <pt x="1154" y="-378" on="0"/>
        <pt x="1127" y="-300" on="0"/>
        <pt x="1112" y="-195" on="0"/>
        <pt x="1112" y="-97" on="1"/>
      </contour>
    </TTGlyph>
    <TTGlyph name="uni0E96.am" xMin="100" yMin="-400" xMax="1295" yMax="1672">
      <contour>
        <pt x="635" y="244" on="0"/>
        <pt x="565" y="244" on="1"/>
        <pt x="494" y="244" on="0"/>
        <pt x="494" y="169" on="1"/>
        <pt x="494" y="94" on="0"/>
        <pt x="565" y="94" on="1"/>
        <pt x="635" y="94" on="0"/>
        <pt x="635" y="169" on="1"/>
      </contour>
      <contour>
        <pt x="272" y="1040" on="1"/>
        <pt x="210" y="1040" on="0"/>
        <pt x="210" y="995" on="1"/>
        <pt x="210" y="949" on="0"/>
        <pt x="279" y="947" on="1"/>
        <pt x="293" y="947" on="1"/>
        <pt x="325" y="947" on="0"/>
        <pt x="354" y="954" on="1"/>
        <pt x="345" y="1040" on="0"/>
      </contour>
      <contour>
        <pt x="1112" y="810" on="1"/>
        <pt x="1102" y="999" on="0"/>
        <pt x="836" y="1006" on="1"/>
        <pt x="717" y="1001" on="0"/>
        <pt x="604" y="948" on="1"/>
        <pt x="534" y="915" on="1"/>
        <pt x="494" y="894" on="1"/>
        <pt x="494" y="337" on="1"/>
        <pt x="519" y="340" on="0"/>
        <pt x="544" y="340" on="1"/>
        <pt x="754" y="340" on="0"/>
        <pt x="754" y="165" on="1"/>
        <pt x="754" y="-10" on="0"/>
        <pt x="544" y="-10" on="1"/>
        <pt x="530" y="-10" on="1"/>
        <pt x="359" y="-10" on="0"/>
        <pt x="359" y="156" on="1"/>
        <pt x="359" y="856" on="1"/>
        <pt x="309" y="840" on="0"/>
        <pt x="283" y="840" on="1"/>
        <pt x="100" y="840" on="0"/>
        <pt x="100" y="987" on="1"/>
        <pt x="100" y="1130" on="0"/>
        <pt x="280" y="1140" on="1"/>
        <pt x="419" y="1130" on="0"/>
        <pt x="477" y="1028" on="1"/>
        <pt x="659" y="1130" on="0"/>
        <pt x="846" y="1140" on="1"/>
        <pt x="1248" y="1123" on="0"/>
        <pt x="1248" y="810" on="1"/>
        <pt x="1248" y="-114" on="1"/>
        <pt x="1248" y="-186" on="0"/>
        <pt x="1257" y="-321" on="0"/>
        <pt x="1287" y="-375" on="1"/>
        <pt x="1295" y="-385" on="0"/>
        <pt x="1295" y="-391" on="1"/>
        <pt x="1291" y="-400" on="0"/>
        <pt x="1248" y="-400" on="1"/>
        <pt x="1177" y="-400" on="0"/>
        <pt x="1154" y="-378" on="0"/>
        <pt x="1127" y="-300" on="0"/>
        <pt x="1112" y="-195" on="0"/>
        <pt x="1112" y="-97" on="1"/>
      </contour>
      <contour>
        <pt x="729" y="1672" on="1"/>
        <pt x="778" y="1672" on="0"/>
        <pt x="872" y="1623" on="0"/>
        <pt x="924" y="1531" on="0"/>
        <pt x="924" y="1481" on="1"/>
        <pt x="924" y="1432" on="0"/>
        <pt x="873" y="1341" on="0"/>
        <pt x="780" y="1291" on="0"/>
        <pt x="729" y="1291" on="1"/>
        <pt x="678" y="1291" on="0"/>
        <pt x="585" y="1341" on="0"/>
        <pt x="533" y="1432" on="0"/>
        <pt x="533" y="1481" on="1"/>
        <pt x="533" y="1531" on="0"/>
        <pt x="586" y="1623" on="0"/>
        <pt x="679" y="1672" on="0"/>
      </contour>
      <contour>
        <pt x="709" y="1564" on="0"/>
        <pt x="670" y="1543" on="0"/>
        <pt x="647" y="1505" on="0"/>
        <pt x="647" y="1484" on="1"/>
        <pt x="647" y="1463" on="0"/>
        <pt x="669" y="1425" on="0"/>
        <pt x="708" y="1404" on="0"/>
        <pt x="729" y="1404" on="1"/>
        <pt x="751" y="1404" on="0"/>
        <pt x="790" y="1425" on="0"/>
        <pt x="811" y="1463" on="0"/>
        <pt x="811" y="1484" on="1"/>
        <pt x="811" y="1505" on="0"/>
        <pt x="789" y="1543" on="0"/>
        <pt x="750" y="1564" on="0"/>
        <pt x="729" y="1564" on="1"/>
      </contour>
    </TTGlyph>
    <TTGlyph name="uni0E97" xMin="147" yMin="0" xMax="1347" yMax="1140">
      <contour>
        <pt x="317" y="895" on="1"/>
        <pt x="381" y="895" on="0"/>
        <pt x="381" y="968" on="1"/>
        <pt x="381" y="1042" on="0"/>
        <pt x="317" y="1042" on="1"/>
        <pt x="253" y="1042" on="0"/>
        <pt x="253" y="968" on="1"/>
        <pt x="253" y="895" on="0"/>
      </contour>
      <contour>
        <pt x="283" y="344" on="1"/>
        <pt x="291" y="131" on="0"/>
        <pt x="488" y="131" on="1"/>
        <pt x="685" y="131" on="0"/>
        <pt x="693" y="353" on="1"/>
        <pt x="693" y="802" on="1"/>
        <pt x="693" y="1140" on="0"/>
        <pt x="1001" y="1140" on="1"/>
        <pt x="1347" y="1140" on="0"/>
        <pt x="1347" y="786" on="1"/>
        <pt x="1347" y="34" on="1"/>
        <pt x="1347" y="0" on="0"/>
        <pt x="1280" y="0" on="1"/>
        <pt x="1212" y="0" on="0"/>
        <pt x="1212" y="34" on="1"/>
        <pt x="1208" y="788" on="1"/>
        <pt x="1203" y="1009" on="0"/>
        <pt x="1014" y="1009" on="1"/>
        <pt x="829" y="1009" on="0"/>
        <pt x="829" y="786" on="1"/>
        <pt x="829" y="353" on="1"/>
        <pt x="829" y="0" on="0"/>
        <pt x="488" y="0" on="1"/>
        <pt x="147" y="0" on="0"/>
        <pt x="147" y="344" on="1"/>
        <pt x="147" y="542" on="0"/>
        <pt x="263" y="697" on="1"/>
        <pt x="303" y="749" on="0"/>
        <pt x="330" y="796" on="1"/>
        <pt x="147" y="798" on="0"/>
        <pt x="147" y="968" on="1"/>
        <pt x="147" y="1140" on="0"/>
        <pt x="332" y="1140" on="1"/>
        <pt x="519" y="1140" on="0"/>
        <pt x="519" y="968" on="1"/>
        <pt x="519" y="822" on="0"/>
        <pt x="291" y="498" on="0"/>
      </contour>
    </TTGlyph>
    <TTGlyph name="uni0E97.am" xMin="147" yMin="0" xMax="1347" yMax="1672">
      <contour>
        <pt x="317" y="895" on="1"/>
        <pt x="381" y="895" on="0"/>
        <pt x="381" y="968" on="1"/>
        <pt x="381" y="1042" on="0"/>
        <pt x="317" y="1042" on="1"/>
        <pt x="253" y="1042" on="0"/>
        <pt x="253" y="968" on="1"/>
        <pt x="253" y="895" on="0"/>
      </contour>
      <contour>
        <pt x="283" y="344" on="1"/>
        <pt x="291" y="131" on="0"/>
        <pt x="488" y="131" on="1"/>
        <pt x="685" y="131" on="0"/>
        <pt x="693" y="353" on="1"/>
        <pt x="693" y="802" on="1"/>
        <pt x="693" y="1140" on="0"/>
        <pt x="1001" y="1140" on="1"/>
        <pt x="1347" y="1140" on="0"/>
        <pt x="1347" y="786" on="1"/>
        <pt x="1347" y="34" on="1"/>
        <pt x="1347" y="0" on="0"/>
        <pt x="1280" y="0" on="1"/>
        <pt x="1212" y="0" on="0"/>
        <pt x="1212" y="34" on="1"/>
        <pt x="1208" y="788" on="1"/>
        <pt x="1203" y="1009" on="0"/>
        <pt x="1014" y="1009" on="1"/>
        <pt x="829" y="1009" on="0"/>
        <pt x="829" y="786" on="1"/>
        <pt x="829" y="353" on="1"/>
        <pt x="829" y="0" on="0"/>
        <pt x="488" y="0" on="1"/>
        <pt x="147" y="0" on="0"/>
        <pt x="147" y="344" on="1"/>
        <pt x="147" y="542" on="0"/>
        <pt x="263" y="697" on="1"/>
        <pt x="303" y="749" on="0"/>
        <pt x="330" y="796" on="1"/>
        <pt x="147" y="798" on="0"/>
        <pt x="147" y="968" on="1"/>
        <pt x="147" y="1140" on="0"/>
        <pt x="332" y="1140" on="1"/>
        <pt x="519" y="1140" on="0"/>
        <pt x="519" y="968" on="1"/>
        <pt x="519" y="822" on="0"/>
        <pt x="291" y="498" on="0"/>
      </contour>
      <contour>
        <pt x="776" y="1672" on="1"/>
        <pt x="825" y="1672" on="0"/>
        <pt x="919" y="1623" on="0"/>
        <pt x="971" y="1531" on="0"/>
        <pt x="971" y="1481" on="1"/>
        <pt x="971" y="1432" on="0"/>
        <pt x="920" y="1341" on="0"/>
        <pt x="827" y="1291" on="0"/>
        <pt x="776" y="1291" on="1"/>
        <pt x="725" y="1291" on="0"/>
        <pt x="632" y="1341" on="0"/>
        <pt x="580" y="1432" on="0"/>
        <pt x="580" y="1481" on="1"/>
        <pt x="580" y="1531" on="0"/>
        <pt x="633" y="1623" on="0"/>
        <pt x="726" y="1672" on="0"/>
      </contour>
      <contour>
        <pt x="756" y="1564" on="0"/>
        <pt x="717" y="1543" on="0"/>
        <pt x="694" y="1505" on="0"/>
        <pt x="694" y="1484" on="1"/>
        <pt x="694" y="1463" on="0"/>
        <pt x="716" y="1425" on="0"/>
        <pt x="755" y="1404" on="0"/>
        <pt x="776" y="1404" on="1"/>
        <pt x="798" y="1404" on="0"/>
        <pt x="837" y="1425" on="0"/>
        <pt x="858" y="1463" on="0"/>
        <pt x="858" y="1484" on="1"/>
        <pt x="858" y="1505" on="0"/>
        <pt x="836" y="1543" on="0"/>
        <pt x="797" y="1564" on="0"/>
        <pt x="776" y="1564" on="1"/>
      </contour>
    </TTGlyph>
    <TTGlyph name="uni0E99" xMin="147" yMin="0" xMax="1157" yMax="1140">
      <contour>
        <pt x="259" y="893" on="0"/>
        <pt x="318" y="893" on="1"/>
        <pt x="377" y="893" on="0"/>
        <pt x="377" y="967" on="1"/>
        <pt x="377" y="1040" on="0"/>
        <pt x="318" y="1040" on="1"/>
        <pt x="259" y="1040" on="0"/>
        <pt x="259" y="967" on="1"/>
      </contour>
      <contour>
        <pt x="502" y="265" on="1"/>
        <pt x="572" y="247" on="0"/>
        <pt x="626" y="200" on="1"/>
        <pt x="714" y="124" on="0"/>
        <pt x="826" y="124" on="1"/>
        <pt x="1030" y="124" on="0"/>
        <pt x="1030" y="297" on="1"/>
        <pt x="1030" y="1108" on="1"/>
        <pt x="1030" y="1140" on="0"/>
        <pt x="1094" y="1140" on="1"/>
        <pt x="1157" y="1140" on="0"/>
        <pt x="1157" y="1106" on="1"/>
        <pt x="1157" y="292" on="1"/>
        <pt x="1157" y="0" on="0"/>
        <pt x="826" y="0" on="1"/>
        <pt x="674" y="0" on="0"/>
        <pt x="585" y="80" on="1"/>
        <pt x="528" y="132" on="0"/>
        <pt x="472" y="151" on="1"/>
        <pt x="404" y="4" on="0"/>
        <pt x="231" y="4" on="1"/>
        <pt x="222" y="4" on="1"/>
        <pt x="195" y="5" on="0"/>
        <pt x="195" y="57" on="1"/>
        <pt x="195" y="109" on="0"/>
        <pt x="221" y="116" on="0"/>
        <pt x="331" y="129" on="0"/>
        <pt x="368" y="241" on="0"/>
        <pt x="377" y="339" on="1"/>
        <pt x="377" y="798" on="1"/>
        <pt x="348" y="795" on="0"/>
        <pt x="327" y="795" on="1"/>
        <pt x="147" y="795" on="0"/>
        <pt x="147" y="967" on="1"/>
        <pt x="147" y="1138" on="0"/>
        <pt x="327" y="1140" on="1"/>
        <pt x="506" y="1138" on="0"/>
        <pt x="506" y="967" on="1"/>
        <pt x="506" y="338" on="1"/>
        <pt x="506" y="299" on="0"/>
      </contour>
    </TTGlyph>
    <TTGlyph name="uni0E99.am" xMin="147" yMin="0" xMax="1157" yMax="1672">
      <contour>
        <pt x="259" y="893" on="0"/>
        <pt x="318" y="893" on="1"/>
        <pt x="377" y="893" on="0"/>
        <pt x="377" y="967" on="1"/>
        <pt x="377" y="1040" on="0"/>
        <pt x="318" y="1040" on="1"/>
        <pt x="259" y="1040" on="0"/>
        <pt x="259" y="967" on="1"/>
      </contour>
      <contour>
        <pt x="502" y="265" on="1"/>
        <pt x="572" y="247" on="0"/>
        <pt x="626" y="200" on="1"/>
        <pt x="714" y="124" on="0"/>
        <pt x="826" y="124" on="1"/>
        <pt x="1030" y="124" on="0"/>
        <pt x="1030" y="297" on="1"/>
        <pt x="1030" y="1108" on="1"/>
        <pt x="1030" y="1140" on="0"/>
        <pt x="1094" y="1140" on="1"/>
        <pt x="1157" y="1140" on="0"/>
        <pt x="1157" y="1106" on="1"/>
        <pt x="1157" y="292" on="1"/>
        <pt x="1157" y="0" on="0"/>
        <pt x="826" y="0" on="1"/>
        <pt x="674" y="0" on="0"/>
        <pt x="585" y="80" on="1"/>
        <pt x="528" y="132" on="0"/>
        <pt x="472" y="151" on="1"/>
        <pt x="404" y="4" on="0"/>
        <pt x="231" y="4" on="1"/>
        <pt x="222" y="4" on="1"/>
        <pt x="195" y="5" on="0"/>
        <pt x="195" y="57" on="1"/>
        <pt x="195" y="109" on="0"/>
        <pt x="221" y="116" on="0"/>
        <pt x="331" y="129" on="0"/>
        <pt x="368" y="241" on="0"/>
        <pt x="377" y="339" on="1"/>
        <pt x="377" y="798" on="1"/>
        <pt x="348" y="795" on="0"/>
        <pt x="327" y="795" on="1"/>
        <pt x="147" y="795" on="0"/>
        <pt x="147" y="967" on="1"/>
        <pt x="147" y="1138" on="0"/>
        <pt x="327" y="1140" on="1"/>
        <pt x="506" y="1138" on="0"/>
        <pt x="506" y="967" on="1"/>
        <pt x="506" y="338" on="1"/>
        <pt x="506" y="299" on="0"/>
      </contour>
      <contour>
        <pt x="776" y="1672" on="1"/>
        <pt x="825" y="1672" on="0"/>
        <pt x="919" y="1623" on="0"/>
        <pt x="971" y="1531" on="0"/>
        <pt x="971" y="1481" on="1"/>
        <pt x="971" y="1432" on="0"/>
        <pt x="920" y="1341" on="0"/>
        <pt x="827" y="1291" on="0"/>
        <pt x="776" y="1291" on="1"/>
        <pt x="725" y="1291" on="0"/>
        <pt x="632" y="1341" on="0"/>
        <pt x="580" y="1432" on="0"/>
        <pt x="580" y="1481" on="1"/>
        <pt x="580" y="1531" on="0"/>
        <pt x="633" y="1623" on="0"/>
        <pt x="726" y="1672" on="0"/>
      </contour>
      <contour>
        <pt x="756" y="1564" on="0"/>
        <pt x="717" y="1543" on="0"/>
        <pt x="694" y="1505" on="0"/>
        <pt x="694" y="1484" on="1"/>
        <pt x="694" y="1463" on="0"/>
        <pt x="716" y="1425" on="0"/>
        <pt x="755" y="1404" on="0"/>
        <pt x="776" y="1404" on="1"/>
        <pt x="798" y="1404" on="0"/>
        <pt x="837" y="1425" on="0"/>
        <pt x="858" y="1463" on="0"/>
        <pt x="858" y="1484" on="1"/>
        <pt x="858" y="1505" on="0"/>
        <pt x="836" y="1543" on="0"/>
        <pt x="797" y="1564" on="0"/>
        <pt x="776" y="1564" on="1"/>
      </contour>
    </TTGlyph>
    <TTGlyph name="uni0E9A" xMin="147" yMin="0" xMax="1157" yMax="1140">
      <contour>
        <pt x="310" y="893" on="1"/>
        <pt x="371" y="893" on="0"/>
        <pt x="371" y="967" on="1"/>
        <pt x="371" y="1040" on="0"/>
        <pt x="310" y="1040" on="1"/>
        <pt x="249" y="1040" on="0"/>
        <pt x="249" y="967" on="1"/>
        <pt x="249" y="893" on="0"/>
      </contour>
      <contour>
        <pt x="284" y="343" on="1"/>
        <pt x="284" y="124" on="0"/>
        <pt x="654" y="124" on="1"/>
        <pt x="1022" y="124" on="0"/>
        <pt x="1022" y="392" on="1"/>
        <pt x="1022" y="1105" on="1"/>
        <pt x="1022" y="1140" on="0"/>
        <pt x="1090" y="1140" on="1"/>
        <pt x="1157" y="1140" on="0"/>
        <pt x="1157" y="1105" on="1"/>
        <pt x="1156" y="389" on="1"/>
        <pt x="1155" y="0" on="0"/>
        <pt x="651" y="0" on="1"/>
        <pt x="147" y="0" on="0"/>
        <pt x="147" y="343" on="1"/>
        <pt x="147" y="541" on="0"/>
        <pt x="259" y="696" on="1"/>
        <pt x="297" y="748" on="0"/>
        <pt x="322" y="795" on="1"/>
        <pt x="147" y="797" on="0"/>
        <pt x="147" y="967" on="1"/>
        <pt x="147" y="1138" on="0"/>
        <pt x="325" y="1140" on="1"/>
        <pt x="503" y="1138" on="0"/>
        <pt x="503" y="967" on="1"/>
        <pt x="503" y="820" on="0"/>
        <pt x="284" y="497" on="0"/>
      </contour>
    </TTGlyph>
    <TTGlyph name="uni0E9A.am" xMin="147" yMin="0" xMax="1157" yMax="1672">
      <contour>
        <pt x="310" y="893" on="1"/>
        <pt x="371" y="893" on="0"/>
        <pt x="371" y="967" on="1"/>
        <pt x="371" y="1040" on="0"/>
        <pt x="310" y="1040" on="1"/>
        <pt x="249" y="1040" on="0"/>
        <pt x="249" y="967" on="1"/>
        <pt x="249" y="893" on="0"/>
      </contour>
      <contour>
        <pt x="284" y="343" on="1"/>
        <pt x="284" y="124" on="0"/>
        <pt x="654" y="124" on="1"/>
        <pt x="1022" y="124" on="0"/>
        <pt x="1022" y="392" on="1"/>
        <pt x="1022" y="1105" on="1"/>
        <pt x="1022" y="1140" on="0"/>
        <pt x="1090" y="1140" on="1"/>
        <pt x="1157" y="1140" on="0"/>
        <pt x="1157" y="1105" on="1"/>
        <pt x="1156" y="389" on="1"/>
        <pt x="1155" y="0" on="0"/>
        <pt x="651" y="0" on="1"/>
        <pt x="147" y="0" on="0"/>
        <pt x="147" y="343" on="1"/>
        <pt x="147" y="541" on="0"/>
        <pt x="259" y="696" on="1"/>
        <pt x="297" y="748" on="0"/>
        <pt x="322" y="795" on="1"/>
        <pt x="147" y="797" on="0"/>
        <pt x="147" y="967" on="1"/>
        <pt x="147" y="1138" on="0"/>
        <pt x="325" y="1140" on="1"/>
        <pt x="503" y="1138" on="0"/>
        <pt x="503" y="967" on="1"/>
        <pt x="503" y="820" on="0"/>
        <pt x="284" y="497" on="0"/>
      </contour>
      <contour>
        <pt x="756" y="1672" on="1"/>
        <pt x="805" y="1672" on="0"/>
        <pt x="899" y="1623" on="0"/>
        <pt x="951" y="1531" on="0"/>
        <pt x="951" y="1481" on="1"/>
        <pt x="951" y="1432" on="0"/>
        <pt x="900" y="1341" on="0"/>
        <pt x="807" y="1291" on="0"/>
        <pt x="756" y="1291" on="1"/>
        <pt x="705" y="1291" on="0"/>
        <pt x="612" y="1341" on="0"/>
        <pt x="560" y="1432" on="0"/>
        <pt x="560" y="1481" on="1"/>
        <pt x="560" y="1531" on="0"/>
        <pt x="613" y="1623" on="0"/>
        <pt x="706" y="1672" on="0"/>
      </contour>
      <contour>
        <pt x="736" y="1564" on="0"/>
        <pt x="697" y="1543" on="0"/>
        <pt x="674" y="1505" on="0"/>
        <pt x="674" y="1484" on="1"/>
        <pt x="674" y="1463" on="0"/>
        <pt x="696" y="1425" on="0"/>
        <pt x="735" y="1404" on="0"/>
        <pt x="756" y="1404" on="1"/>
        <pt x="778" y="1404" on="0"/>
        <pt x="817" y="1425" on="0"/>
        <pt x="838" y="1463" on="0"/>
        <pt x="838" y="1484" on="1"/>
        <pt x="838" y="1505" on="0"/>
        <pt x="816" y="1543" on="0"/>
        <pt x="777" y="1564" on="0"/>
        <pt x="756" y="1564" on="1"/>
      </contour>
    </TTGlyph>
    <TTGlyph name="uni0E9B" xMin="147" yMin="0" xMax="1147" yMax="1465">
      <contour>
        <pt x="302" y="891" on="1"/>
        <pt x="360" y="891" on="0"/>
        <pt x="360" y="966" on="1"/>
        <pt x="360" y="1041" on="0"/>
        <pt x="302" y="1041" on="1"/>
        <pt x="244" y="1041" on="0"/>
        <pt x="244" y="966" on="1"/>
        <pt x="244" y="891" on="0"/>
      </contour>
      <contour>
        <pt x="982" y="1163" on="1"/>
        <pt x="982" y="1220" on="0"/>
        <pt x="984" y="1261" on="1"/>
        <pt x="985" y="1310" on="0"/>
        <pt x="998" y="1395" on="0"/>
        <pt x="1019" y="1465" on="0"/>
        <pt x="1088" y="1465" on="1"/>
        <pt x="1147" y="1465" on="0"/>
        <pt x="1147" y="1448" on="1"/>
        <pt x="1147" y="1445" on="0"/>
        <pt x="1145" y="1441" on="1"/>
        <pt x="1133" y="1417" on="0"/>
        <pt x="1118" y="1329" on="0"/>
        <pt x="1113" y="1219" on="0"/>
        <pt x="1113" y="1146" on="1"/>
        <pt x="1113" y="400" on="1"/>
        <pt x="1113" y="0" on="0"/>
        <pt x="628" y="0" on="1"/>
        <pt x="147" y="0" on="0"/>
        <pt x="147" y="350" on="1"/>
        <pt x="147" y="552" on="0"/>
        <pt x="254" y="700" on="1"/>
        <pt x="290" y="753" on="0"/>
        <pt x="314" y="791" on="1"/>
        <pt x="147" y="793" on="0"/>
        <pt x="147" y="966" on="1"/>
        <pt x="147" y="1140" on="0"/>
        <pt x="315" y="1140" on="1"/>
        <pt x="319" y="1140" on="1"/>
        <pt x="490" y="1140" on="0"/>
        <pt x="490" y="966" on="1"/>
        <pt x="490" y="817" on="0"/>
        <pt x="281" y="507" on="0"/>
        <pt x="281" y="350" on="1"/>
        <pt x="281" y="135" on="0"/>
        <pt x="630" y="135" on="1"/>
        <pt x="981" y="135" on="0"/>
        <pt x="981" y="400" on="1"/>
        <pt x="981" y="1163" on="1"/>
      </contour>
    </TTGlyph>
    <TTGlyph name="uni0E9B.am" xMin="147" yMin="0" xMax="1147" yMax="1672">
      <contour>
        <pt x="716" y="1672" on="1"/>
        <pt x="765" y="1672" on="0"/>
        <pt x="859" y="1623" on="0"/>
        <pt x="911" y="1531" on="0"/>
        <pt x="911" y="1481" on="1"/>
        <pt x="911" y="1432" on="0"/>
        <pt x="860" y="1341" on="0"/>
        <pt x="767" y="1291" on="0"/>
        <pt x="716" y="1291" on="1"/>
        <pt x="665" y="1291" on="0"/>
        <pt x="572" y="1341" on="0"/>
        <pt x="520" y="1432" on="0"/>
        <pt x="520" y="1481" on="1"/>
        <pt x="520" y="1531" on="0"/>
        <pt x="573" y="1623" on="0"/>
        <pt x="666" y="1672" on="0"/>
      </contour>
      <contour>
        <pt x="302" y="891" on="1"/>
        <pt x="360" y="891" on="0"/>
        <pt x="360" y="966" on="1"/>
        <pt x="360" y="1041" on="0"/>
        <pt x="302" y="1041" on="1"/>
        <pt x="244" y="1041" on="0"/>
        <pt x="244" y="966" on="1"/>
        <pt x="244" y="891" on="0"/>
      </contour>
      <contour>
        <pt x="634" y="1505" on="0"/>
        <pt x="634" y="1484" on="1"/>
        <pt x="634" y="1463" on="0"/>
        <pt x="656" y="1425" on="0"/>
        <pt x="695" y="1404" on="0"/>
        <pt x="716" y="1404" on="1"/>
        <pt x="738" y="1404" on="0"/>
        <pt x="777" y="1425" on="0"/>
        <pt x="798" y="1463" on="0"/>
        <pt x="798" y="1484" on="1"/>
        <pt x="798" y="1505" on="0"/>
        <pt x="776" y="1543" on="0"/>
        <pt x="737" y="1564" on="0"/>
        <pt x="716" y="1564" on="1"/>
        <pt x="696" y="1564" on="0"/>
        <pt x="657" y="1543" on="0"/>
      </contour>
      <contour>
        <pt x="1113" y="400" on="1"/>
        <pt x="1113" y="0" on="0"/>
        <pt x="628" y="0" on="1"/>
        <pt x="147" y="0" on="0"/>
        <pt x="147" y="350" on="1"/>
        <pt x="147" y="552" on="0"/>
        <pt x="254" y="700" on="1"/>
        <pt x="290" y="753" on="0"/>
        <pt x="314" y="791" on="1"/>
        <pt x="147" y="793" on="0"/>
        <pt x="147" y="966" on="1"/>
        <pt x="147" y="1140" on="0"/>
        <pt x="315" y="1140" on="1"/>
        <pt x="319" y="1140" on="1"/>
        <pt x="490" y="1140" on="0"/>
        <pt x="490" y="966" on="1"/>
        <pt x="490" y="817" on="0"/>
        <pt x="281" y="507" on="0"/>
        <pt x="281" y="350" on="1"/>
        <pt x="281" y="135" on="0"/>
        <pt x="630" y="135" on="1"/>
        <pt x="981" y="135" on="0"/>
        <pt x="981" y="400" on="1"/>
        <pt x="981" y="1163" on="1"/>
        <pt x="982" y="1163" on="1"/>
        <pt x="982" y="1220" on="0"/>
        <pt x="984" y="1261" on="1"/>
        <pt x="985" y="1310" on="0"/>
        <pt x="998" y="1395" on="0"/>
        <pt x="1019" y="1465" on="0"/>
        <pt x="1088" y="1465" on="1"/>
        <pt x="1147" y="1465" on="0"/>
        <pt x="1147" y="1448" on="1"/>
        <pt x="1147" y="1445" on="0"/>
        <pt x="1145" y="1441" on="1"/>
        <pt x="1133" y="1417" on="0"/>
        <pt x="1118" y="1329" on="0"/>
        <pt x="1113" y="1219" on="0"/>
        <pt x="1113" y="1146" on="1"/>
      </contour>
    </TTGlyph>
    <TTGlyph name="uni0E9C" xMin="168" yMin="0" xMax="1200" yMax="1210">
      <contour>
        <pt x="462" y="989" on="1"/>
        <pt x="462" y="1053" on="0"/>
        <pt x="398" y="1053" on="1"/>
        <pt x="333" y="1053" on="0"/>
        <pt x="333" y="989" on="1"/>
        <pt x="333" y="926" on="0"/>
        <pt x="398" y="926" on="1"/>
        <pt x="462" y="926" on="0"/>
      </contour>
      <contour>
        <pt x="963" y="926" on="1"/>
        <pt x="1024" y="942" on="0"/>
        <pt x="1037" y="992" on="1"/>
        <pt x="1013" y="1048" on="0"/>
        <pt x="963" y="1048" on="1"/>
        <pt x="902" y="1048" on="0"/>
        <pt x="895" y="979" on="1"/>
        <pt x="902" y="926" on="0"/>
      </contour>
      <contour>
        <pt x="682" y="103" on="1"/>
        <pt x="612" y="0" on="0"/>
        <pt x="460" y="0" on="1"/>
        <pt x="168" y="0" on="0"/>
        <pt x="168" y="335" on="1"/>
        <pt x="168" y="860" on="1"/>
        <pt x="168" y="1132" on="0"/>
        <pt x="398" y="1140" on="1"/>
        <pt x="567" y="1136" on="0"/>
        <pt x="567" y="981" on="1"/>
        <pt x="567" y="970" on="1"/>
        <pt x="548" y="831" on="0"/>
        <pt x="415" y="825" on="1"/>
        <pt x="349" y="825" on="0"/>
        <pt x="303" y="873" on="1"/>
        <pt x="303" y="335" on="1"/>
        <pt x="303" y="127" on="0"/>
        <pt x="462" y="127" on="1"/>
        <pt x="615" y="127" on="0"/>
        <pt x="615" y="309" on="1"/>
        <pt x="615" y="374" on="1"/>
        <pt x="615" y="424" on="0"/>
        <pt x="682" y="424" on="1"/>
        <pt x="749" y="424" on="0"/>
        <pt x="749" y="367" on="1"/>
        <pt x="746" y="323" on="1"/>
        <pt x="746" y="316" on="1"/>
        <pt x="746" y="127" on="0"/>
        <pt x="897" y="127" on="1"/>
        <pt x="1051" y="127" on="0"/>
        <pt x="1051" y="335" on="1"/>
        <pt x="1051" y="865" on="1"/>
        <pt x="1025" y="825" on="0"/>
        <pt x="948" y="825" on="1"/>
        <pt x="805" y="831" on="0"/>
        <pt x="789" y="974" on="1"/>
        <pt x="789" y="1128" on="0"/>
        <pt x="967" y="1140" on="1"/>
        <pt x="1044" y="1140" on="0"/>
        <pt x="1084" y="1096" on="1"/>
        <pt x="1092" y="1131" on="0"/>
        <pt x="1092" y="1160" on="1"/>
        <pt x="1092" y="1170" on="0"/>
        <pt x="1091" y="1180" on="1"/>
        <pt x="1091" y="1182" on="1"/>
        <pt x="1091" y="1210" on="0"/>
        <pt x="1137" y="1210" on="1"/>
        <pt x="1185" y="1210" on="0"/>
        <pt x="1198" y="1179" on="0"/>
        <pt x="1200" y="1141" on="1"/>
        <pt x="1198" y="1094" on="0"/>
        <pt x="1167" y="1009" on="1"/>
        <pt x="1186" y="946" on="0"/>
        <pt x="1186" y="855" on="1"/>
        <pt x="1186" y="335" on="1"/>
        <pt x="1186" y="0" on="0"/>
        <pt x="905" y="0" on="1"/>
        <pt x="753" y="0" on="0"/>
      </contour>
    </TTGlyph>
    <TTGlyph name="uni0E9C.am" xMin="168" yMin="0" xMax="1200" yMax="1672">
      <contour>
        <pt x="697" y="1672" on="1"/>
        <pt x="746" y="1672" on="0"/>
        <pt x="840" y="1623" on="0"/>
        <pt x="892" y="1531" on="0"/>
        <pt x="892" y="1481" on="1"/>
        <pt x="892" y="1432" on="0"/>
        <pt x="841" y="1341" on="0"/>
        <pt x="748" y="1291" on="0"/>
        <pt x="697" y="1291" on="1"/>
        <pt x="646" y="1291" on="0"/>
        <pt x="553" y="1341" on="0"/>
        <pt x="501" y="1432" on="0"/>
        <pt x="501" y="1481" on="1"/>
        <pt x="501" y="1531" on="0"/>
        <pt x="554" y="1623" on="0"/>
        <pt x="647" y="1672" on="0"/>
      </contour>
      <contour>
        <pt x="638" y="1543" on="0"/>
        <pt x="615" y="1505" on="0"/>
        <pt x="615" y="1484" on="1"/>
        <pt x="615" y="1463" on="0"/>
        <pt x="637" y="1425" on="0"/>
        <pt x="676" y="1404" on="0"/>
        <pt x="697" y="1404" on="1"/>
        <pt x="719" y="1404" on="0"/>
        <pt x="758" y="1425" on="0"/>
        <pt x="779" y="1463" on="0"/>
        <pt x="779" y="1484" on="1"/>
        <pt x="779" y="1505" on="0"/>
        <pt x="757" y="1543" on="0"/>
        <pt x="718" y="1564" on="0"/>
        <pt x="697" y="1564" on="1"/>
        <pt x="677" y="1564" on="0"/>
      </contour>
      <contour>
        <pt x="462" y="989" on="1"/>
        <pt x="462" y="1053" on="0"/>
        <pt x="398" y="1053" on="1"/>
        <pt x="333" y="1053" on="0"/>
        <pt x="333" y="989" on="1"/>
        <pt x="333" y="926" on="0"/>
        <pt x="398" y="926" on="1"/>
        <pt x="462" y="926" on="0"/>
      </contour>
      <contour>
        <pt x="963" y="926" on="1"/>
        <pt x="1024" y="942" on="0"/>
        <pt x="1037" y="992" on="1"/>
        <pt x="1013" y="1048" on="0"/>
        <pt x="963" y="1048" on="1"/>
        <pt x="902" y="1048" on="0"/>
        <pt x="895" y="979" on="1"/>
        <pt x="902" y="926" on="0"/>
      </contour>
      <contour>
        <pt x="1186" y="335" on="1"/>
        <pt x="1186" y="0" on="0"/>
        <pt x="905" y="0" on="1"/>
        <pt x="753" y="0" on="0"/>
        <pt x="682" y="103" on="1"/>
        <pt x="612" y="0" on="0"/>
        <pt x="460" y="0" on="1"/>
        <pt x="168" y="0" on="0"/>
        <pt x="168" y="335" on="1"/>
        <pt x="168" y="860" on="1"/>
        <pt x="168" y="1132" on="0"/>
        <pt x="398" y="1140" on="1"/>
        <pt x="567" y="1136" on="0"/>
        <pt x="567" y="981" on="1"/>
        <pt x="567" y="970" on="1"/>
        <pt x="548" y="831" on="0"/>
        <pt x="415" y="825" on="1"/>
        <pt x="349" y="825" on="0"/>
        <pt x="303" y="873" on="1"/>
        <pt x="303" y="335" on="1"/>
        <pt x="303" y="127" on="0"/>
        <pt x="462" y="127" on="1"/>
        <pt x="615" y="127" on="0"/>
        <pt x="615" y="309" on="1"/>
        <pt x="615" y="374" on="1"/>
        <pt x="615" y="424" on="0"/>
        <pt x="682" y="424" on="1"/>
        <pt x="749" y="424" on="0"/>
        <pt x="749" y="367" on="1"/>
        <pt x="746" y="323" on="1"/>
        <pt x="746" y="316" on="1"/>
        <pt x="746" y="127" on="0"/>
        <pt x="897" y="127" on="1"/>
        <pt x="1051" y="127" on="0"/>
        <pt x="1051" y="335" on="1"/>
        <pt x="1051" y="865" on="1"/>
        <pt x="1025" y="825" on="0"/>
        <pt x="948" y="825" on="1"/>
        <pt x="805" y="831" on="0"/>
        <pt x="789" y="974" on="1"/>
        <pt x="789" y="1128" on="0"/>
        <pt x="967" y="1140" on="1"/>
        <pt x="1044" y="1140" on="0"/>
        <pt x="1084" y="1096" on="1"/>
        <pt x="1092" y="1131" on="0"/>
        <pt x="1092" y="1160" on="1"/>
        <pt x="1092" y="1170" on="0"/>
        <pt x="1091" y="1180" on="1"/>
        <pt x="1091" y="1182" on="1"/>
        <pt x="1091" y="1210" on="0"/>
        <pt x="1137" y="1210" on="1"/>
        <pt x="1185" y="1210" on="0"/>
        <pt x="1198" y="1179" on="0"/>
        <pt x="1200" y="1141" on="1"/>
        <pt x="1198" y="1094" on="0"/>
        <pt x="1167" y="1009" on="1"/>
        <pt x="1186" y="946" on="0"/>
        <pt x="1186" y="855" on="1"/>
      </contour>
    </TTGlyph>
    <TTGlyph name="uni0E9D" xMin="168" yMin="0" xMax="1189" yMax="1465">
      <contour>
        <pt x="444" y="982" on="1"/>
        <pt x="444" y="1051" on="0"/>
        <pt x="381" y="1051" on="1"/>
        <pt x="318" y="1051" on="0"/>
        <pt x="318" y="982" on="1"/>
        <pt x="318" y="913" on="0"/>
        <pt x="381" y="913" on="1"/>
        <pt x="444" y="913" on="0"/>
      </contour>
      <contour>
        <pt x="1162" y="363" on="1"/>
        <pt x="1162" y="0" on="0"/>
        <pt x="874" y="0" on="1"/>
        <pt x="725" y="0" on="0"/>
        <pt x="657" y="101" on="1"/>
        <pt x="589" y="0" on="0"/>
        <pt x="442" y="0" on="1"/>
        <pt x="168" y="0" on="0"/>
        <pt x="168" y="363" on="1"/>
        <pt x="168" y="842" on="1"/>
        <pt x="168" y="1137" on="0"/>
        <pt x="381" y="1140" on="1"/>
        <pt x="383" y="1140" on="1"/>
        <pt x="549" y="1140" on="0"/>
        <pt x="549" y="973" on="1"/>
        <pt x="549" y="963" on="1"/>
        <pt x="535" y="829" on="0"/>
        <pt x="399" y="820" on="1"/>
        <pt x="386" y="820" on="1"/>
        <pt x="300" y="820" on="0"/>
        <pt x="300" y="846" on="1"/>
        <pt x="300" y="363" on="1"/>
        <pt x="300" y="135" on="0"/>
        <pt x="444" y="135" on="1"/>
        <pt x="590" y="135" on="0"/>
        <pt x="590" y="319" on="1"/>
        <pt x="590" y="400" on="1"/>
        <pt x="590" y="460" on="0"/>
        <pt x="658" y="460" on="1"/>
        <pt x="725" y="460" on="0"/>
        <pt x="726" y="401" on="1"/>
        <pt x="723" y="342" on="1"/>
        <pt x="723" y="327" on="1"/>
        <pt x="723" y="135" on="0"/>
        <pt x="871" y="135" on="1"/>
        <pt x="1025" y="135" on="0"/>
        <pt x="1025" y="363" on="1"/>
        <pt x="1025" y="1163" on="1"/>
        <pt x="1026" y="1163" on="1"/>
        <pt x="1026" y="1220" on="0"/>
        <pt x="1028" y="1261" on="1"/>
        <pt x="1029" y="1310" on="0"/>
        <pt x="1041" y="1395" on="0"/>
        <pt x="1061" y="1465" on="0"/>
        <pt x="1130" y="1465" on="1"/>
        <pt x="1189" y="1465" on="0"/>
        <pt x="1189" y="1447" on="1"/>
        <pt x="1189" y="1444" on="0"/>
        <pt x="1187" y="1441" on="1"/>
        <pt x="1176" y="1417" on="0"/>
        <pt x="1163" y="1329" on="0"/>
        <pt x="1162" y="1219" on="0"/>
        <pt x="1162" y="1146" on="1"/>
      </contour>
    </TTGlyph>
</ttFont>
